<svg width="74" height="74" viewBox="0 0 74 74" fill="none" xmlns="http://www.w3.org/2000/svg">
<path d="M66.2683 56.2766L38.8933 15.2141C38.6846 14.9035 38.4028 14.6491 38.0726 14.4732C37.7424 14.2972 37.374 14.2052 36.9998 14.2052C36.6257 14.2052 36.2573 14.2972 35.9271 14.4732C35.5969 14.6491 35.3151 14.9035 35.1064 15.2141L7.73141 56.2766C7.53119 56.6234 7.42578 57.0168 7.42578 57.4172C7.42578 57.8176 7.53119 58.211 7.73141 58.5578C7.90993 58.9141 8.17867 59.2174 8.51087 59.4376C8.84307 59.6577 9.22715 59.787 9.62485 59.8125H64.3748C64.7875 59.8114 65.1922 59.6984 65.5457 59.4855C65.8992 59.2725 66.1884 58.9677 66.3823 58.6034C66.5742 58.2411 66.6648 57.8338 66.6447 57.4243C66.6247 57.0149 66.4946 56.6184 66.2683 56.2766Z" fill="#4277FD"/>
<path d="M37 46.125C36.395 46.125 35.8147 45.8847 35.3869 45.4568C34.9591 45.029 34.7188 44.4488 34.7188 43.8438V30.1562C34.7188 29.5512 34.9591 28.971 35.3869 28.5432C35.8147 28.1153 36.395 27.875 37 27.875C37.605 27.875 38.1853 28.1153 38.6131 28.5432C39.0409 28.971 39.2812 29.5512 39.2812 30.1562V43.8438C39.2812 44.4488 39.0409 45.029 38.6131 45.4568C38.1853 45.8847 37.605 46.125 37 46.125Z" fill="#ACD1FC"/>
<path d="M37 52.9688C36.395 52.9688 35.8147 52.7284 35.3869 52.3006C34.9591 51.8728 34.7188 51.2925 34.7188 50.6875C34.7188 50.0825 34.9591 49.5022 35.3869 49.0744C35.8147 48.6466 36.395 48.4062 37 48.4062C37.605 48.4062 38.1853 48.6466 38.6131 49.0744C39.0409 49.5022 39.2812 50.0825 39.2812 50.6875C39.2812 51.2925 39.0409 51.8728 38.6131 52.3006C38.1853 52.7284 37.605 52.9688 37 52.9688Z" fill="#ACD1FC"/>
</svg>
