<svg width="65" height="65" viewBox="0 0 65 65" fill="none" xmlns="http://www.w3.org/2000/svg">
<g clip-path="url(#clip0_4154_3378)">
<path d="M19.1667 35.6667H26.6667V45.8333C26.6667 46.1095 26.8905 46.3333 27.1667 46.3333H37.8333C38.1095 46.3333 38.3333 46.1095 38.3333 45.8333V35.6667H45.8333C46.0356 35.6667 46.2179 35.5448 46.2953 35.358C46.3727 35.1712 46.3299 34.9561 46.1869 34.8131L32.8536 21.4798C32.6583 21.2845 32.3417 21.2845 32.1464 21.4798L18.8131 34.8131C18.6701 34.9561 18.6273 35.1712 18.7047 35.358C18.7821 35.5448 18.9644 35.6667 19.1667 35.6667ZM51.6096 27.3441C51.6534 27.5647 51.8392 27.7289 52.0636 27.7453C58.7418 28.2334 64 33.7282 64 40.5C64 42.1853 63.6681 43.8541 63.0231 45.4111C62.3782 46.9681 61.4329 48.3828 60.2412 49.5745C59.0495 50.7662 57.6348 51.7115 56.0778 52.3564C54.5208 53.0014 52.852 53.3333 51.1667 53.3333H16.5C12.3891 53.3333 8.44666 51.7003 5.53985 48.7935C2.63303 45.8867 1 41.9442 1 37.8333V37.8332C0.998902 34.0113 2.40891 30.3235 4.95958 27.4772C7.51024 24.631 11.022 22.8267 14.8211 22.4103C14.9868 22.3922 15.1325 22.2927 15.2097 22.1451C18.4604 15.9298 24.987 11.6667 32.5 11.6667L32.5002 11.6667C37.0077 11.6644 41.3763 13.226 44.8611 16.0849C48.3459 18.9438 50.731 22.9231 51.6096 27.3441Z" fill="#D0D3D9" stroke="#A2A7B3" stroke-linejoin="round"/>
</g>
<defs>
<clipPath id="clip0_4154_3378">
<rect width="64" height="64" fill="white" transform="translate(0.5 0.5)"/>
</clipPath>
</defs>
</svg>
