<svg width="74" height="74" viewBox="0 0 74 74" fill="none" xmlns="http://www.w3.org/2000/svg">
<path d="M41.5625 7.34375H14.1875C9.1479 7.34375 5.0625 11.4292 5.0625 16.4688V57.5312C5.0625 62.5709 9.1479 66.6562 14.1875 66.6562H41.5625C46.6021 66.6562 50.6875 62.5709 50.6875 57.5312V16.4688C50.6875 11.4292 46.6021 7.34375 41.5625 7.34375Z" fill="#4277FD"/>
<path d="M68.2759 35.3804L59.1509 26.2554C58.7214 25.8258 58.1388 25.5845 57.5312 25.5845C56.9237 25.5845 56.3411 25.8258 55.9116 26.2554C55.482 26.6849 55.2407 27.2676 55.2407 27.8751C55.2407 28.4826 55.482 29.0652 55.9116 29.4947L61.1584 34.7188H27.875C27.27 34.7188 26.6897 34.9592 26.2619 35.387C25.8341 35.8148 25.5938 36.395 25.5938 37.0001C25.5938 37.6051 25.8341 38.1853 26.2619 38.6131C26.6897 39.041 27.27 39.2813 27.875 39.2813H61.1584L55.9116 44.5054C55.6977 44.7174 55.528 44.9697 55.4122 45.2477C55.2964 45.5257 55.2368 45.8239 55.2368 46.1251C55.2368 46.4262 55.2964 46.7244 55.4122 47.0024C55.528 47.2804 55.6977 47.5327 55.9116 47.7447C56.1236 47.9586 56.3759 48.1283 56.6539 48.2441C56.9319 48.3599 57.2301 48.4195 57.5312 48.4195C57.8324 48.4195 58.1306 48.3599 58.4086 48.2441C58.6866 48.1283 58.9389 47.9586 59.1509 47.7447L68.2759 38.6197C68.4898 38.4077 68.6595 38.1554 68.7753 37.8774C68.8911 37.5994 68.9507 37.3012 68.9507 37.0001C68.9507 36.6989 68.8911 36.4007 68.7753 36.1227C68.6595 35.8447 68.4898 35.5924 68.2759 35.3804Z" fill="#ACD1FC"/>
</svg>
