<svg width="218" height="218" viewBox="0 0 218 218" fill="none" xmlns="http://www.w3.org/2000/svg">
<g opacity="0.3">
<path d="M185.704 31.8121C186.673 29.5514 189.418 28.5825 191.518 29.5514C193.778 30.5202 194.747 33.104 193.617 35.3647C192.648 37.6254 190.064 38.5943 187.803 37.6254C185.704 36.6565 184.735 34.0728 185.704 31.8121Z" fill="url(#paint0_linear_5221_10113)"/>
<path d="M207.181 109C207.181 163.419 163.096 207.181 109 207.181C55.2267 207.181 10.8193 163.742 10.8193 109C10.8193 90.4297 15.9867 72.9897 25.0297 58.1334L23.2534 53.9349C23.0919 53.4505 23.4149 52.966 23.7379 52.8045L25.6756 52.3201C26.1601 52.1586 26.6445 52.4816 26.6445 52.966L27.129 54.7423C45.5379 27.2904 75.8964 10.8193 109 10.8193C142.427 10.8193 171.978 27.6134 189.418 52.643H192.648C193.132 52.643 193.455 53.1275 193.293 53.6119L192.325 57.003C201.69 72.0208 207.181 89.9453 207.181 109Z" fill="url(#paint1_linear_5221_10113)"/>
<path d="M25.9981 27.9366C26.967 25.6759 29.7122 24.707 31.8115 25.6759C34.0722 26.6448 35.0411 29.2285 33.9107 31.4892C32.9418 33.7499 30.3581 34.7188 28.0974 33.7499C25.9981 32.7811 25.0293 30.1974 25.9981 27.9366Z" fill="url(#paint2_linear_5221_10113)"/>
<path d="M34.0722 188.126C33.1033 190.387 30.5196 191.355 28.2589 190.225C25.9981 189.256 25.0292 186.672 25.9981 184.412C26.967 182.151 29.7122 181.182 31.8115 182.151C34.0722 183.281 35.0411 186.027 34.0722 188.126Z" fill="url(#paint3_linear_5221_10113)"/>
<path d="M179.245 23.2535C179.891 21.8002 181.505 21.1543 182.959 21.8002C184.412 22.4461 185.058 24.0609 184.251 25.5143C183.605 26.9676 181.99 27.6135 180.536 26.9676C179.245 26.3217 178.599 24.5454 179.245 23.2535Z" fill="url(#paint4_linear_5221_10113)"/>
<path d="M24.7069 178.275C24.0609 179.729 22.4461 180.375 20.9928 179.729C19.5394 179.083 18.8935 177.468 19.5394 176.015C20.1854 174.561 21.8002 173.915 23.2535 174.561C24.7068 175.207 25.3528 176.822 24.7069 178.275Z" fill="url(#paint5_linear_5221_10113)"/>
</g>
<path d="M109 207.181C163.224 207.181 207.181 163.224 207.181 109C207.181 54.7763 163.224 10.8193 109 10.8193C54.7763 10.8193 10.8193 54.7763 10.8193 109C10.8193 163.224 54.7763 207.181 109 207.181Z" fill="#D4E1FD"/>
<path d="M185.704 31.8121C184.735 34.0728 185.704 36.6565 187.965 37.6254C190.226 38.5943 192.809 37.6254 193.778 35.3647C194.747 33.104 193.778 30.5202 191.679 29.5514C189.418 28.5825 186.673 29.5514 185.704 31.8121Z" fill="#D0DCF3"/>
<path d="M179.245 23.2535C178.599 24.7069 179.245 26.3217 180.698 26.9676C182.151 27.6135 183.766 26.9676 184.412 25.5143C185.058 24.0609 184.412 22.4461 182.959 21.8002C181.667 21.1543 179.89 21.8002 179.245 23.2535Z" fill="#D0DCF3"/>
<path d="M25.9991 184.573C25.0302 186.834 25.9991 189.418 28.2599 190.387C30.5206 191.356 33.1043 190.387 34.0732 188.126C35.0421 185.865 34.0732 183.281 31.9739 182.313C29.8747 181.344 27.1295 182.313 25.9991 184.573Z" fill="#D0DCF3"/>
<path d="M25.9991 27.9367C25.0302 30.1974 25.9991 32.7811 28.2599 33.75C30.5206 34.7189 33.1043 33.75 34.0732 31.4893C35.0421 29.2285 34.0732 26.6448 31.9739 25.676C29.7132 24.7071 27.1295 25.8374 25.9991 27.9367Z" fill="#D0DCF3"/>
<path d="M19.5394 175.853C18.8935 177.307 19.5394 178.922 20.9928 179.568C22.4461 180.213 24.0609 179.568 24.7069 178.114C25.3528 176.661 24.7068 175.046 23.2535 174.4C21.9617 173.916 20.1854 174.562 19.5394 175.853Z" fill="#D0DCF3"/>
<path d="M171.17 173.431C171.17 183.282 142.749 191.356 107.708 191.356C83.6472 191.356 62.6546 187.642 51.9969 181.99C50.8665 181.505 50.5435 180.214 51.028 179.083L52.6428 175.854C52.8043 175.531 52.4813 175.208 52.1583 175.208L47.7983 176.984C46.668 177.468 45.5376 176.984 45.0532 175.854C44.7302 175.046 44.4072 174.239 44.4072 173.431C44.4072 163.581 72.828 155.507 107.869 155.507C117.235 155.507 126.117 156.153 134.191 157.122C135.967 157.283 136.936 159.221 136.29 160.836C136.129 161.159 136.452 161.482 136.775 161.482L143.234 158.898C143.557 158.736 144.041 158.736 144.526 158.736C160.512 161.966 171.17 167.295 171.17 173.431Z" fill="url(#paint6_linear_5221_10113)"/>
<path d="M157.282 173.431C157.282 179.891 134.998 185.058 107.708 185.058C96.5654 185.058 58.1328 182.959 58.1328 173.431C58.1328 166.972 80.4173 161.805 107.708 161.805C113.037 161.805 118.204 161.966 122.887 162.451C142.911 163.904 157.282 168.264 157.282 173.431Z" fill="url(#paint7_linear_5221_10113)"/>
<path d="M157.282 173.431C157.282 179.891 134.998 185.058 107.708 185.058C97.3728 185.058 58.1328 183.12 58.1328 173.431C58.1328 166.972 80.4173 161.805 107.708 161.805C119.98 161.805 138.389 162.935 149.693 167.295C154.537 169.071 157.282 171.171 157.282 173.431Z" fill="url(#paint8_linear_5221_10113)"/>
<path d="M105.932 161.805C79.2872 161.966 57.9717 167.134 57.9717 173.431C57.9717 182.959 96.4043 184.897 105.932 185.058V161.805Z" fill="url(#paint9_linear_5221_10113)"/>
<path d="M157.121 172.624C151.631 169.394 140.327 166.972 126.278 165.842C97.0499 163.581 61.3625 168.587 61.3625 176.823C61.3625 176.984 61.3625 177.307 61.524 177.468C45.6988 168.264 84.2929 159.06 122.887 162.128C141.942 163.743 155.991 167.78 157.121 172.624Z" fill="#9AB7FB"/>
<path d="M163.419 33.2655L38.2711 45.5381C34.557 45.861 31.9733 49.2521 32.4578 52.9662L43.1156 123.211C43.6 126.44 46.3452 128.863 49.5748 128.701L107.385 127.894L110.938 133.061C111.745 134.191 111.261 135.806 109.807 136.291L86.3926 144.688C85.1007 145.172 85.1007 146.948 86.3926 147.433L98.0192 151.954C98.8267 152.277 99.1496 153.085 98.8267 153.892L96.243 159.383C95.92 160.19 96.243 161.159 97.2118 161.32L113.36 166.326C114.167 166.649 114.652 167.618 114.167 168.425L106.093 183.12C106.255 183.12 108.031 183.282 109.484 181.505L121.757 165.519C122.403 164.711 121.919 163.581 120.95 163.258L103.025 158.252C102.056 157.929 101.572 156.799 102.218 155.991L106.255 150.663C106.578 150.178 106.578 149.532 106.416 149.048L104.64 145.98C104.156 145.172 104.64 144.042 105.609 143.88L130.316 139.197C130.961 139.036 131.446 138.39 131.446 137.744V127.409L159.544 127.086C162.935 127.086 165.841 124.341 166.003 120.95L170.363 39.8862C170.686 36.1721 167.295 32.9425 163.419 33.2655Z" fill="url(#paint10_linear_5221_10113)"/>
<path d="M69.9209 34.0729L150.985 24.384C151.631 24.2225 152.276 24.8684 152.276 25.5144V28.744C152.276 29.3899 151.792 29.8744 151.146 29.8744L69.9209 34.0729Z" fill="url(#paint11_linear_5221_10113)"/>
<path d="M176.661 43.2773H179.729C180.213 43.2773 180.536 43.6003 180.375 44.0848L172.301 102.703L175.853 43.9233C176.015 43.6003 176.338 43.2773 176.661 43.2773Z" fill="url(#paint12_linear_5221_10113)"/>
<path d="M184.412 52.8047H192.647C193.132 52.8047 193.455 53.2891 193.293 53.7736L180.536 94.4669L183.766 53.4506C183.766 52.9662 184.089 52.8047 184.412 52.8047Z" fill="url(#paint13_linear_5221_10113)"/>
<path d="M21.3154 89.2993H32.6191C33.1035 89.2993 33.4265 89.6223 33.4265 89.9452L37.9479 128.055L20.5079 90.4297C20.3465 89.9452 20.6694 89.2993 21.3154 89.2993Z" fill="url(#paint14_linear_5221_10113)"/>
<path d="M23.8986 52.8048L25.8364 52.3203C26.3208 52.1588 26.8053 52.4818 26.8053 52.9662L32.9416 77.5114L23.4142 53.7737C23.0912 53.4507 23.4142 52.9663 23.8986 52.8048Z" fill="url(#paint15_linear_5221_10113)"/>
<path d="M81.0635 68.9527V58.7794C81.0635 58.4564 81.225 58.2949 81.5479 58.2949H88.1687C88.4916 58.2949 88.6531 58.4564 88.6531 58.7794V59.7483C88.6531 60.0712 88.4916 60.2327 88.1687 60.2327H83.4857V62.9779H87.8457C88.1687 62.9779 88.3301 63.1394 88.3301 63.4623V64.4312C88.3301 64.7542 88.1687 64.9157 87.8457 64.9157H83.4857V67.6609H88.1687C88.4916 67.6609 88.6531 67.8223 88.6531 68.1453V69.1142C88.6531 69.4371 88.4916 69.5986 88.1687 69.5986H81.5479C81.3864 69.4371 81.0635 69.1142 81.0635 68.9527Z" fill="#F1F4FC"/>
<path d="M97.0497 65.077C99.6334 63.9466 99.7949 59.9096 97.2112 58.6177C96.5653 58.2948 95.9194 58.1333 95.112 58.1333H91.2364C90.9134 58.1333 90.752 58.2948 90.752 58.6177V68.7911C90.752 69.114 90.9134 69.2755 91.2364 69.2755H92.5282C92.8512 69.2755 93.0127 69.114 93.0127 68.7911V65.4H94.789C96.7268 68.9526 96.7268 69.437 97.2112 69.437H98.5031C98.826 69.437 99.149 68.9526 98.9875 68.6296L97.0497 65.077ZM92.8512 63.4622V60.0711C93.9816 60.0711 95.5964 59.7481 96.2423 60.8785C96.5653 61.3629 96.5653 62.1703 96.2423 62.8163C95.7579 63.7852 94.1431 63.4622 92.8512 63.4622Z" fill="#F1F4FC"/>
<path d="M107.062 65.077C109.162 64.1081 109.485 61.5244 108.516 59.9096C107.87 58.6177 106.578 58.1333 105.125 58.1333H101.249C100.926 58.1333 100.765 58.2948 100.765 58.6177V68.7911C100.765 69.114 100.926 69.2755 101.249 69.2755H102.541C102.864 69.2755 103.025 69.114 103.025 68.7911V65.4H104.802C106.739 68.9526 106.739 69.437 107.224 69.437H108.677C109 69.437 109.323 68.9526 109.162 68.6296L107.062 65.077ZM103.025 63.4622V60.0711C104.317 60.0711 105.771 59.7481 106.417 60.8785C106.739 61.3629 106.739 62.1703 106.417 62.8163C105.771 63.7852 104.317 63.4622 103.025 63.4622Z" fill="#F1F4FC"/>
<path d="M115.782 69.5987C113.845 69.5987 112.23 68.6298 111.261 67.015C110.292 65.2387 110.292 62.4935 111.261 60.7172C112.23 58.9409 113.845 58.1335 115.782 58.1335C122.888 57.972 122.888 69.5987 115.782 69.5987ZM117.397 60.5557C116.913 60.2328 116.428 60.0713 115.944 60.0713C114.329 60.0713 113.037 61.2017 113.037 63.7854C113.037 68.3068 117.236 68.3068 118.366 65.7231C118.85 64.4313 118.85 61.5246 117.397 60.5557Z" fill="#F1F4FC"/>
<path d="M129.346 65.0771C132.091 64.2697 132.576 58.2949 127.247 58.2949H123.371C123.048 58.2949 122.887 58.4564 122.887 58.7794V68.9527C122.887 69.2757 123.048 69.4371 123.371 69.4371H124.663C124.986 69.4371 125.147 69.2757 125.147 68.9527V65.5616H126.924C128.862 69.1142 128.862 69.5986 129.346 69.5986H130.799C131.122 69.5986 131.445 69.1142 131.284 68.7912L129.346 65.0771ZM125.147 63.4623V60.0712C125.955 60.2327 127.893 59.7483 128.539 60.8786C128.862 61.3631 128.862 62.1705 128.539 62.8164C128.054 63.7853 126.439 63.4623 125.147 63.4623Z" fill="#F1F4FC"/>
<path d="M79.7717 95.2744V75.0892C79.7717 74.2818 79.1258 73.7974 78.4799 73.7974H71.8591C71.3747 73.7974 71.0517 73.9588 70.7288 74.4433C56.5184 96.7277 57.3258 95.2744 57.3258 95.7588V99.4729C57.3258 100.28 57.9717 100.765 58.6176 100.765H72.9895V105.286C72.9895 106.094 73.6354 106.578 74.2813 106.578H78.3184C79.1258 106.578 79.6102 105.932 79.6102 105.286V100.765H82.3554C83.1628 100.765 83.6473 100.119 83.6473 99.4729V96.5662C83.6473 95.7588 83.0013 95.2744 82.3554 95.2744H79.7717ZM64.2695 95.2744V94.9514L72.9895 81.2255H73.3125V95.2744H64.2695Z" fill="url(#paint16_linear_5221_10113)"/>
<path d="M101.248 107.386C91.8824 107.386 88.0068 99.6345 88.0068 90.2685C88.0068 86.716 88.4913 83.6478 89.6217 81.0641C91.7209 76.2197 95.5965 73.313 101.248 73.313C108.676 73.313 114.49 78.4804 114.49 90.2685C114.49 93.8211 114.005 96.8893 112.875 99.473C110.937 104.479 107.062 107.386 101.248 107.386ZM105.77 98.8271C106.9 96.8893 107.385 94.1441 107.385 90.2685C107.385 85.2626 106.254 79.1263 101.248 79.1263C99.3105 79.1263 97.8572 80.0952 96.7268 81.8715C94.6276 85.4241 94.6276 92.8522 95.7579 96.5663C96.2424 98.1811 97.0498 99.473 97.8572 100.28C100.118 102.218 103.671 102.218 105.77 98.8271Z" fill="url(#paint17_linear_5221_10113)"/>
<path d="M141.458 95.2744V75.0892C141.458 74.2818 140.812 73.7974 140.166 73.7974H133.545C133.061 73.7974 132.738 73.9588 132.415 74.4433C118.043 97.0507 119.173 95.2744 119.173 95.7588V99.4729C119.173 100.28 119.819 100.765 120.465 100.765H134.837V105.286C134.837 106.094 135.483 106.578 136.129 106.578H140.166C140.973 106.578 141.458 105.932 141.458 105.286V100.765H144.203C145.01 100.765 145.495 100.119 145.495 99.4729V96.5662C145.495 95.7588 144.849 95.2744 144.203 95.2744H141.458ZM134.998 95.2744H125.955V94.9514L134.675 81.2255H134.998V95.2744Z" fill="url(#paint18_linear_5221_10113)"/>
<defs>
<linearGradient id="paint0_linear_5221_10113" x1="185.359" y1="33.6196" x2="194.136" y2="33.6196" gradientUnits="userSpaceOnUse">
<stop stop-color="#989FB0"/>
<stop offset="1" stop-color="#AAB2C5"/>
</linearGradient>
<linearGradient id="paint1_linear_5221_10113" x1="10.8789" y1="108.996" x2="207.127" y2="108.996" gradientUnits="userSpaceOnUse">
<stop stop-color="#989FB0"/>
<stop offset="1" stop-color="#AAB2C5"/>
</linearGradient>
<linearGradient id="paint2_linear_5221_10113" x1="25.6713" y1="29.7833" x2="34.4483" y2="29.7833" gradientUnits="userSpaceOnUse">
<stop stop-color="#989FB0"/>
<stop offset="1" stop-color="#AAB2C5"/>
</linearGradient>
<linearGradient id="paint3_linear_5221_10113" x1="25.6713" y1="186.332" x2="34.4483" y2="186.332" gradientUnits="userSpaceOnUse">
<stop stop-color="#989FB0"/>
<stop offset="1" stop-color="#AAB2C5"/>
</linearGradient>
<linearGradient id="paint4_linear_5221_10113" x1="179.03" y1="24.3527" x2="184.615" y2="24.3527" gradientUnits="userSpaceOnUse">
<stop stop-color="#989FB0"/>
<stop offset="1" stop-color="#AAB2C5"/>
</linearGradient>
<linearGradient id="paint5_linear_5221_10113" x1="19.3476" y1="177.066" x2="24.9328" y2="177.066" gradientUnits="userSpaceOnUse">
<stop stop-color="#989FB0"/>
<stop offset="1" stop-color="#AAB2C5"/>
</linearGradient>
<linearGradient id="paint6_linear_5221_10113" x1="108.368" y1="148.148" x2="107.354" y2="183.151" gradientUnits="userSpaceOnUse">
<stop offset="1.08255e-07" stop-color="#95B8FF"/>
<stop offset="1" stop-color="#B8C9FF"/>
</linearGradient>
<linearGradient id="paint7_linear_5221_10113" x1="108.102" y1="180.061" x2="105.651" y2="145.037" gradientUnits="userSpaceOnUse">
<stop stop-color="#AAB2C5"/>
<stop offset="1" stop-color="#D6DCE8"/>
</linearGradient>
<linearGradient id="paint8_linear_5221_10113" x1="108.102" y1="180.061" x2="105.651" y2="145.037" gradientUnits="userSpaceOnUse">
<stop stop-color="#A0B7ED"/>
<stop offset="1" stop-color="#E9F0FF"/>
</linearGradient>
<linearGradient id="paint9_linear_5221_10113" x1="82.9905" y1="181.818" x2="80.5403" y2="146.794" gradientUnits="userSpaceOnUse">
<stop stop-color="#95B4FF"/>
<stop offset="1" stop-color="#F6F8FF"/>
</linearGradient>
<linearGradient id="paint10_linear_5221_10113" x1="106.296" y1="189.122" x2="100.895" y2="30.8886" gradientUnits="userSpaceOnUse">
<stop stop-color="#4C84F4"/>
<stop offset="1" stop-color="#B9D0FF"/>
</linearGradient>
<linearGradient id="paint11_linear_5221_10113" x1="69.8793" y1="29.2062" x2="152.23" y2="29.2062" gradientUnits="userSpaceOnUse">
<stop stop-color="#ACC6FB"/>
<stop offset="1" stop-color="#DCE8FF"/>
</linearGradient>
<linearGradient id="paint12_linear_5221_10113" x1="172.297" y1="72.9307" x2="180.412" y2="72.9307" gradientUnits="userSpaceOnUse">
<stop stop-color="#ACC6FB"/>
<stop offset="1" stop-color="#DCE8FF"/>
</linearGradient>
<linearGradient id="paint13_linear_5221_10113" x1="180.53" y1="73.5943" x2="193.328" y2="73.5943" gradientUnits="userSpaceOnUse">
<stop stop-color="#ACC6FB"/>
<stop offset="1" stop-color="#DCE8FF"/>
</linearGradient>
<linearGradient id="paint14_linear_5221_10113" x1="20.458" y1="108.638" x2="37.938" y2="108.638" gradientUnits="userSpaceOnUse">
<stop stop-color="#ACC6FB"/>
<stop offset="1" stop-color="#DCE8FF"/>
</linearGradient>
<linearGradient id="paint15_linear_5221_10113" x1="23.2793" y1="64.8697" x2="32.9361" y2="64.8697" gradientUnits="userSpaceOnUse">
<stop stop-color="#ACC6FB"/>
<stop offset="1" stop-color="#DCE8FF"/>
</linearGradient>
<linearGradient id="paint16_linear_5221_10113" x1="57.2903" y1="90.2086" x2="83.8018" y2="90.2086" gradientUnits="userSpaceOnUse">
<stop stop-color="white"/>
<stop offset="1" stop-color="#E2E8F3"/>
</linearGradient>
<linearGradient id="paint17_linear_5221_10113" x1="88.0441" y1="90.3473" x2="114.581" y2="90.3473" gradientUnits="userSpaceOnUse">
<stop stop-color="white"/>
<stop offset="1" stop-color="#E2E7F3"/>
</linearGradient>
<linearGradient id="paint18_linear_5221_10113" x1="119.012" y1="90.2086" x2="145.513" y2="90.2086" gradientUnits="userSpaceOnUse">
<stop stop-color="white"/>
<stop offset="1" stop-color="#DDE3F0"/>
</linearGradient>
</defs>
</svg>
