<svg width="68" height="76" viewBox="0 0 68 76" fill="none" xmlns="http://www.w3.org/2000/svg">
<g clip-path="url(#clip0_5073_8090)">
<path d="M57.401 18.3033V61.3126C57.401 63.6255 55.496 65.4999 53.1493 65.4999H13.8513C11.5028 65.4999 9.59961 63.6255 9.59961 61.3126V4.68729C9.59948 2.37434 11.5027 0.5 13.8513 0.5H39.3238L57.401 18.3033Z" fill="#4277FD"/>
<path d="M45.7213 33.1338H21.2773V35.8088H45.7213V33.1338Z" fill="white"/>
<path d="M45.7213 39.1084H21.2773V41.7834H45.7213V39.1084Z" fill="white"/>
<path d="M45.7213 45.082H21.2773V47.7571H45.7213V45.082Z" fill="white"/>
<path d="M38.661 51.0566H21.2773V53.7317H38.661V51.0566Z" fill="white"/>
<path d="M41.7891 17.9164L57.3999 24.2502V18.3032L48.549 15.7295L41.7891 17.9164Z" fill="#3A5BBC"/>
<path d="M57.4014 18.3033H43.5759C41.2273 18.3033 39.3242 16.4289 39.3242 14.116V0.5L57.4014 18.3033Z" fill="#ACD1FC"/>
<path d="M54.5929 75.3088C61.8238 75.3088 67.6857 69.5313 67.6857 62.4044C67.6857 55.2775 61.8238 49.5 54.5929 49.5C47.3619 49.5 41.5 55.2775 41.5 62.4044C41.5 69.5313 47.3619 75.3088 54.5929 75.3088Z" fill="#4277FD"/>
<path d="M54.5942 73.3236C60.7127 73.3236 65.6728 68.4349 65.6728 62.4045C65.6728 56.374 60.7127 51.4854 54.5942 51.4854C48.4757 51.4854 43.5156 56.374 43.5156 62.4045C43.5156 68.4349 48.4757 73.3236 54.5942 73.3236Z" fill="white"/>
<path d="M61.7337 60.3009C62.0187 60.0155 62.4813 60.0158 62.7665 60.3008L61.7337 60.3009ZM61.7337 60.3009L61.7335 60.3011M61.7337 60.3009L61.7335 60.3011M61.7335 60.3011L60.5301 61.5044C60.3983 60.8358 60.0778 59.7684 59.3942 58.7649C58.4798 57.4225 56.9161 56.1982 54.3223 56.1982C50.7606 56.1982 48.0195 59.088 48.0195 62.499C48.0195 66.014 50.8623 68.8017 54.3223 68.8017C55.7371 68.8017 56.888 68.3382 57.686 67.8308C58.0847 67.5773 58.3986 67.3107 58.6159 67.081C58.7242 66.9665 58.8119 66.8576 58.8744 66.7606C58.9056 66.7123 58.933 66.6629 58.9534 66.6144C58.9723 66.5694 58.9927 66.5076 58.9927 66.4392C58.9927 66.0484 58.678 65.7088 58.2623 65.7088C58.1352 65.7088 58.0218 65.7613 57.9334 65.8137C57.8417 65.8679 57.7456 65.9413 57.6494 66.0182C57.6071 66.0519 57.5638 66.0872 57.5189 66.1237C57.3522 66.2593 57.1645 66.412 56.9351 66.5667C56.3631 66.9524 55.5457 67.3391 54.3224 67.3391C51.5864 67.3391 49.4806 65.1216 49.4806 62.499C49.4806 59.9828 51.4871 57.6591 54.3224 57.6591C56.9986 57.6591 58.5334 59.5537 59.0026 61.2884L58.0152 60.3012L58.015 60.3009L61.7335 60.3011ZM56.9819 60.301C56.6966 60.586 56.6966 61.0488 56.9819 61.3339C56.9819 61.3339 56.982 61.3339 56.982 61.3339L59.3577 63.7092C59.3578 63.7093 59.3579 63.7094 59.3579 63.7094C59.5004 63.8522 59.6881 63.9234 59.8744 63.9234C60.0607 63.9234 60.2483 63.8521 60.3908 63.7094L56.9819 60.301ZM60.391 63.7092L62.7666 61.3339C62.7666 61.3339 62.7666 61.3339 62.7666 61.3339C63.0518 61.0488 63.0519 60.586 62.7666 60.3009L60.391 63.7092Z" fill="#4277FD" stroke="#4277FD" stroke-width="0.5"/>
</g>
<defs>
<clipPath id="clip0_5073_8090">
<rect width="67" height="75" fill="white" transform="translate(0.5 0.5)"/>
</clipPath>
</defs>
</svg>
