<svg width="62" height="70" viewBox="0 0 62 70" fill="none" xmlns="http://www.w3.org/2000/svg">
<path d="M43.695 31.0006C43.4535 31.0078 43.2193 31.0807 43.0201 31.2106L25.572 42.2515L21.1989 36.2987C21.0837 36.1783 20.944 36.0815 20.7883 36.0141C20.6326 35.9466 20.4642 35.9099 20.2932 35.9062C20.1221 35.9025 19.9521 35.9319 19.7934 35.9925C19.6346 36.0532 19.4904 36.1439 19.3696 36.2591C19.2487 36.3743 19.1537 36.5117 19.0903 36.6629C19.0268 36.8141 18.9963 36.9759 19.0005 37.1387C19.0047 37.3015 19.0436 37.4617 19.1147 37.6097C19.1859 37.7578 19.2879 37.8906 19.4146 38L24.5185 44.6483C24.725 44.8445 24.9966 44.9667 25.287 44.9941C25.5774 45.0215 25.8689 44.9525 26.1119 44.7987L44.4192 33.2156C44.6521 33.0733 44.8295 32.8622 44.9242 32.6148C45.0188 32.3673 45.0256 32.0971 44.9434 31.8456C44.8611 31.5942 44.6945 31.3753 44.469 31.2226C44.2435 31.07 43.9715 30.9921 43.695 31.0006Z" fill="#20BFFC"/>
<path d="M31.6959 5.51235C31.1982 5.51235 30.7363 5.77113 30.4623 6.18401C23.8524 11.646 15.4908 13.4681 8.86146 13.5696C8.14593 13.5696 7.52729 14.0644 7.38195 14.7604C7.38195 14.7604 5.88117 21.5097 5.12935 29.6734C4.37749 37.8372 4.22241 47.3973 7.5224 53.5697C9.9945 58.1935 15.8437 61.91 21.0653 64.7389C25.895 67.3554 29.8782 68.9389 30.505 69.1855C30.7887 69.4043 31.142 69.5152 31.5007 69.4979C31.8643 69.5182 32.2221 69.4018 32.5078 69.1777H32.5147C33.1672 68.9213 37.1307 67.3497 41.9427 64.7428C47.1643 61.9139 53.0056 58.1974 55.4777 53.5736C58.7777 47.4012 58.6228 37.8413 57.871 29.6775C57.1191 21.5139 55.6184 14.7643 55.6184 14.7643C55.4702 14.0538 54.8298 13.5518 54.0997 13.5738C54.058 13.572 54.0163 13.572 53.9746 13.5738C44.4337 13.5358 36.0519 10.3387 33.1275 6.48021C32.9076 5.88454 32.3335 5.49153 31.6949 5.50014L31.6959 5.51235ZM31.6686 9.40468C35.862 13.8279 43.9087 16.3149 52.8944 16.5334C53.1955 17.956 54.2411 23.0443 54.8776 29.9551C55.61 37.9078 55.4573 47.2441 52.8202 52.1764C51.011 55.5604 45.5316 59.3977 40.4994 62.1239C35.944 64.5918 32.2421 66.0736 31.5007 66.3673C30.7593 66.0736 27.0576 64.5918 22.5021 62.1239C17.4699 59.3977 11.9904 55.5604 10.1811 52.1764C7.54407 47.2441 7.39136 37.9078 8.12379 29.9551C8.75991 23.0477 9.80508 17.9635 10.107 16.5371C19.2487 16.3194 27.4187 13.8339 31.6686 9.40468Z" fill="#4277FD"/>
</svg>
