<svg width="131" height="78" viewBox="0 0 131 78" fill="none" xmlns="http://www.w3.org/2000/svg">
<g clip-path="url(#clip0_3464_41594)">
<path d="M90.3418 26.55L102.138 40.1774L101.002 41.1604C100.701 41.4211 100.309 41.5515 99.9114 41.5229C99.514 41.4943 99.1444 41.309 98.8837 41.0078L89.0536 29.6517C88.7929 29.3505 88.6625 28.9581 88.6911 28.5608C88.7197 28.1634 88.905 27.7938 89.2062 27.5331L90.3418 26.55Z" fill="#9BB1E9"/>
<path d="M105.392 39.347L104.257 40.33C103.955 40.5908 103.563 40.7211 103.166 40.6925C102.768 40.6639 102.399 40.4786 102.138 40.1774L90.2731 26.4706C90.0446 26.1659 89.9404 25.7859 89.9815 25.4073C90.0226 25.0288 90.206 24.6799 90.4945 24.4314L91.6301 23.4484C92.2325 22.927 93.0173 22.6662 93.812 22.7235C94.6066 22.7807 95.3459 23.1513 95.8674 23.7536L97.6958 25.8659C97.907 26.1289 98.2006 26.3132 98.5293 26.389C98.858 26.4649 99.2027 26.4278 99.5078 26.2839C100.627 25.7475 101.611 24.964 102.384 23.9922C103.156 23.0205 103.698 21.886 103.969 20.6743C104.019 20.4844 104.058 20.2916 104.085 20.097C104.376 18.98 104.982 17.9704 105.832 17.189C106.681 16.4076 107.738 15.8874 108.875 15.6908C110.013 15.4942 111.183 15.6294 112.245 16.0802C113.308 16.531 114.218 17.2784 114.867 18.2329C115.442 19.0909 115.785 20.0823 115.865 21.1117C115.944 22.141 115.757 23.1735 115.322 24.1096C114.886 25.0456 114.217 25.8536 113.378 26.4556C112.539 27.0577 111.56 27.4334 110.533 27.5466C109.192 27.5568 107.874 27.894 106.693 28.5288C105.512 29.1637 104.503 30.077 103.754 31.1898C103.568 31.4711 103.482 31.8069 103.51 32.1431C103.538 32.4793 103.678 32.7963 103.908 33.043L105.697 35.1098C106.219 35.7122 106.48 36.497 106.422 37.2916C106.365 38.0863 105.995 38.8256 105.392 39.347Z" fill="white"/>
<path d="M98.3156 41.4994L88.4855 30.1432C88.1076 29.7017 87.9136 29.132 87.9435 28.5517C87.9734 27.9713 88.225 27.4246 88.6463 27.0243L89.7819 26.0413C89.9123 25.8942 90.0952 25.8041 90.2913 25.7904C90.4874 25.7766 90.681 25.8403 90.8307 25.9677C90.957 26.1189 91.0215 26.3123 91.0113 26.509C91.001 26.7057 90.9169 26.8913 90.7756 27.0286L89.64 28.0116C89.5061 28.1472 89.4275 28.3279 89.4197 28.5183C89.4119 28.7088 89.4754 28.8953 89.5977 29.0414L99.4278 40.3976C99.5582 40.5482 99.743 40.6408 99.9417 40.6551C100.14 40.6694 100.337 40.6042 100.487 40.4739L101.623 39.4909C101.773 39.3605 101.97 39.2953 102.168 39.3096C102.367 39.3239 102.552 39.4166 102.682 39.5672C102.812 39.7178 102.878 39.914 102.863 40.1126C102.849 40.3113 102.756 40.4961 102.606 40.6265L101.47 41.6095C101.035 42.008 100.46 42.2198 99.8703 42.1992C99.2804 42.1786 98.7221 41.9273 98.3156 41.4994Z" fill="#222732"/>
<path d="M101.57 40.6689L89.6654 26.9166C89.3249 26.4595 89.1704 25.8903 89.233 25.3238C89.2955 24.7573 89.5705 24.2355 90.0024 23.8636L91.138 22.8806C91.891 22.2288 92.872 21.9029 93.8653 21.9744C94.8586 22.046 95.7828 22.5092 96.4346 23.2621L98.263 25.3744C98.37 25.4993 98.5144 25.5864 98.6747 25.6229C98.8351 25.6594 99.003 25.6433 99.1535 25.577C100.168 25.0859 101.059 24.3729 101.76 23.4907C102.461 22.6085 102.955 21.5798 103.205 20.4809L103.316 19.9671C103.64 18.6031 104.384 17.3753 105.443 16.4574C106.244 15.7611 107.197 15.263 108.225 15.0033C109.254 14.7437 110.329 14.7298 111.364 14.9627C112.399 15.1957 113.364 15.669 114.182 16.3443C115 17.0196 115.648 17.878 116.073 18.8501C116.498 19.8221 116.688 20.8805 116.627 21.9396C116.567 22.9987 116.259 24.0288 115.727 24.9466C115.195 25.8643 114.454 26.6439 113.565 27.2223C112.676 27.8008 111.663 28.1618 110.608 28.2761C109.377 28.2991 108.17 28.619 107.09 29.2086C106.009 29.7981 105.087 30.6399 104.401 31.6623C104.318 31.8019 104.281 31.9644 104.296 32.1263C104.311 32.2882 104.378 32.4411 104.485 32.5628L106.265 34.6183C106.916 35.3713 107.242 36.3523 107.171 37.3456C107.099 38.3389 106.636 39.2631 105.883 39.9148L104.748 40.8979C104.296 41.2889 103.707 41.4845 103.111 41.4416C102.515 41.3986 101.961 41.1207 101.57 40.6689ZM90.9091 26.0586L102.705 39.6859C102.836 39.8365 103.02 39.9292 103.219 39.9435C103.418 39.9578 103.614 39.8926 103.765 39.7622L104.9 38.7792C105.352 38.3882 105.63 37.8337 105.673 37.2377C105.716 36.6417 105.52 36.0531 105.129 35.6013L103.301 33.4891C102.979 33.1154 102.787 32.6469 102.755 32.1546C102.724 31.6623 102.853 31.1731 103.124 30.7611C103.942 29.5496 105.041 28.555 106.328 27.8631C107.615 27.1711 109.052 26.8026 110.513 26.7892C111.411 26.6861 112.268 26.3531 113 25.8223C113.732 25.2916 114.314 24.581 114.691 23.7592C115.069 22.9375 115.227 22.0323 115.153 21.1313C115.078 20.2302 114.772 19.3637 114.264 18.6154C113.851 17.9946 113.31 17.4692 112.677 17.0747C112.045 16.6802 111.335 16.4256 110.596 16.3281C109.322 16.1518 108.027 16.4486 106.958 17.1623C105.888 17.876 105.117 18.9571 104.79 20.2011C104.764 20.4228 104.706 20.6316 104.671 20.8207C104.389 22.1463 103.808 23.3902 102.973 24.4574C102.138 25.5247 101.07 26.3873 99.851 26.9795C99.3928 27.1947 98.8756 27.2504 98.382 27.1376C97.8884 27.0249 97.4468 26.7502 97.1274 26.3574L95.299 24.2451C94.9079 23.7934 94.3534 23.5155 93.7574 23.4725C93.1614 23.4296 92.5728 23.6252 92.121 24.0162L90.9854 24.9992C90.8433 25.1218 90.7534 25.294 90.734 25.4806C90.7146 25.6672 90.7673 25.8542 90.8811 26.0033L90.9091 26.0586Z" fill="#222732"/>
</g>
<rect x="0.5" y="37.0459" width="89" height="40" rx="5.5" fill="white"/>
<rect x="0.5" y="37.0459" width="89" height="40" rx="5.5" stroke="#4277FD"/>
<path d="M15.1023 49.5445V65.0928H13.5511V49.5445H15.1023Z" fill="#1F232C"/>
<path d="M21.6761 53.4578V52.3641H29.3125V53.4578H26.1108V62.5459H24.8778V53.4578H21.6761ZM30.937 65.4095C30.7381 65.4095 30.5608 65.393 30.405 65.3598C30.2492 65.33 30.1415 65.3002 30.0819 65.2703L30.3801 64.2362C30.6652 64.3092 30.9171 64.3357 31.1358 64.3158C31.3546 64.2959 31.5485 64.1981 31.7175 64.0225C31.8899 63.8501 32.0473 63.57 32.1898 63.1823L32.4086 62.5857L29.5847 54.9095H30.8574L32.9654 60.9948H33.0449L35.1529 54.9095H36.4256L33.1841 63.6595C33.0383 64.0539 32.8577 64.3804 32.6422 64.6389C32.4268 64.9008 32.1766 65.0947 31.8915 65.2206C31.6098 65.3466 31.2916 65.4095 30.937 65.4095ZM37.9743 65.4095V54.9095H39.1078V56.1226H39.247C39.3332 55.99 39.4525 55.821 39.6049 55.6155C39.7607 55.4067 39.9828 55.2211 40.2711 55.0587C40.5628 54.893 40.9572 54.8101 41.4544 54.8101C42.0974 54.8101 42.6641 54.9709 43.1547 55.2923C43.6452 55.6138 44.028 56.0696 44.3031 56.6595C44.5782 57.2495 44.7157 57.9455 44.7157 58.7476C44.7157 59.5563 44.5782 60.2573 44.3031 60.8506C44.028 61.4405 43.6468 61.8979 43.1596 62.2227C42.6724 62.5442 42.1106 62.705 41.4743 62.705C40.9837 62.705 40.591 62.6238 40.296 62.4614C40.001 62.2957 39.774 62.1084 39.6149 61.8996C39.4558 61.6875 39.3332 61.5118 39.247 61.3726H39.1475V65.4095H37.9743ZM39.1277 58.7277C39.1277 59.3044 39.2122 59.8132 39.3812 60.254C39.5502 60.6915 39.7972 61.0345 40.122 61.2831C40.4468 61.5284 40.8445 61.651 41.3152 61.651C41.8057 61.651 42.215 61.5218 42.5431 61.2632C42.8746 61.0014 43.1232 60.6501 43.2889 60.2093C43.4579 59.7651 43.5424 59.2713 43.5424 58.7277C43.5424 58.1908 43.4596 57.7069 43.2939 57.276C43.1315 56.8418 42.8845 56.4988 42.5531 56.2469C42.225 55.9917 41.8123 55.8641 41.3152 55.8641C40.8379 55.8641 40.4368 55.9851 40.112 56.227C39.7872 56.4656 39.542 56.8004 39.3762 57.2313C39.2105 57.6588 39.1277 58.1576 39.1277 58.7277ZM46.5055 62.5459V54.9095H47.6788V62.5459H46.5055ZM47.1021 53.6368C46.8734 53.6368 46.6762 53.5589 46.5105 53.4031C46.3481 53.2474 46.2669 53.0601 46.2669 52.8414C46.2669 52.6226 46.3481 52.4353 46.5105 52.2796C46.6762 52.1238 46.8734 52.0459 47.1021 52.0459C47.3308 52.0459 47.5263 52.1238 47.6887 52.2796C47.8545 52.4353 47.9373 52.6226 47.9373 52.8414C47.9373 53.0601 47.8545 53.2474 47.6887 53.4031C47.5263 53.5589 47.3308 53.6368 47.1021 53.6368ZM51.0011 57.9521V62.5459H49.8278V54.9095H50.9613V56.1027H51.0607C51.2397 55.7149 51.5115 55.4034 51.8761 55.1681C52.2406 54.9294 52.7113 54.8101 53.288 54.8101C53.805 54.8101 54.2575 54.9162 54.6452 55.1283C55.033 55.3371 55.3346 55.6553 55.5501 56.0828C55.7655 56.5071 55.8732 57.044 55.8732 57.6936V62.5459H54.6999V57.7732C54.6999 57.1733 54.5442 56.7059 54.2326 56.3712C53.921 56.0331 53.4935 55.8641 52.9499 55.8641C52.5754 55.8641 52.2406 55.9453 51.9457 56.1077C51.654 56.2701 51.4237 56.5071 51.2546 56.8186C51.0856 57.1302 51.0011 57.508 51.0011 57.9521ZM61.0996 65.5686C60.5328 65.5686 60.0456 65.4957 59.638 65.3499C59.2303 65.2074 58.8906 65.0184 58.6188 64.7831C58.3503 64.5511 58.1365 64.3025 57.9775 64.0374L58.9121 63.3811C59.0182 63.5203 59.1524 63.6794 59.3148 63.8584C59.4772 64.0407 59.6993 64.1981 59.981 64.3307C60.266 64.4666 60.6389 64.5345 61.0996 64.5345C61.7161 64.5345 62.2248 64.3854 62.6259 64.0871C63.0269 63.7888 63.2275 63.3215 63.2275 62.6851V61.134H63.128C63.0418 61.2732 62.9192 61.4455 62.7601 61.651C62.6043 61.8532 62.379 62.0338 62.084 62.1929C61.7923 62.3487 61.3979 62.4266 60.9007 62.4266C60.2843 62.4266 59.7308 62.2807 59.2402 61.9891C58.753 61.6974 58.3669 61.2732 58.0819 60.7164C57.8001 60.1595 57.6593 59.4834 57.6593 58.6879C57.6593 57.9057 57.7968 57.2246 58.0719 56.6446C58.347 56.0613 58.7298 55.6105 59.2203 55.2923C59.7109 54.9709 60.2776 54.8101 60.9206 54.8101C61.4178 54.8101 61.8122 54.893 62.1039 55.0587C62.3989 55.2211 62.6242 55.4067 62.78 55.6155C62.9391 55.821 63.0617 55.99 63.1479 56.1226H63.2672V54.9095H64.4007V62.7646C64.4007 63.4209 64.2516 63.9545 63.9533 64.3655C63.6583 64.7798 63.2606 65.0831 62.7601 65.2753C62.263 65.4709 61.7095 65.5686 61.0996 65.5686ZM61.0598 61.3726C61.5305 61.3726 61.9282 61.2649 62.253 61.0494C62.5778 60.834 62.8248 60.5241 62.9938 60.1198C63.1628 59.7154 63.2473 59.2315 63.2473 58.6681C63.2473 58.1179 63.1645 57.6323 62.9988 57.2114C62.833 56.7905 62.5878 56.4607 62.263 56.222C61.9382 55.9834 61.5371 55.8641 61.0598 55.8641C60.5627 55.8641 60.1484 55.99 59.8169 56.2419C59.4888 56.4938 59.2419 56.8319 59.0762 57.2561C58.9138 57.6804 58.8326 58.151 58.8326 58.6681C58.8326 59.1984 58.9154 59.6673 59.0811 60.075C59.2502 60.4794 59.4988 60.7976 59.8269 61.0296C60.1583 61.2583 60.5693 61.3726 61.0598 61.3726ZM67.4036 62.6254C67.1583 62.6254 66.9479 62.5376 66.7722 62.3619C66.5965 62.1863 66.5087 61.9758 66.5087 61.7306C66.5087 61.4853 66.5965 61.2748 66.7722 61.0992C66.9479 60.9235 67.1583 60.8357 67.4036 60.8357C67.6489 60.8357 67.8593 60.9235 68.035 61.0992C68.2106 61.2748 68.2985 61.4853 68.2985 61.7306C68.2985 61.893 68.257 62.0421 68.1742 62.178C68.0946 62.3139 67.9869 62.4233 67.851 62.5061C67.7185 62.5857 67.5693 62.6254 67.4036 62.6254ZM71.2591 62.6254C71.0138 62.6254 70.8033 62.5376 70.6277 62.3619C70.452 62.1863 70.3642 61.9758 70.3642 61.7306C70.3642 61.4853 70.452 61.2748 70.6277 61.0992C70.8033 60.9235 71.0138 60.8357 71.2591 60.8357C71.5043 60.8357 71.7148 60.9235 71.8904 61.0992C72.0661 61.2748 72.1539 61.4853 72.1539 61.7306C72.1539 61.893 72.1125 62.0421 72.0297 62.178C71.9501 62.3139 71.8424 62.4233 71.7065 62.5061C71.5739 62.5857 71.4248 62.6254 71.2591 62.6254ZM75.1145 62.6254C74.8693 62.6254 74.6588 62.5376 74.4831 62.3619C74.3075 62.1863 74.2196 61.9758 74.2196 61.7306C74.2196 61.4853 74.3075 61.2748 74.4831 61.0992C74.6588 60.9235 74.8693 60.8357 75.1145 60.8357C75.3598 60.8357 75.5703 60.9235 75.7459 61.0992C75.9216 61.2748 76.0094 61.4853 76.0094 61.7306C76.0094 61.893 75.968 62.0421 75.8851 62.178C75.8056 62.3139 75.6979 62.4233 75.562 62.5061C75.4294 62.5857 75.2802 62.6254 75.1145 62.6254Z" fill="#A2A7B2"/>
<defs>
<clipPath id="clip0_3464_41594">
<rect width="37.5493" height="37.5493" fill="white" transform="translate(106.098) rotate(49.12)"/>
</clipPath>
</defs>
</svg>
