<svg width="68" height="75" viewBox="0 0 68 75" fill="none" xmlns="http://www.w3.org/2000/svg">
<g clip-path="url(#clip0_5193_9942)">
<path d="M57.401 17.8033V60.8126C57.401 63.1255 55.496 64.9999 53.1493 64.9999H13.8513C11.5028 64.9999 9.59961 63.1255 9.59961 60.8126V4.18729C9.59948 1.87434 11.5027 0 13.8513 0H39.3238L57.401 17.8033Z" fill="#4277FD"/>
<path d="M45.7213 32.6338H21.2773V35.3088H45.7213V32.6338Z" fill="white"/>
<path d="M45.7213 38.6084H21.2773V41.2834H45.7213V38.6084Z" fill="white"/>
<path d="M45.7213 44.5823H21.2773V47.2573H45.7213V44.5823Z" fill="white"/>
<path d="M38.661 50.5566H21.2773V53.2317H38.661V50.5566Z" fill="white"/>
<path d="M41.7891 17.4164L57.3999 23.7502V17.8032L48.549 15.2295L41.7891 17.4164Z" fill="#3A5BBC"/>
<path d="M57.4014 17.8033H43.5759C41.2273 17.8033 39.3242 15.9289 39.3242 13.616V0L57.4014 17.8033Z" fill="#ACD1FC"/>
<path d="M54.5929 74.8088C61.8238 74.8088 67.6857 69.0313 67.6857 61.9044C67.6857 54.7775 61.8238 49 54.5929 49C47.3619 49 41.5 54.7775 41.5 61.9044C41.5 69.0313 47.3619 74.8088 54.5929 74.8088Z" fill="#4277FD"/>
<path d="M54.5942 72.8236C60.7127 72.8236 65.6728 67.9349 65.6728 61.9045C65.6728 55.874 60.7127 50.9854 54.5942 50.9854C48.4757 50.9854 43.5156 55.874 43.5156 61.9045C43.5156 67.9349 48.4757 72.8236 54.5942 72.8236Z" fill="white"/>
<path d="M50.5 62.5C50.5 62.5 53 65.5 53.5 65.5C54 65.5 60 58 60 58" stroke="#4277FD" stroke-width="2" stroke-linecap="round"/>
</g>
<defs>
<clipPath id="clip0_5193_9942">
<rect width="67" height="75" fill="white" transform="translate(0.5)"/>
</clipPath>
</defs>
</svg>
