<svg width="24" height="25" viewBox="0 0 24 25" fill="none" xmlns="http://www.w3.org/2000/svg">
<path d="M14 18.5C14 17.9477 14.4477 17.5 15 17.5C15.5523 17.5 16 17.9477 16 18.5C16 19.0523 15.5523 19.5 15 19.5C14.4477 19.5 14 19.0523 14 18.5Z" fill="#A2A7B3" stroke="#A2A7B3" stroke-linecap="round" stroke-linejoin="round"/>
<path d="M8 18.5C8 17.9477 8.44772 17.5 9 17.5C9.55228 17.5 10 17.9477 10 18.5C10 19.0523 9.55228 19.5 9 19.5C8.44772 19.5 8 19.0523 8 18.5Z" fill="#A2A7B3" stroke="#A2A7B3" stroke-linecap="round" stroke-linejoin="round"/>
<path d="M14 12.5C14 11.9477 14.4477 11.5 15 11.5C15.5523 11.5 16 11.9477 16 12.5C16 13.0523 15.5523 13.5 15 13.5C14.4477 13.5 14 13.0523 14 12.5Z" fill="#A2A7B3" stroke="#A2A7B3" stroke-linecap="round" stroke-linejoin="round"/>
<path d="M8 12.5C8 11.9477 8.44772 11.5 9 11.5C9.55228 11.5 10 11.9477 10 12.5C10 13.0523 9.55228 13.5 9 13.5C8.44772 13.5 8 13.0523 8 12.5Z" fill="#A2A7B3" stroke="#A2A7B3" stroke-linecap="round" stroke-linejoin="round"/>
<path d="M14 6.5C14 5.94772 14.4477 5.5 15 5.5C15.5523 5.5 16 5.94772 16 6.5C16 7.05228 15.5523 7.5 15 7.5C14.4477 7.5 14 7.05228 14 6.5Z" fill="#A2A7B3" stroke="#A2A7B3" stroke-linecap="round" stroke-linejoin="round"/>
<path d="M8 6.5C8 5.94772 8.44772 5.5 9 5.5C9.55228 5.5 10 5.94772 10 6.5C10 7.05228 9.55228 7.5 9 7.5C8.44772 7.5 8 7.05228 8 6.5Z" fill="#A2A7B3" stroke="#A2A7B3" stroke-linecap="round" stroke-linejoin="round"/>
</svg>
