<svg xmlns="http://www.w3.org/2000/svg" width="20" height="20" viewBox="0 0 20 20" fill="none">
  <path d="M8.33301 14.1666L11.6663 10.8333" stroke="#4277FD" stroke-width="1.5" stroke-linecap="round" stroke-linejoin="round"/>
  <path d="M8.33301 10.8335L11.6663 14.1668" stroke="#4277FD" stroke-width="1.5" stroke-linecap="round" stroke-linejoin="round"/>
  <path d="M15.0003 17.5H5.00033C4.54009 17.5 4.16699 17.1269 4.16699 16.6667L4.16699 3.33333C4.16699 2.8731 4.54009 2.5 5.00033 2.5L11.3029 2.5C11.535 2.5 11.7566 2.59683 11.9144 2.76716L15.6118 6.76038C15.7544 6.91442 15.8337 7.11662 15.8337 7.32656L15.8337 16.6667C15.8337 17.1269 15.4606 17.5 15.0003 17.5Z" stroke="#4277FD" stroke-width="1.5" stroke-linecap="round" stroke-linejoin="round"/>
  <path d="M15.833 7.5L11.6663 7.5C11.2061 7.5 10.833 7.1269 10.833 6.66667L10.833 2.5" stroke="#4277FD" stroke-width="1.5" stroke-linecap="round" stroke-linejoin="round"/>
</svg>