<svg width="20" height="20" viewBox="0 0 20 20" fill="none" xmlns="http://www.w3.org/2000/svg">
<path d="M16.6667 16.6667V15.9167V16.6667ZM3.33333 16.6667L3.33333 17.4167L3.33333 16.6667ZM2.5 15.8333H3.25H2.5ZM2.5 5L2.5 4.25C2.30109 4.25 2.11032 4.32902 1.96967 4.46967C1.82902 4.61032 1.75 4.80109 1.75 5L2.5 5ZM16.6667 5V4.25V5ZM17.5 5.83333L18.25 5.83333V5.83333L17.5 5.83333ZM17.5 15.8333H16.75H17.5ZM16.6667 15.9167L3.33333 15.9167L3.33333 17.4167L16.6667 17.4167V15.9167ZM3.25 15.8333L3.25 5L1.75 5L1.75 15.8333H3.25ZM2.5 5.75L16.6667 5.75V4.25L2.5 4.25L2.5 5.75ZM16.6667 5.75C16.7127 5.75 16.75 5.78731 16.75 5.83333L18.25 5.83333C18.25 4.95888 17.5411 4.25 16.6667 4.25V5.75ZM3.33333 15.9167C3.28731 15.9167 3.25 15.8794 3.25 15.8333H1.75C1.75 16.7078 2.45888 17.4167 3.33333 17.4167L3.33333 15.9167ZM16.6667 17.4167C17.5411 17.4167 18.25 16.7078 18.25 15.8333H16.75C16.75 15.8794 16.7127 15.9167 16.6667 15.9167V17.4167ZM16.75 5.83333L16.75 15.8333H18.25L18.25 5.83333L16.75 5.83333Z" fill="#4277FD"/>
<path d="M10 4.99998L8.57741 3.57739C8.42113 3.42111 8.20917 3.33331 7.98816 3.33331H3.33333C2.8731 3.33331 2.5 3.70641 2.5 4.16665V4.99998" stroke="#4277FD" stroke-width="1.5" stroke-linecap="round" stroke-linejoin="round"/>
</svg>
