<svg width="20" height="20" viewBox="0 0 20 20" fill="none" xmlns="http://www.w3.org/2000/svg">
<path d="M5 9.16667L5 3.33333C5 2.8731 5.3731 2.5 5.83333 2.5L12.1359 2.5C12.368 2.5 12.5897 2.59683 12.7474 2.76716L16.4448 6.76038C16.5874 6.91443 16.6667 7.11662 16.6667 7.32656V16.6667C16.6667 17.1269 16.2936 17.5 15.8333 17.5H10.8333" stroke="#4277FD" stroke-width="1.5" stroke-linecap="round" stroke-linejoin="round"/>
<path d="M16.667 7.5L12.5003 7.5C12.0401 7.5 11.667 7.1269 11.667 6.66667L11.667 2.5" stroke="#4277FD" stroke-width="1.5" stroke-linecap="round" stroke-linejoin="round"/>
<path d="M8.33301 12.7432H10.2427V10.8335" stroke="#4277FD" stroke-width="1.25" stroke-linecap="round" stroke-linejoin="round"/>
<path d="M9.6455 15.4143C9.2896 15.9624 8.76736 16.3819 8.15547 16.6113C7.54359 16.8406 6.87427 16.8678 6.2458 16.6888C5.61733 16.5098 5.06281 16.134 4.66364 15.6166C4.26448 15.0992 4.0417 14.4675 4.02801 13.8141C4.01433 13.1608 4.21046 12.5203 4.58761 11.9866C4.96475 11.453 5.50306 11.0543 6.12348 10.8491C6.7439 10.6439 7.41377 10.6431 8.03472 10.8466C8.65568 11.0502 9.19502 11.4474 9.57357 11.9801" stroke="#4277FD" stroke-width="1.25" stroke-linecap="round" stroke-linejoin="round"/>
</svg>
