<svg xmlns="http://www.w3.org/2000/svg" width="20" height="20" viewBox="0 0 20 20" fill="none">
  <path d="M5 9.16667L5 3.33333C5 2.8731 5.3731 2.5 5.83333 2.5L12.1359 2.5C12.368 2.5 12.5897 2.59683 12.7474 2.76716L16.4448 6.76038C16.5874 6.91443 16.6667 7.11662 16.6667 7.32656V16.6667C16.6667 17.1269 16.2936 17.5 15.8333 17.5H10.8333" stroke="#4277FD" stroke-width="1.5" stroke-linecap="round" stroke-linejoin="round"/>
  <path d="M3.33301 17.5001H5.41634L11.6663 11.2501L9.58301 9.16675L3.33301 15.4167V17.5001Z" stroke="#4277FD" stroke-width="1.5" stroke-linecap="round" stroke-linejoin="round"/>
  <path d="M7.5 11.6667L9.16667 13.3334" stroke="#4277FD" stroke-width="1.5" stroke-linecap="round" stroke-linejoin="round"/>
  <path d="M16.667 7.5L12.5003 7.5C12.0401 7.5 11.667 7.1269 11.667 6.66667L11.667 2.5" stroke="#4277FD" stroke-width="1.5" stroke-linecap="round" stroke-linejoin="round"/>
</svg>