<svg width="486" height="768" viewBox="0 0 486 768" fill="none" xmlns="http://www.w3.org/2000/svg">
<g clip-path="url(#clip0_638_19846)">
<rect width="486" height="768" fill="#4277FD"/>
<path d="M115.12 152V157.28H107.56V180H102.04V157.28H94.52V152H115.12ZM120.183 163.44C120.663 162.16 121.449 161.2 122.543 160.56C123.663 159.92 124.903 159.6 126.263 159.6V165.36C124.689 165.173 123.276 165.493 122.023 166.32C120.796 167.147 120.183 168.52 120.183 170.44V180H115.023V160H120.183V163.44ZM143.338 160H148.498V180H143.338V177.64C141.791 179.587 139.618 180.56 136.818 180.56C134.151 180.56 131.858 179.547 129.938 177.52C128.045 175.467 127.098 172.96 127.098 170C127.098 167.04 128.045 164.547 129.938 162.52C131.858 160.467 134.151 159.44 136.818 159.44C139.618 159.44 141.791 160.413 143.338 162.36V160ZM133.818 174.08C134.858 175.12 136.178 175.64 137.778 175.64C139.378 175.64 140.698 175.12 141.738 174.08C142.805 173.013 143.338 171.653 143.338 170C143.338 168.347 142.805 167 141.738 165.96C140.698 164.893 139.378 164.36 137.778 164.36C136.178 164.36 134.858 164.893 133.818 165.96C132.778 167 132.258 168.347 132.258 170C132.258 171.653 132.778 173.013 133.818 174.08ZM163.897 159.44C166.084 159.44 167.884 160.173 169.297 161.64C170.737 163.107 171.457 165.133 171.457 167.72V180H166.297V168.36C166.297 167.027 165.937 166.013 165.217 165.32C164.497 164.6 163.537 164.24 162.337 164.24C161.004 164.24 159.937 164.653 159.137 165.48C158.337 166.307 157.937 167.547 157.937 169.2V180H152.777V160H157.937V162.24C159.191 160.373 161.177 159.44 163.897 159.44ZM180.223 165.68C180.223 166.213 180.57 166.653 181.263 167C181.983 167.32 182.85 167.613 183.863 167.88C184.876 168.12 185.89 168.44 186.903 168.84C187.916 169.213 188.77 169.853 189.463 170.76C190.183 171.667 190.543 172.8 190.543 174.16C190.543 176.213 189.77 177.8 188.223 178.92C186.703 180.013 184.796 180.56 182.503 180.56C178.396 180.56 175.596 178.973 174.103 175.8L178.583 173.28C179.17 175.013 180.476 175.88 182.503 175.88C184.343 175.88 185.263 175.307 185.263 174.16C185.263 173.627 184.903 173.2 184.183 172.88C183.49 172.533 182.636 172.227 181.623 171.96C180.61 171.693 179.596 171.36 178.583 170.96C177.57 170.56 176.703 169.933 175.983 169.08C175.29 168.2 174.943 167.107 174.943 165.8C174.943 163.827 175.663 162.28 177.103 161.16C178.57 160.013 180.383 159.44 182.543 159.44C184.17 159.44 185.65 159.813 186.983 160.56C188.316 161.28 189.37 162.32 190.143 163.68L185.743 166.08C185.103 164.72 184.036 164.04 182.543 164.04C181.876 164.04 181.316 164.187 180.863 164.48C180.436 164.773 180.223 165.173 180.223 165.68ZM203.987 156.4C201.161 156.187 199.747 157.32 199.747 159.8V160H203.987V164.96H199.747V180H194.587V164.96H191.707V160H194.587V159.8C194.587 156.973 195.374 154.827 196.947 153.36C198.521 151.893 200.867 151.253 203.987 151.44V156.4ZM222.25 177.52C220.197 179.547 217.69 180.56 214.73 180.56C211.77 180.56 209.263 179.547 207.21 177.52C205.183 175.467 204.17 172.96 204.17 170C204.17 167.04 205.183 164.547 207.21 162.52C209.263 160.467 211.77 159.44 214.73 159.44C217.69 159.44 220.197 160.467 222.25 162.52C224.303 164.547 225.33 167.04 225.33 170C225.33 172.96 224.303 175.467 222.25 177.52ZM210.85 173.96C211.89 175 213.183 175.52 214.73 175.52C216.277 175.52 217.57 175 218.61 173.96C219.65 172.92 220.17 171.6 220.17 170C220.17 168.4 219.65 167.08 218.61 166.04C217.57 165 216.277 164.48 214.73 164.48C213.183 164.48 211.89 165 210.85 166.04C209.837 167.08 209.33 168.4 209.33 170C209.33 171.6 209.837 172.92 210.85 173.96ZM233.72 163.44C234.2 162.16 234.987 161.2 236.08 160.56C237.2 159.92 238.44 159.6 239.8 159.6V165.36C238.227 165.173 236.813 165.493 235.56 166.32C234.333 167.147 233.72 168.52 233.72 170.44V180H228.56V160H233.72V163.44ZM264.538 159.44C266.831 159.44 268.658 160.187 270.018 161.68C271.404 163.173 272.098 165.173 272.098 167.68V180H266.938V168.04C266.938 166.84 266.644 165.907 266.058 165.24C265.471 164.573 264.644 164.24 263.578 164.24C262.404 164.24 261.484 164.627 260.818 165.4C260.178 166.173 259.858 167.293 259.858 168.76V180H254.698V168.04C254.698 166.84 254.404 165.907 253.818 165.24C253.231 164.573 252.404 164.24 251.338 164.24C250.191 164.24 249.271 164.627 248.578 165.4C247.911 166.173 247.578 167.293 247.578 168.76V180H242.418V160H247.578V162.12C248.778 160.333 250.631 159.44 253.138 159.44C255.591 159.44 257.404 160.4 258.578 162.32C259.911 160.4 261.898 159.44 264.538 159.44ZM278.64 157.6C277.787 157.6 277.04 157.293 276.4 156.68C275.787 156.04 275.48 155.293 275.48 154.44C275.48 153.587 275.787 152.84 276.4 152.2C277.04 151.56 277.787 151.24 278.64 151.24C279.52 151.24 280.267 151.56 280.88 152.2C281.52 152.84 281.84 153.587 281.84 154.44C281.84 155.293 281.52 156.04 280.88 156.68C280.267 157.293 279.52 157.6 278.64 157.6ZM276.08 180V160H281.24V180H276.08ZM296.683 159.44C298.87 159.44 300.67 160.173 302.083 161.64C303.523 163.107 304.243 165.133 304.243 167.72V180H299.083V168.36C299.083 167.027 298.723 166.013 298.003 165.32C297.283 164.6 296.323 164.24 295.123 164.24C293.79 164.24 292.723 164.653 291.923 165.48C291.123 166.307 290.723 167.547 290.723 169.2V180H285.563V160H290.723V162.24C291.976 160.373 293.963 159.44 296.683 159.44ZM323.569 160H328.609V179.04C328.609 182.133 327.582 184.493 325.529 186.12C323.502 187.747 321.049 188.56 318.169 188.56C316.009 188.56 314.102 188.147 312.449 187.32C310.822 186.493 309.569 185.28 308.689 183.68L313.089 181.16C314.102 183.027 315.849 183.96 318.329 183.96C319.956 183.96 321.236 183.533 322.169 182.68C323.102 181.827 323.569 180.613 323.569 179.04V176.88C322.049 178.907 319.916 179.92 317.169 179.92C314.342 179.92 311.969 178.933 310.049 176.96C308.156 174.96 307.209 172.533 307.209 169.68C307.209 166.853 308.169 164.44 310.089 162.44C312.009 160.44 314.369 159.44 317.169 159.44C319.916 159.44 322.049 160.453 323.569 162.48V160ZM313.929 173.64C314.996 174.653 316.342 175.16 317.969 175.16C319.596 175.16 320.929 174.653 321.969 173.64C323.036 172.6 323.569 171.28 323.569 169.68C323.569 168.107 323.036 166.813 321.969 165.8C320.929 164.76 319.596 164.24 317.969 164.24C316.342 164.24 314.996 164.76 313.929 165.8C312.889 166.813 312.369 168.107 312.369 169.68C312.369 171.28 312.889 172.6 313.929 173.64ZM107.8 211.96H103.28V220.28C103.28 220.973 103.453 221.48 103.8 221.8C104.147 222.12 104.653 222.307 105.32 222.36C105.987 222.387 106.813 222.373 107.8 222.32V227C104.253 227.4 101.747 227.067 100.28 226C98.84 224.933 98.12 223.027 98.12 220.28V211.96H94.64V207H98.12V202.96L103.28 201.4V207H107.8V211.96ZM116.511 210.44C116.991 209.16 117.777 208.2 118.871 207.56C119.991 206.92 121.231 206.6 122.591 206.6V212.36C121.017 212.173 119.604 212.493 118.351 213.32C117.124 214.147 116.511 215.52 116.511 217.44V227H111.351V207H116.511V210.44ZM139.666 207H144.826V227H139.666V224.64C138.12 226.587 135.946 227.56 133.146 227.56C130.48 227.56 128.186 226.547 126.266 224.52C124.373 222.467 123.426 219.96 123.426 217C123.426 214.04 124.373 211.547 126.266 209.52C128.186 207.467 130.48 206.44 133.146 206.44C135.946 206.44 138.12 207.413 139.666 209.36V207ZM130.146 221.08C131.186 222.12 132.506 222.64 134.106 222.64C135.706 222.64 137.026 222.12 138.066 221.08C139.133 220.013 139.666 218.653 139.666 217C139.666 215.347 139.133 214 138.066 212.96C137.026 211.893 135.706 211.36 134.106 211.36C132.506 211.36 131.186 211.893 130.146 212.96C129.106 214 128.586 215.347 128.586 217C128.586 218.653 129.106 220.013 130.146 221.08ZM164.265 199H169.425V227H164.265V224.64C162.745 226.587 160.585 227.56 157.785 227.56C155.092 227.56 152.785 226.547 150.865 224.52C148.972 222.467 148.025 219.96 148.025 217C148.025 214.04 148.972 211.547 150.865 209.52C152.785 207.467 155.092 206.44 157.785 206.44C160.585 206.44 162.745 207.413 164.265 209.36V199ZM154.745 221.08C155.812 222.12 157.145 222.64 158.745 222.64C160.345 222.64 161.665 222.12 162.705 221.08C163.745 220.013 164.265 218.653 164.265 217C164.265 215.347 163.745 214 162.705 212.96C161.665 211.893 160.345 211.36 158.745 211.36C157.145 211.36 155.812 211.893 154.745 212.96C153.705 214 153.185 215.347 153.185 217C153.185 218.653 153.705 220.013 154.745 221.08ZM176.304 204.6C175.451 204.6 174.704 204.293 174.064 203.68C173.451 203.04 173.144 202.293 173.144 201.44C173.144 200.587 173.451 199.84 174.064 199.2C174.704 198.56 175.451 198.24 176.304 198.24C177.184 198.24 177.931 198.56 178.544 199.2C179.184 199.84 179.504 200.587 179.504 201.44C179.504 202.293 179.184 203.04 178.544 203.68C177.931 204.293 177.184 204.6 176.304 204.6ZM173.744 227V207H178.904V227H173.744ZM194.667 211.96H190.147V220.28C190.147 220.973 190.321 221.48 190.667 221.8C191.014 222.12 191.521 222.307 192.187 222.36C192.854 222.387 193.681 222.373 194.667 222.32V227C191.121 227.4 188.614 227.067 187.147 226C185.707 224.933 184.987 223.027 184.987 220.28V211.96H181.507V207H184.987V202.96L190.147 201.4V207H194.667V211.96ZM200.465 204.6C199.612 204.6 198.865 204.293 198.225 203.68C197.612 203.04 197.305 202.293 197.305 201.44C197.305 200.587 197.612 199.84 198.225 199.2C198.865 198.56 199.612 198.24 200.465 198.24C201.345 198.24 202.092 198.56 202.705 199.2C203.345 199.84 203.665 200.587 203.665 201.44C203.665 202.293 203.345 203.04 202.705 203.68C202.092 204.293 201.345 204.6 200.465 204.6ZM197.905 227V207H203.065V227H197.905ZM224.428 224.52C222.375 226.547 219.868 227.56 216.908 227.56C213.948 227.56 211.441 226.547 209.388 224.52C207.361 222.467 206.348 219.96 206.348 217C206.348 214.04 207.361 211.547 209.388 209.52C211.441 207.467 213.948 206.44 216.908 206.44C219.868 206.44 222.375 207.467 224.428 209.52C226.481 211.547 227.508 214.04 227.508 217C227.508 219.96 226.481 222.467 224.428 224.52ZM213.028 220.96C214.068 222 215.361 222.52 216.908 222.52C218.455 222.52 219.748 222 220.788 220.96C221.828 219.92 222.348 218.6 222.348 217C222.348 215.4 221.828 214.08 220.788 213.04C219.748 212 218.455 211.48 216.908 211.48C215.361 211.48 214.068 212 213.028 213.04C212.015 214.08 211.508 215.4 211.508 217C211.508 218.6 212.015 219.92 213.028 220.96ZM241.858 206.44C244.045 206.44 245.845 207.173 247.258 208.64C248.698 210.107 249.418 212.133 249.418 214.72V227H244.258V215.36C244.258 214.027 243.898 213.013 243.178 212.32C242.458 211.6 241.498 211.24 240.298 211.24C238.965 211.24 237.898 211.653 237.098 212.48C236.298 213.307 235.898 214.547 235.898 216.2V227H230.738V207H235.898V209.24C237.151 207.373 239.138 206.44 241.858 206.44ZM268.624 207H273.784V227H268.624V224.64C267.077 226.587 264.904 227.56 262.104 227.56C259.437 227.56 257.144 226.547 255.224 224.52C253.331 222.467 252.384 219.96 252.384 217C252.384 214.04 253.331 211.547 255.224 209.52C257.144 207.467 259.437 206.44 262.104 206.44C264.904 206.44 267.077 207.413 268.624 209.36V207ZM259.104 221.08C260.144 222.12 261.464 222.64 263.064 222.64C264.664 222.64 265.984 222.12 267.024 221.08C268.091 220.013 268.624 218.653 268.624 217C268.624 215.347 268.091 214 267.024 212.96C265.984 211.893 264.664 211.36 263.064 211.36C261.464 211.36 260.144 211.893 259.104 212.96C258.064 214 257.544 215.347 257.544 217C257.544 218.653 258.064 220.013 259.104 221.08ZM278.063 227V197.8H283.223V227H278.063ZM319.666 207H325.146L318.786 227H313.866L310.186 214.88L306.506 227H301.586L295.226 207H300.706L304.106 219.28L307.746 207H312.626L316.266 219.32L319.666 207ZM341.946 207H347.106V227H341.946V224.64C340.399 226.587 338.226 227.56 335.426 227.56C332.759 227.56 330.466 226.547 328.546 224.52C326.653 222.467 325.706 219.96 325.706 217C325.706 214.04 326.653 211.547 328.546 209.52C330.466 207.467 332.759 206.44 335.426 206.44C338.226 206.44 340.399 207.413 341.946 209.36V207ZM332.426 221.08C333.466 222.12 334.786 222.64 336.386 222.64C337.986 222.64 339.306 222.12 340.346 221.08C341.413 220.013 341.946 218.653 341.946 217C341.946 215.347 341.413 214 340.346 212.96C339.306 211.893 337.986 211.36 336.386 211.36C334.786 211.36 333.466 211.893 332.426 212.96C331.386 214 330.866 215.347 330.866 217C330.866 218.653 331.386 220.013 332.426 221.08ZM364.425 207H369.945L362.665 227C361.625 229.88 360.238 231.96 358.505 233.24C356.798 234.547 354.665 235.133 352.105 235V230.2C353.492 230.227 354.585 229.933 355.385 229.32C356.212 228.707 356.865 227.72 357.345 226.36L349.145 207H354.785L359.985 220.44L364.425 207ZM375.511 212.68C375.511 213.213 375.857 213.653 376.551 214C377.271 214.32 378.137 214.613 379.151 214.88C380.164 215.12 381.177 215.44 382.191 215.84C383.204 216.213 384.057 216.853 384.751 217.76C385.471 218.667 385.831 219.8 385.831 221.16C385.831 223.213 385.057 224.8 383.511 225.92C381.991 227.013 380.084 227.56 377.791 227.56C373.684 227.56 370.884 225.973 369.391 222.8L373.871 220.28C374.457 222.013 375.764 222.88 377.791 222.88C379.631 222.88 380.551 222.307 380.551 221.16C380.551 220.627 380.191 220.2 379.471 219.88C378.777 219.533 377.924 219.227 376.911 218.96C375.897 218.693 374.884 218.36 373.871 217.96C372.857 217.56 371.991 216.933 371.271 216.08C370.577 215.2 370.231 214.107 370.231 212.8C370.231 210.827 370.951 209.28 372.391 208.16C373.857 207.013 375.671 206.44 377.831 206.44C379.457 206.44 380.937 206.813 382.271 207.56C383.604 208.28 384.657 209.32 385.431 210.68L381.031 213.08C380.391 211.72 379.324 211.04 377.831 211.04C377.164 211.04 376.604 211.187 376.151 211.48C375.724 211.773 375.511 212.173 375.511 212.68ZM98.92 251.6C98.0667 251.6 97.32 251.293 96.68 250.68C96.0667 250.04 95.76 249.293 95.76 248.44C95.76 247.587 96.0667 246.84 96.68 246.2C97.32 245.56 98.0667 245.24 98.92 245.24C99.8 245.24 100.547 245.56 101.16 246.2C101.8 246.84 102.12 247.587 102.12 248.44C102.12 249.293 101.8 250.04 101.16 250.68C100.547 251.293 99.8 251.6 98.92 251.6ZM96.36 274V254H101.52V274H96.36ZM116.963 253.44C119.149 253.44 120.949 254.173 122.363 255.64C123.803 257.107 124.523 259.133 124.523 261.72V274H119.363V262.36C119.363 261.027 119.003 260.013 118.283 259.32C117.563 258.6 116.603 258.24 115.403 258.24C114.069 258.24 113.003 258.653 112.203 259.48C111.403 260.307 111.003 261.547 111.003 263.2V274H105.843V254H111.003V256.24C112.256 254.373 114.243 253.44 116.963 253.44ZM139.969 258.96H135.449V267.28C135.449 267.973 135.622 268.48 135.969 268.8C136.315 269.12 136.822 269.307 137.489 269.36C138.155 269.387 138.982 269.373 139.969 269.32V274C136.422 274.4 133.915 274.067 132.449 273C131.009 271.933 130.289 270.027 130.289 267.28V258.96H126.809V254H130.289V249.96L135.449 248.4V254H139.969V258.96ZM159.622 271.52C157.569 273.547 155.062 274.56 152.102 274.56C149.142 274.56 146.635 273.547 144.582 271.52C142.555 269.467 141.542 266.96 141.542 264C141.542 261.04 142.555 258.547 144.582 256.52C146.635 254.467 149.142 253.44 152.102 253.44C155.062 253.44 157.569 254.467 159.622 256.52C161.675 258.547 162.702 261.04 162.702 264C162.702 266.96 161.675 269.467 159.622 271.52ZM148.222 267.96C149.262 269 150.555 269.52 152.102 269.52C153.649 269.52 154.942 269 155.982 267.96C157.022 266.92 157.542 265.6 157.542 264C157.542 262.4 157.022 261.08 155.982 260.04C154.942 259 153.649 258.48 152.102 258.48C150.555 258.48 149.262 259 148.222 260.04C147.209 261.08 146.702 262.4 146.702 264C146.702 265.6 147.209 266.92 148.222 267.96ZM186.892 246C190.732 246 193.932 247.347 196.492 250.04C199.079 252.733 200.372 256.053 200.372 260C200.372 263.947 199.079 267.267 196.492 269.96C193.932 272.653 190.732 274 186.892 274H175.772V246H186.892ZM186.892 268.72C189.319 268.72 191.292 267.92 192.812 266.32C194.332 264.693 195.092 262.587 195.092 260C195.092 257.413 194.332 255.32 192.812 253.72C191.292 252.093 189.319 251.28 186.892 251.28H181.292V268.72H186.892ZM206.207 251.6C205.354 251.6 204.607 251.293 203.967 250.68C203.354 250.04 203.047 249.293 203.047 248.44C203.047 247.587 203.354 246.84 203.967 246.2C204.607 245.56 205.354 245.24 206.207 245.24C207.087 245.24 207.834 245.56 208.447 246.2C209.087 246.84 209.407 247.587 209.407 248.44C209.407 249.293 209.087 250.04 208.447 250.68C207.834 251.293 207.087 251.6 206.207 251.6ZM203.647 274V254H208.807V274H203.647ZM228.45 254H233.49V273.04C233.49 276.133 232.464 278.493 230.41 280.12C228.384 281.747 225.93 282.56 223.05 282.56C220.89 282.56 218.984 282.147 217.33 281.32C215.704 280.493 214.45 279.28 213.57 277.68L217.97 275.16C218.984 277.027 220.73 277.96 223.21 277.96C224.837 277.96 226.117 277.533 227.05 276.68C227.984 275.827 228.45 274.613 228.45 273.04V270.88C226.93 272.907 224.797 273.92 222.05 273.92C219.224 273.92 216.85 272.933 214.93 270.96C213.037 268.96 212.09 266.533 212.09 263.68C212.09 260.853 213.05 258.44 214.97 256.44C216.89 254.44 219.25 253.44 222.05 253.44C224.797 253.44 226.93 254.453 228.45 256.48V254ZM218.81 267.64C219.877 268.653 221.224 269.16 222.85 269.16C224.477 269.16 225.81 268.653 226.85 267.64C227.917 266.6 228.45 265.28 228.45 263.68C228.45 262.107 227.917 260.813 226.85 259.8C225.81 258.76 224.477 258.24 222.85 258.24C221.224 258.24 219.877 258.76 218.81 259.8C217.77 260.813 217.25 262.107 217.25 263.68C217.25 265.28 217.77 266.6 218.81 267.64ZM240.329 251.6C239.476 251.6 238.729 251.293 238.089 250.68C237.476 250.04 237.169 249.293 237.169 248.44C237.169 247.587 237.476 246.84 238.089 246.2C238.729 245.56 239.476 245.24 240.329 245.24C241.209 245.24 241.956 245.56 242.569 246.2C243.209 246.84 243.529 247.587 243.529 248.44C243.529 249.293 243.209 250.04 242.569 250.68C241.956 251.293 241.209 251.6 240.329 251.6ZM237.769 274V254H242.929V274H237.769ZM258.692 258.96H254.172V267.28C254.172 267.973 254.346 268.48 254.692 268.8C255.039 269.12 255.546 269.307 256.212 269.36C256.879 269.387 257.706 269.373 258.692 269.32V274C255.146 274.4 252.639 274.067 251.172 273C249.732 271.933 249.012 270.027 249.012 267.28V258.96H245.532V254H249.012V249.96L254.172 248.4V254H258.692V258.96ZM276.505 254H281.665V274H276.505V271.64C274.959 273.587 272.785 274.56 269.985 274.56C267.319 274.56 265.025 273.547 263.105 271.52C261.212 269.467 260.265 266.96 260.265 264C260.265 261.04 261.212 258.547 263.105 256.52C265.025 254.467 267.319 253.44 269.985 253.44C272.785 253.44 274.959 254.413 276.505 256.36V254ZM266.985 268.08C268.025 269.12 269.345 269.64 270.945 269.64C272.545 269.64 273.865 269.12 274.905 268.08C275.972 267.013 276.505 265.653 276.505 264C276.505 262.347 275.972 261 274.905 259.96C273.865 258.893 272.545 258.36 270.945 258.36C269.345 258.36 268.025 258.893 266.985 259.96C265.945 261 265.425 262.347 265.425 264C265.425 265.653 265.945 267.013 266.985 268.08ZM285.944 274V244.8H291.104V274H285.944Z" fill="#EEF2FB"/>
<path d="M315.989 439.896C315.593 439.896 315.205 440.013 314.875 440.232C314.546 440.452 314.289 440.765 314.137 441.131C313.985 441.497 313.946 441.899 314.023 442.288C314.101 442.676 314.292 443.033 314.572 443.313C314.952 443.682 315.459 443.891 315.989 443.896C316.385 443.895 316.771 443.777 317.099 443.557C317.428 443.336 317.683 443.024 317.834 442.658C317.984 442.292 318.023 441.89 317.945 441.503C317.867 441.115 317.676 440.759 317.396 440.48C317.023 440.107 316.517 439.897 315.989 439.896Z" fill="#9BB1E9"/>
<path d="M315.995 450.001C315.466 450.001 314.959 450.21 314.584 450.581C314.21 450.953 314 451.456 314 451.982C314 452.507 314.21 453.011 314.584 453.383C314.959 453.754 315.466 453.963 315.995 453.963C316.522 453.962 317.026 453.755 317.398 453.385C317.589 453.199 317.74 452.978 317.843 452.734C317.947 452.49 318 452.228 318 451.963C318 451.698 317.947 451.436 317.843 451.192C317.74 450.948 317.589 450.726 317.398 450.541C317.026 450.171 316.522 449.963 315.995 449.963" fill="#9BB1E9"/>
<path d="M363.965 439.916C363.574 439.915 363.191 440.031 362.865 440.25C362.539 440.468 362.285 440.779 362.135 441.144C361.985 441.508 361.946 441.909 362.023 442.295C362.099 442.682 362.288 443.037 362.565 443.315C362.75 443.505 362.971 443.656 363.215 443.759C363.458 443.862 363.72 443.916 363.984 443.916C364.249 443.916 364.51 443.862 364.754 443.759C364.998 443.656 365.218 443.505 365.403 443.315C365.681 443.037 365.87 442.682 365.946 442.295C366.023 441.909 365.984 441.508 365.834 441.144C365.684 440.779 365.43 440.468 365.104 440.25C364.778 440.031 364.395 439.915 364.003 439.916" fill="#9BB1E9"/>
<path d="M339.984 439.896C339.454 439.896 338.945 440.107 338.57 440.482C338.195 440.857 337.984 441.366 337.984 441.896C337.984 442.427 338.195 442.936 338.57 443.311C338.945 443.686 339.454 443.896 339.984 443.896C340.515 443.896 341.024 443.686 341.399 443.311C341.774 442.936 341.984 442.427 341.984 441.896C341.984 441.366 341.774 440.857 341.399 440.482C341.024 440.107 340.515 439.896 339.984 439.896Z" fill="#9BB1E9"/>
<path d="M351.984 439.896C351.454 439.896 350.945 440.107 350.57 440.482C350.195 440.857 349.984 441.366 349.984 441.896C349.984 442.427 350.195 442.936 350.57 443.311C350.945 443.686 351.454 443.896 351.984 443.896C352.515 443.896 353.024 443.686 353.399 443.311C353.774 442.936 353.984 442.427 353.984 441.896C353.984 441.366 353.774 440.857 353.399 440.482C353.024 440.107 352.515 439.896 351.984 439.896Z" fill="#9BB1E9"/>
<path d="M327.989 439.896C327.593 439.896 327.205 440.013 326.875 440.232C326.546 440.452 326.289 440.765 326.137 441.131C325.985 441.497 325.946 441.899 326.023 442.288C326.101 442.676 326.292 443.033 326.572 443.313C326.952 443.682 327.459 443.891 327.989 443.896C328.385 443.895 328.771 443.777 329.099 443.557C329.428 443.336 329.683 443.024 329.834 442.658C329.984 442.292 330.023 441.89 329.945 441.503C329.867 441.115 329.676 440.759 329.396 440.48C329.023 440.107 328.517 439.897 327.989 439.896Z" fill="#9BB1E9"/>
<path d="M363.992 449.944C363.53 449.946 363.082 450.108 362.726 450.403C362.37 450.697 362.126 451.106 362.037 451.56C361.948 452.014 362.019 452.484 362.238 452.891C362.457 453.298 362.81 453.617 363.238 453.793C363.665 453.97 364.141 453.992 364.583 453.858C365.025 453.723 365.407 453.439 365.664 453.054C365.92 452.67 366.036 452.208 365.99 451.748C365.945 451.288 365.742 450.858 365.415 450.531C365.036 450.156 364.525 449.945 363.992 449.944Z" fill="#9BB1E9"/>
<path d="M340 449.963C339.47 449.963 338.961 450.174 338.586 450.549C338.211 450.924 338 451.432 338 451.963C338 452.493 338.211 453.002 338.586 453.377C338.961 453.752 339.47 453.963 340 453.963C340.53 453.963 341.039 453.752 341.414 453.377C341.789 453.002 342 452.493 342 451.963C342 451.432 341.789 450.924 341.414 450.549C341.039 450.174 340.53 449.963 340 449.963Z" fill="#9BB1E9"/>
<path d="M352 449.963C351.47 449.963 350.961 450.174 350.586 450.549C350.211 450.924 350 451.432 350 451.963C350 452.493 350.211 453.002 350.586 453.377C350.961 453.752 351.47 453.963 352 453.963C352.53 453.963 353.039 453.752 353.414 453.377C353.789 453.002 354 452.493 354 451.963C354 451.432 353.789 450.924 353.414 450.549C353.039 450.174 352.53 449.963 352 449.963Z" fill="#9BB1E9"/>
<path d="M327.991 450.001C327.463 450.001 326.957 450.21 326.583 450.581C326.21 450.953 326 451.456 326 451.982C326 452.507 326.21 453.011 326.583 453.383C326.957 453.754 327.463 453.963 327.991 453.963C328.516 453.962 329.02 453.755 329.391 453.385C329.584 453.201 329.737 452.98 329.841 452.736C329.946 452.491 330 452.228 330 451.963C330 451.697 329.946 451.434 329.841 451.19C329.737 450.946 329.584 450.725 329.391 450.541C329.02 450.171 328.516 449.963 327.991 449.963" fill="#9BB1E9"/>
<path d="M411.989 439.896C411.593 439.896 411.205 440.013 410.875 440.232C410.546 440.452 410.289 440.765 410.137 441.131C409.985 441.497 409.946 441.899 410.023 442.288C410.101 442.676 410.292 443.033 410.572 443.313C410.952 443.682 411.459 443.891 411.989 443.896C412.385 443.895 412.771 443.777 413.099 443.557C413.428 443.336 413.683 443.024 413.834 442.658C413.984 442.292 414.023 441.89 413.945 441.503C413.867 441.115 413.676 440.759 413.396 440.48C413.023 440.107 412.517 439.897 411.989 439.896Z" fill="#9BB1E9"/>
<path d="M387.984 439.896C387.454 439.896 386.945 440.107 386.57 440.482C386.195 440.857 385.984 441.366 385.984 441.896C385.984 442.427 386.195 442.936 386.57 443.311C386.945 443.686 387.454 443.896 387.984 443.896C388.515 443.896 389.024 443.686 389.399 443.311C389.774 442.936 389.984 442.427 389.984 441.896C389.984 441.366 389.774 440.857 389.399 440.482C389.024 440.107 388.515 439.896 387.984 439.896Z" fill="#9BB1E9"/>
<path d="M399.984 439.896C399.454 439.896 398.945 440.107 398.57 440.482C398.195 440.857 397.984 441.366 397.984 441.896C397.984 442.427 398.195 442.936 398.57 443.311C398.945 443.686 399.454 443.896 399.984 443.896C400.515 443.896 401.024 443.686 401.399 443.311C401.774 442.936 401.984 442.427 401.984 441.896C401.984 441.366 401.774 440.857 401.399 440.482C401.024 440.107 400.515 439.896 399.984 439.896Z" fill="#9BB1E9"/>
<path d="M375.98 439.896C375.718 439.896 375.459 439.947 375.217 440.047C374.976 440.147 374.757 440.294 374.572 440.48C374.292 440.759 374.101 441.115 374.024 441.503C373.946 441.89 373.984 442.292 374.135 442.658C374.286 443.024 374.541 443.336 374.87 443.557C375.198 443.777 375.584 443.895 375.98 443.896C376.509 443.891 377.017 443.682 377.396 443.313C377.677 443.033 377.868 442.676 377.946 442.288C378.023 441.899 377.984 441.497 377.832 441.131C377.68 440.765 377.423 440.452 377.093 440.232C376.763 440.013 376.376 439.896 375.98 439.896Z" fill="#9BB1E9"/>
<path d="M411.991 450.001C411.463 450.001 410.956 450.21 410.583 450.581C410.21 450.953 410 451.456 410 451.982C410 452.507 410.21 453.011 410.583 453.383C410.956 453.754 411.463 453.963 411.991 453.963C412.516 453.962 413.02 453.755 413.391 453.385C413.584 453.201 413.737 452.98 413.841 452.736C413.946 452.491 414 452.228 414 451.963C414 451.697 413.946 451.434 413.841 451.19C413.737 450.946 413.584 450.725 413.391 450.541C413.02 450.171 412.516 449.963 411.991 449.963" fill="#9BB1E9"/>
<path d="M388 449.963C387.47 449.963 386.961 450.174 386.586 450.549C386.211 450.924 386 451.432 386 451.963C386 452.493 386.211 453.002 386.586 453.377C386.961 453.752 387.47 453.963 388 453.963C388.53 453.963 389.039 453.752 389.414 453.377C389.789 453.002 390 452.493 390 451.963C390 451.432 389.789 450.924 389.414 450.549C389.039 450.174 388.53 449.963 388 449.963Z" fill="#9BB1E9"/>
<path d="M400 449.963C399.47 449.963 398.961 450.174 398.586 450.549C398.211 450.924 398 451.432 398 451.963C398 452.493 398.211 453.002 398.586 453.377C398.961 453.752 399.47 453.963 400 453.963C400.53 453.963 401.039 453.752 401.414 453.377C401.789 453.002 402 452.493 402 451.963C402 451.432 401.789 450.924 401.414 450.549C401.039 450.174 400.53 449.963 400 449.963Z" fill="#9BB1E9"/>
<path d="M376.009 450C375.749 449.999 375.491 450.05 375.251 450.149C375.01 450.248 374.792 450.394 374.609 450.578C374.416 450.762 374.263 450.983 374.159 451.227C374.054 451.472 374 451.734 374 452C374 452.266 374.054 452.528 374.159 452.773C374.263 453.017 374.416 453.238 374.609 453.422C374.792 453.606 375.01 453.752 375.251 453.851C375.491 453.95 375.749 454.001 376.009 454C376.537 454 377.043 453.791 377.417 453.42C377.79 453.048 378 452.544 378 452.019C378 451.494 377.79 450.99 377.417 450.618C377.043 450.247 376.537 450.038 376.009 450.038" fill="#9BB1E9"/>
<path d="M459.969 439.944C459.445 439.945 458.943 440.152 458.571 440.521C458.195 440.897 457.984 441.407 457.984 441.939C457.984 442.471 458.195 442.981 458.571 443.357C458.947 443.733 459.456 443.944 459.988 443.944C460.519 443.944 461.029 443.733 461.404 443.357C461.681 443.081 461.87 442.728 461.946 442.344C462.023 441.961 461.984 441.563 461.834 441.201C461.684 440.84 461.431 440.531 461.105 440.314C460.78 440.097 460.398 439.981 460.007 439.982" fill="#9BB1E9"/>
<path d="M435.984 439.896C435.454 439.896 434.945 440.107 434.57 440.482C434.195 440.857 433.984 441.366 433.984 441.896C433.984 442.427 434.195 442.936 434.57 443.311C434.945 443.686 435.454 443.896 435.984 443.896C436.515 443.896 437.024 443.686 437.399 443.311C437.774 442.936 437.984 442.427 437.984 441.896C437.984 441.366 437.774 440.857 437.399 440.482C437.024 440.107 436.515 439.896 435.984 439.896Z" fill="#9BB1E9"/>
<path d="M447.984 439.896C447.454 439.896 446.945 440.107 446.57 440.482C446.195 440.857 445.984 441.366 445.984 441.896C445.984 442.427 446.195 442.936 446.57 443.311C446.945 443.686 447.454 443.896 447.984 443.896C448.515 443.896 449.024 443.686 449.399 443.311C449.774 442.936 449.984 442.427 449.984 441.896C449.984 441.366 449.774 440.857 449.399 440.482C449.024 440.107 448.515 439.896 447.984 439.896Z" fill="#9BB1E9"/>
<path d="M423.989 439.896C423.593 439.896 423.205 440.013 422.875 440.232C422.546 440.452 422.289 440.765 422.137 441.131C421.985 441.497 421.946 441.899 422.023 442.288C422.101 442.676 422.292 443.033 422.572 443.313C422.952 443.682 423.459 443.891 423.989 443.896C424.385 443.895 424.771 443.777 425.099 443.557C425.428 443.336 425.683 443.024 425.834 442.658C425.984 442.292 426.023 441.89 425.945 441.503C425.867 441.115 425.676 440.759 425.396 440.48C425.212 440.294 424.993 440.147 424.751 440.047C424.51 439.947 424.251 439.896 423.989 439.896Z" fill="#9BB1E9"/>
<path d="M460.012 450C459.483 450.001 458.977 450.209 458.601 450.578C458.411 450.764 458.26 450.985 458.156 451.229C458.053 451.473 458 451.735 458 452C458 452.265 458.053 452.527 458.156 452.771C458.26 453.015 458.411 453.236 458.601 453.422C458.833 453.652 459.118 453.821 459.431 453.915C459.745 454.009 460.076 454.025 460.397 453.962C460.718 453.898 461.019 453.757 461.272 453.55C461.525 453.344 461.723 453.078 461.848 452.778C461.973 452.477 462.022 452.15 461.991 451.826C461.959 451.502 461.847 451.191 461.666 450.92C461.484 450.649 461.238 450.427 460.95 450.273C460.661 450.119 460.339 450.039 460.012 450.038" fill="#9BB1E9"/>
<path d="M436 449.963C435.47 449.963 434.961 450.174 434.586 450.549C434.211 450.924 434 451.432 434 451.963C434 452.493 434.211 453.002 434.586 453.377C434.961 453.752 435.47 453.963 436 453.963C436.53 453.963 437.039 453.752 437.414 453.377C437.789 453.002 438 452.493 438 451.963C438 451.432 437.789 450.924 437.414 450.549C437.039 450.174 436.53 449.963 436 449.963Z" fill="#9BB1E9"/>
<path d="M448 449.963C447.47 449.963 446.961 450.174 446.586 450.549C446.211 450.924 446 451.432 446 451.963C446 452.493 446.211 453.002 446.586 453.377C446.961 453.752 447.47 453.963 448 453.963C448.53 453.963 449.039 453.752 449.414 453.377C449.789 453.002 450 452.493 450 451.963C450 451.432 449.789 450.924 449.414 450.549C449.039 450.174 448.53 449.963 448 449.963Z" fill="#9BB1E9"/>
<path d="M423.991 450.001C423.463 450.001 422.957 450.21 422.583 450.581C422.21 450.953 422 451.456 422 451.982C422 452.507 422.21 453.011 422.583 453.383C422.957 453.754 423.463 453.963 423.991 453.963C424.251 453.964 424.509 453.913 424.749 453.814C424.99 453.715 425.208 453.569 425.391 453.385C425.584 453.201 425.737 452.98 425.841 452.736C425.946 452.491 426 452.228 426 451.963C426 451.697 425.946 451.434 425.841 451.19C425.737 450.946 425.584 450.725 425.391 450.541C425.208 450.357 424.99 450.211 424.749 450.112C424.509 450.013 424.251 449.962 423.991 449.963" fill="#9BB1E9"/>
<path d="M26.0048 24C25.6085 23.9992 25.2209 24.116 24.8911 24.3357C24.5613 24.5554 24.3043 24.8681 24.1525 25.2341C24.0007 25.6 23.9611 26.0028 24.0387 26.3913C24.1162 26.7798 24.3074 27.1365 24.5881 27.4163C24.9675 27.7859 25.475 27.995 26.0048 28C26.4003 27.9989 26.7866 27.8807 27.1148 27.6603C27.4431 27.4398 27.6987 27.1271 27.8493 26.7615C27.9999 26.3959 28.0387 25.994 27.9609 25.6063C27.883 25.2187 27.692 24.8629 27.4119 24.5837C27.0389 24.2104 26.5327 24.0004 26.0048 24Z" fill="#9BB1E9"/>
<path d="M26.0107 34.1043C25.4816 34.1043 24.9741 34.313 24.6 34.6846C24.2258 35.0561 24.0156 35.56 24.0156 36.0854C24.0156 36.6108 24.2258 37.1147 24.6 37.4862C24.9741 37.8577 25.4816 38.0664 26.0107 38.0664C26.5371 38.066 27.0419 37.858 27.4139 37.4882C27.6044 37.3029 27.7558 37.0817 27.8591 36.8375C27.9624 36.5934 28.0156 36.3312 28.0156 36.0664C28.0156 35.8016 27.9624 35.5394 27.8591 35.2953C27.7558 35.0512 27.6044 34.8299 27.4139 34.6446C27.0419 34.2748 26.5371 34.0668 26.0107 34.0664" fill="#9BB1E9"/>
<path d="M73.9811 24.019C73.5895 24.0182 73.2064 24.1345 72.8806 24.3532C72.5547 24.5718 72.3007 24.883 72.1507 25.2471C72.0007 25.6113 71.9616 26.0122 72.0382 26.3988C72.1148 26.7854 72.3038 27.1404 72.5811 27.4188C72.7661 27.6088 72.9868 27.7598 73.2304 27.8629C73.4741 27.9659 73.7357 28.019 74 28.019C74.2643 28.019 74.5259 27.9659 74.7695 27.8629C75.0132 27.7598 75.234 27.6088 75.4189 27.4188C75.6962 27.1404 75.8852 26.7854 75.9618 26.3988C76.0384 26.0122 75.9992 25.6113 75.8493 25.2471C75.6993 24.883 75.4453 24.5718 75.1194 24.3532C74.7935 24.1345 74.4105 24.0182 74.0189 24.019" fill="#9BB1E9"/>
<path d="M50 24C49.4696 24 48.9608 24.2107 48.5858 24.5858C48.2107 24.9609 48 25.4696 48 26C48 26.5304 48.2107 27.0391 48.5858 27.4142C48.9608 27.7893 49.4696 28 50 28C50.5304 28 51.0391 27.7893 51.4142 27.4142C51.7893 27.0391 52 26.5304 52 26C52 25.4696 51.7893 24.9609 51.4142 24.5858C51.0391 24.2107 50.5304 24 50 24Z" fill="#9BB1E9"/>
<path d="M62 24C61.4696 24 60.9609 24.2107 60.5858 24.5858C60.2107 24.9609 60 25.4696 60 26C60 26.5304 60.2107 27.0391 60.5858 27.4142C60.9609 27.7893 61.4696 28 62 28C62.5304 28 63.0391 27.7893 63.4142 27.4142C63.7893 27.0391 64 26.5304 64 26C64 25.4696 63.7893 24.9609 63.4142 24.5858C63.0391 24.2107 62.5304 24 62 24Z" fill="#9BB1E9"/>
<path d="M38.0048 24C37.6085 23.9992 37.2209 24.116 36.8911 24.3357C36.5613 24.5554 36.3043 24.8681 36.1525 25.2341C36.0007 25.6 35.9611 26.0028 36.0387 26.3913C36.1162 26.7798 36.3074 27.1365 36.5881 27.4163C36.9675 27.7859 37.475 27.995 38.0048 28C38.4003 27.9989 38.7866 27.8807 39.1148 27.6603C39.4431 27.4398 39.6987 27.1271 39.8493 26.7615C39.9999 26.3959 40.0387 25.994 39.9609 25.6063C39.883 25.2187 39.692 24.8629 39.4119 24.5837C39.0389 24.2104 38.5327 24.0004 38.0048 24Z" fill="#9BB1E9"/>
<path d="M74.0075 34.0479C73.5452 34.0497 73.0978 34.2117 72.7415 34.5062C72.3851 34.8008 72.1418 35.2096 72.0529 35.6633C71.9641 36.117 72.0351 36.5875 72.254 36.9947C72.4729 37.402 72.8261 37.7208 73.2535 37.8969C73.6809 38.0731 74.1562 38.0958 74.5984 37.961C75.0407 37.8263 75.4226 37.5425 75.6792 37.158C75.9359 36.7734 76.0513 36.3118 76.006 35.8517C75.9607 35.3917 75.7573 34.9615 75.4306 34.6344C75.0517 34.2595 74.5405 34.0488 74.0075 34.0479Z" fill="#9BB1E9"/>
<path d="M50.0156 34.0664C49.4852 34.0664 48.9765 34.2771 48.6014 34.6522C48.2263 35.0273 48.0156 35.536 48.0156 36.0664C48.0156 36.5968 48.2263 37.1055 48.6014 37.4806C48.9765 37.8557 49.4852 38.0664 50.0156 38.0664C50.5461 38.0664 51.0548 37.8557 51.4298 37.4806C51.8049 37.1055 52.0156 36.5968 52.0156 36.0664C52.0156 35.536 51.8049 35.0273 51.4298 34.6522C51.0548 34.2771 50.5461 34.0664 50.0156 34.0664Z" fill="#9BB1E9"/>
<path d="M62.0156 34.0664C61.4852 34.0664 60.9765 34.2771 60.6014 34.6522C60.2263 35.0273 60.0156 35.536 60.0156 36.0664C60.0156 36.5968 60.2263 37.1055 60.6014 37.4806C60.9765 37.8557 61.4852 38.0664 62.0156 38.0664C62.5461 38.0664 63.0548 37.8557 63.4298 37.4806C63.8049 37.1055 64.0156 36.5968 64.0156 36.0664C64.0156 35.536 63.8049 35.0273 63.4298 34.6522C63.0548 34.2771 62.5461 34.0664 62.0156 34.0664Z" fill="#9BB1E9"/>
<path d="M38.0066 34.1043C37.4785 34.1043 36.9721 34.313 36.5988 34.6846C36.2254 35.0561 36.0156 35.56 36.0156 36.0854C36.0156 36.6108 36.2254 37.1147 36.5988 37.4862C36.9721 37.8577 37.4785 38.0664 38.0066 38.0664C38.5319 38.066 39.0356 37.858 39.4069 37.4882C39.5994 37.3042 39.7525 37.0835 39.8571 36.8391C39.9617 36.5948 40.0156 36.332 40.0156 36.0664C40.0156 35.8008 39.9617 35.538 39.8571 35.2937C39.7525 35.0494 39.5993 34.8286 39.4069 34.6446C39.0356 34.2748 38.5319 34.0668 38.0066 34.0664" fill="#9BB1E9"/>
<path d="M122.005 24C121.608 23.9992 121.221 24.116 120.891 24.3357C120.561 24.5554 120.304 24.8681 120.153 25.2341C120.001 25.6 119.961 26.0028 120.039 26.3913C120.116 26.7798 120.307 27.1365 120.588 27.4163C120.968 27.7859 121.475 27.995 122.005 28C122.4 27.9989 122.787 27.8807 123.115 27.6603C123.443 27.4398 123.699 27.1271 123.849 26.7615C124 26.3959 124.039 25.994 123.961 25.6063C123.883 25.2187 123.692 24.8629 123.412 24.5837C123.039 24.2104 122.533 24.0004 122.005 24Z" fill="#9BB1E9"/>
<path d="M98 24C97.4696 24 96.9609 24.2107 96.5858 24.5858C96.2107 24.9609 96 25.4696 96 26C96 26.5304 96.2107 27.0391 96.5858 27.4142C96.9609 27.7893 97.4696 28 98 28C98.5304 28 99.0391 27.7893 99.4142 27.4142C99.7893 27.0391 100 26.5304 100 26C100 25.4696 99.7893 24.9609 99.4142 24.5858C99.0391 24.2107 98.5304 24 98 24Z" fill="#9BB1E9"/>
<path d="M110 24C109.47 24 108.961 24.2107 108.586 24.5858C108.211 24.9609 108 25.4696 108 26C108 26.5304 108.211 27.0391 108.586 27.4142C108.961 27.7893 109.47 28 110 28C110.53 28 111.039 27.7893 111.414 27.4142C111.789 27.0391 112 26.5304 112 26C112 25.4696 111.789 24.9609 111.414 24.5858C111.039 24.2107 110.53 24 110 24Z" fill="#9BB1E9"/>
<path d="M85.9952 24C85.7337 23.9992 85.4745 24.0503 85.233 24.1505C84.9914 24.2508 84.7721 24.398 84.588 24.5837C84.308 24.8629 84.117 25.2187 84.0391 25.6063C83.9613 25.994 84.0001 26.3959 84.1507 26.7615C84.3013 27.1271 84.5569 27.4398 84.8852 27.6603C85.2135 27.8807 85.5997 27.9989 85.9952 28C86.525 27.995 87.0325 27.7859 87.412 27.4163C87.6926 27.1365 87.8838 26.7798 87.9613 26.3913C88.0389 26.0028 87.9992 25.6 87.8475 25.2341C87.6957 24.8681 87.4386 24.5555 87.1089 24.3357C86.7791 24.116 86.3915 23.9992 85.9952 24Z" fill="#9BB1E9"/>
<path d="M122.007 34.1043C121.479 34.1043 120.972 34.313 120.599 34.6846C120.225 35.0561 120.016 35.56 120.016 36.0854C120.016 36.6108 120.225 37.1147 120.599 37.4862C120.972 37.8577 121.479 38.0664 122.007 38.0664C122.532 38.066 123.036 37.858 123.407 37.4882C123.599 37.3042 123.752 37.0835 123.857 36.8391C123.962 36.5948 124.016 36.332 124.016 36.0664C124.016 35.8008 123.962 35.538 123.857 35.2937C123.752 35.0494 123.599 34.8286 123.407 34.6446C123.036 34.2748 122.532 34.0668 122.007 34.0664" fill="#9BB1E9"/>
<path d="M98.0156 34.0664C97.4852 34.0664 96.9765 34.2771 96.6014 34.6522C96.2263 35.0273 96.0156 35.536 96.0156 36.0664C96.0156 36.5968 96.2263 37.1055 96.6014 37.4806C96.9765 37.8557 97.4852 38.0664 98.0156 38.0664C98.546 38.0664 99.0548 37.8557 99.4298 37.4806C99.8049 37.1055 100.016 36.5968 100.016 36.0664C100.016 35.536 99.8049 35.0273 99.4298 34.6522C99.0548 34.2771 98.546 34.0664 98.0156 34.0664Z" fill="#9BB1E9"/>
<path d="M110.016 34.0664C109.485 34.0664 108.976 34.2771 108.601 34.6522C108.226 35.0273 108.016 35.536 108.016 36.0664C108.016 36.5968 108.226 37.1055 108.601 37.4806C108.976 37.8557 109.485 38.0664 110.016 38.0664C110.546 38.0664 111.055 37.8557 111.43 37.4806C111.805 37.1055 112.016 36.5968 112.016 36.0664C112.016 35.536 111.805 35.0273 111.43 34.6522C111.055 34.2771 110.546 34.0664 110.016 34.0664Z" fill="#9BB1E9"/>
<path d="M86.0247 34.1035C85.7644 34.1027 85.5066 34.1534 85.2661 34.2526C85.0257 34.3519 84.8076 34.4978 84.6244 34.6817C84.4319 34.8657 84.2788 35.0865 84.1741 35.3308C84.0695 35.5751 84.0156 35.8379 84.0156 36.1035C84.0156 36.3691 84.0695 36.6319 84.1741 36.8762C84.2788 37.1205 84.4319 37.3413 84.6244 37.5253C84.8076 37.7093 85.0257 37.8551 85.2661 37.9544C85.5066 38.0537 85.7644 38.1044 86.0247 38.1035C86.5527 38.1035 87.0591 37.8948 87.4325 37.5233C87.8059 37.1518 88.0156 36.6479 88.0156 36.1225C88.0156 35.5971 87.8059 35.0932 87.4325 34.7217C87.0591 34.3502 86.5527 34.1414 86.0247 34.1414" fill="#9BB1E9"/>
<path d="M169.984 24.0479C169.461 24.0488 168.959 24.256 168.587 24.6245C168.211 25.0006 168 25.5106 168 26.0425C168 26.5744 168.211 27.0844 168.587 27.4605C168.962 27.8366 169.472 28.0479 170.003 28.0479C170.535 28.0479 171.044 27.8366 171.42 27.4605C171.697 27.1842 171.885 26.8318 171.962 26.448C172.038 26.0642 171.999 25.6663 171.85 25.3048C171.7 24.9432 171.446 24.6344 171.121 24.4173C170.796 24.2003 170.413 24.0849 170.022 24.0857" fill="#9BB1E9"/>
<path d="M146 24C145.47 24 144.961 24.2107 144.586 24.5858C144.211 24.9609 144 25.4696 144 26C144 26.5304 144.211 27.0391 144.586 27.4142C144.961 27.7893 145.47 28 146 28C146.53 28 147.039 27.7893 147.414 27.4142C147.789 27.0391 148 26.5304 148 26C148 25.4696 147.789 24.9609 147.414 24.5858C147.039 24.2107 146.53 24 146 24Z" fill="#9BB1E9"/>
<path d="M158 24C157.47 24 156.961 24.2107 156.586 24.5858C156.211 24.9609 156 25.4696 156 26C156 26.5304 156.211 27.0391 156.586 27.4142C156.961 27.7893 157.47 28 158 28C158.53 28 159.039 27.7893 159.414 27.4142C159.789 27.0391 160 26.5304 160 26C160 25.4696 159.789 24.9609 159.414 24.5858C159.039 24.2107 158.53 24 158 24Z" fill="#9BB1E9"/>
<path d="M134.005 24C133.608 23.9992 133.221 24.116 132.891 24.3357C132.561 24.5555 132.304 24.8681 132.153 25.2341C132.001 25.6 131.961 26.0028 132.039 26.3913C132.116 26.7798 132.307 27.1365 132.588 27.4163C132.968 27.7859 133.475 27.995 134.005 28C134.4 27.9989 134.787 27.8807 135.115 27.6603C135.443 27.4398 135.699 27.1271 135.849 26.7615C136 26.3959 136.039 25.994 135.961 25.6063C135.883 25.2187 135.692 24.8629 135.412 24.5837C135.228 24.398 135.009 24.2508 134.767 24.1505C134.525 24.0503 134.266 23.9992 134.005 24Z" fill="#9BB1E9"/>
<path d="M170.027 34.1035C169.499 34.1045 168.992 34.3122 168.616 34.6817C168.426 34.8671 168.275 35.0883 168.172 35.3324C168.069 35.5765 168.016 35.8387 168.016 36.1035C168.016 36.3683 168.069 36.6305 168.172 36.8746C168.275 37.1188 168.426 37.34 168.616 37.5253C168.848 37.7551 169.133 37.9246 169.447 38.0188C169.76 38.113 170.092 38.1289 170.413 38.0652C170.734 38.0015 171.034 37.8602 171.287 37.6537C171.54 37.4471 171.738 37.1818 171.864 36.8811C171.989 36.5805 172.038 36.2537 172.006 35.9297C171.974 35.6058 171.863 35.2947 171.681 35.0238C171.5 34.753 171.254 34.5308 170.965 34.3769C170.677 34.223 170.355 34.1421 170.027 34.1414" fill="#9BB1E9"/>
<path d="M146.016 34.0664C145.485 34.0664 144.976 34.2771 144.601 34.6522C144.226 35.0273 144.016 35.536 144.016 36.0664C144.016 36.5968 144.226 37.1055 144.601 37.4806C144.976 37.8557 145.485 38.0664 146.016 38.0664C146.546 38.0664 147.055 37.8557 147.43 37.4806C147.805 37.1055 148.016 36.5968 148.016 36.0664C148.016 35.536 147.805 35.0273 147.43 34.6522C147.055 34.2771 146.546 34.0664 146.016 34.0664Z" fill="#9BB1E9"/>
<path d="M158.016 34.0664C157.485 34.0664 156.976 34.2771 156.601 34.6522C156.226 35.0273 156.016 35.536 156.016 36.0664C156.016 36.5968 156.226 37.1055 156.601 37.4806C156.976 37.8557 157.485 38.0664 158.016 38.0664C158.546 38.0664 159.055 37.8557 159.43 37.4806C159.805 37.1055 160.016 36.5968 160.016 36.0664C160.016 35.536 159.805 35.0273 159.43 34.6522C159.055 34.2771 158.546 34.0664 158.016 34.0664Z" fill="#9BB1E9"/>
<path d="M134.007 34.1043C133.479 34.1043 132.972 34.313 132.599 34.6846C132.225 35.0561 132.016 35.56 132.016 36.0854C132.016 36.6108 132.225 37.1146 132.599 37.4862C132.972 37.8577 133.479 38.0664 134.007 38.0664C134.267 38.0672 134.525 38.0166 134.765 37.9173C135.006 37.818 135.224 37.6722 135.407 37.4882C135.599 37.3042 135.752 37.0835 135.857 36.8391C135.962 36.5948 136.016 36.332 136.016 36.0664C136.016 35.8008 135.962 35.538 135.857 35.2937C135.752 35.0494 135.599 34.8286 135.407 34.6446C135.224 34.4606 135.006 34.3148 134.765 34.2155C134.525 34.1163 134.267 34.0656 134.007 34.0664" fill="#9BB1E9"/>
<path d="M194.396 526.325C194.396 499.636 172.637 478 145.797 478C118.957 478 97.1982 499.636 97.1982 526.325C97.1983 553.015 118.957 574.651 145.797 574.651C172.637 574.651 194.396 553.015 194.396 526.325Z" fill="#3669E6"/>
<path d="M145.796 547.902C140.041 547.902 134.522 545.629 130.453 541.583C126.384 537.537 124.098 532.049 124.098 526.326C124.098 520.604 126.384 515.116 130.453 511.07C134.522 507.024 140.041 504.75 145.796 504.75C148.648 504.747 151.472 505.303 154.108 506.386C156.744 507.469 159.139 509.057 161.158 511.061C163.176 513.065 164.777 515.444 165.871 518.063C166.964 520.683 167.527 523.491 167.529 526.326C167.527 529.162 166.964 531.97 165.871 534.589C164.777 537.209 163.176 539.588 161.158 541.592C159.139 543.595 156.744 545.184 154.108 546.267C151.472 547.35 148.648 547.905 145.796 547.902Z" fill="#7EA3FF"/>
<path d="M291.593 478L194.396 478L194.396 574.651L291.593 574.651L291.593 478Z" fill="#5987FF"/>
<path d="M97.1977 574.651L1.38811e-05 574.651C1.01996e-05 549.017 10.2404 524.434 28.4685 506.308C46.6966 488.183 71.4192 478 97.1976 478V478L97.1977 574.651Z" fill="#5987FF"/>
<path d="M291.605 478L388.803 478C388.803 503.633 378.563 528.217 360.335 546.342C342.107 564.468 317.384 574.651 291.605 574.651L291.605 478Z" fill="#3669E6"/>
<path d="M388.802 478L485.999 478L485.999 574.651C460.221 574.651 435.498 564.468 417.27 546.342C399.042 528.217 388.802 503.633 388.802 478V478Z" fill="#5987FF"/>
<path d="M97.1977 671.302C71.4192 671.302 46.6966 661.119 28.4685 642.994C10.2404 624.868 3.6815e-06 600.285 0 574.651L97.1976 574.651L97.1977 671.302Z" fill="#3669E6"/>
<path d="M97.1974 629.612C89.9396 629.612 82.7529 628.19 76.0477 625.428C69.3425 622.666 63.2501 618.617 58.1186 613.514C52.9871 608.41 48.917 602.351 46.1406 595.683C43.3642 589.015 41.936 581.868 41.9375 574.651L97.1974 574.651L97.1974 629.612Z" fill="#7EA3FF"/>
<path d="M194.396 574.651L97.1982 574.651L97.1983 671.302L194.396 671.302L194.396 574.651Z" fill="#5987FF"/>
<path d="M166.597 602.295L124.997 602.295L124.997 643.66L166.597 643.66L166.597 602.295Z" fill="#3669E6"/>
<path d="M291.593 574.651L194.396 574.651L194.396 671.302L291.593 671.302L291.593 574.651Z" fill="#7EA3FF"/>
<path d="M291.605 574.651L291.605 671.302L194.36 671.302C194.36 658.606 196.876 646.034 201.764 634.305C206.651 622.576 213.815 611.919 222.845 602.943C231.876 593.968 242.596 586.85 254.394 581.995C266.192 577.141 278.837 574.645 291.605 574.651Z" fill="#3669E6"/>
<path d="M485.999 574.651L485.999 671.302L388.802 671.302C388.802 645.669 399.042 621.085 417.27 602.96C435.498 584.834 460.221 574.651 485.999 574.651Z" fill="#3669E6"/>
<path d="M291.605 574.651C304.37 574.651 317.009 577.151 328.801 582.008C340.594 586.866 351.309 593.985 360.335 602.96C369.36 611.935 376.52 622.589 381.404 634.315C386.289 646.042 388.803 658.61 388.803 671.302L291.605 671.302L291.605 574.651Z" fill="#7EA3FF"/>
<path d="M194.396 671.303L97.1982 671.303L97.1983 767.953L194.396 767.953L194.396 671.303Z" fill="#7EA3FF"/>
<path d="M291.593 671.303L194.396 671.303L194.396 767.953L291.593 767.953L291.593 671.303Z" fill="#3669E6"/>
<path d="M97.1977 719.628C97.1977 692.939 75.4392 671.303 48.5988 671.303C21.7584 671.303 3.10739e-06 692.939 6.94055e-06 719.628C1.07737e-05 746.317 21.7584 767.953 48.5988 767.953C75.4392 767.953 97.1977 746.317 97.1977 719.628Z" fill="#7EA3FF"/>
<path d="M48.5984 741.191C42.8469 741.191 37.3309 738.919 33.2639 734.875C29.1969 730.831 26.9121 725.346 26.9121 719.627C26.9152 713.909 29.201 708.425 33.2673 704.382C37.3336 700.338 42.8478 698.066 48.5984 698.062C54.35 698.062 59.866 700.334 63.933 704.379C68 708.423 70.2848 713.908 70.2848 719.627C70.2848 725.346 68 730.831 63.933 734.875C59.866 738.919 54.35 741.191 48.5984 741.191Z" fill="#3669E6"/>
<path d="M388.803 671.303L291.605 671.303L291.605 767.953L388.803 767.953L388.803 671.303Z" fill="#5987FF"/>
<path d="M194.36 671.303L291.558 671.303L291.558 768C278.79 768 266.147 765.498 254.351 760.638C242.556 755.778 231.839 748.655 222.812 739.675C213.786 730.695 206.628 720.035 201.746 708.304C196.864 696.572 194.354 683.999 194.36 671.303Z" fill="#5987FF"/>
<path d="M291.605 671.303L388.803 671.303C388.809 683.999 386.3 696.572 381.418 708.304C376.536 720.035 369.377 730.695 360.351 739.675C351.325 748.655 340.608 755.778 328.812 760.638C317.017 765.498 304.374 768 291.605 768L291.605 671.303Z" fill="#3669E6"/>
<path d="M291.605 671.303L243.473 671.303C243.473 665.018 244.718 658.795 247.137 652.989C249.556 647.183 253.101 641.908 257.571 637.464C262.041 633.021 267.347 629.496 273.186 627.092C279.026 624.688 285.285 623.452 291.605 623.453L291.605 671.303Z" fill="#5987FF"/>
<path d="M291.605 623.453C304.371 623.453 316.614 628.496 325.64 637.472C334.667 646.447 339.738 658.621 339.738 671.315L291.605 671.315L291.605 623.453Z" fill="#3669E6"/>
<path d="M291.605 719.164C278.839 719.164 266.597 714.122 257.57 705.146C248.544 696.17 243.473 683.996 243.473 671.303L291.605 671.303L291.605 719.164Z" fill="#7EA3FF"/>
<path d="M291.605 719.164L291.605 671.303L339.726 671.303C339.728 677.587 338.484 683.811 336.066 689.618C333.649 695.424 330.105 700.701 325.636 705.145C321.167 709.59 315.862 713.115 310.023 715.521C304.184 717.926 297.926 719.164 291.605 719.164Z" fill="#5987FF"/>
<path d="M485.999 768L388.802 768L388.802 671.303C401.57 671.303 414.213 673.804 426.008 678.664C437.804 683.524 448.521 690.648 457.547 699.627C466.574 708.607 473.732 719.267 478.614 730.999C483.496 742.731 486.006 755.304 485.999 768Z" fill="#5987FF"/>
<path d="M109.319 706.102C110.398 706.099 111.441 705.724 112.273 705.042C113.105 704.36 113.674 703.412 113.882 702.36C114.091 701.308 113.926 700.217 113.417 699.271C112.908 698.326 112.085 697.586 111.089 697.175C110.093 696.765 108.984 696.711 107.952 697.021C106.92 697.332 106.028 697.989 105.428 698.879C104.827 699.77 104.556 700.84 104.659 701.907C104.763 702.974 105.234 703.973 105.995 704.734C106.879 705.606 108.073 706.098 109.319 706.102Z" fill="#5987FF"/>
<path d="M157.87 706.102C159.119 706.102 160.316 705.609 161.199 704.731C162.081 703.853 162.577 702.663 162.577 701.422C162.577 700.18 162.081 698.99 161.199 698.112C160.316 697.234 159.119 696.741 157.87 696.741C156.622 696.741 155.424 697.234 154.542 698.112C153.659 698.99 153.163 700.18 153.163 701.422C153.163 702.663 153.659 703.853 154.542 704.731C155.424 705.609 156.622 706.102 157.87 706.102Z" fill="#5987FF"/>
<path d="M133.583 706.102C134.831 706.102 136.029 705.609 136.911 704.731C137.794 703.853 138.29 702.663 138.29 701.422C138.29 700.18 137.794 698.99 136.911 698.112C136.029 697.234 134.831 696.741 133.583 696.741C132.335 696.741 131.137 697.234 130.255 698.112C129.372 698.99 128.876 700.18 128.876 701.422C128.876 702.663 129.372 703.853 130.255 704.731C131.137 705.609 132.335 706.102 133.583 706.102Z" fill="#5987FF"/>
<path d="M182.159 706.102C183.237 706.096 184.279 705.719 185.109 705.035C185.939 704.352 186.505 703.403 186.712 702.351C186.918 701.3 186.752 700.209 186.242 699.265C185.731 698.321 184.908 697.582 183.912 697.173C182.915 696.764 181.808 696.711 180.776 697.023C179.745 697.334 178.854 697.991 178.254 698.882C177.655 699.772 177.384 700.842 177.487 701.909C177.591 702.975 178.063 703.974 178.823 704.734C179.709 705.61 180.909 706.102 182.159 706.102Z" fill="#5987FF"/>
<path d="M109.319 686.869C110.398 686.866 111.441 686.491 112.273 685.809C113.105 685.126 113.674 684.179 113.882 683.127C114.091 682.075 113.926 680.983 113.417 680.038C112.908 679.093 112.085 678.352 111.089 677.942C110.093 677.532 108.984 677.478 107.952 677.788C106.92 678.099 106.028 678.755 105.428 679.646C104.827 680.537 104.556 681.607 104.659 682.674C104.763 683.741 105.234 684.74 105.995 685.501C106.879 686.373 108.073 686.864 109.319 686.869Z" fill="#5987FF"/>
<path d="M157.87 686.869C159.119 686.869 160.316 686.376 161.199 685.498C162.081 684.62 162.577 683.43 162.577 682.188C162.577 680.947 162.081 679.756 161.199 678.879C160.316 678.001 159.119 677.508 157.87 677.508C156.622 677.508 155.424 678.001 154.542 678.879C153.659 679.756 153.163 680.947 153.163 682.188C153.163 683.43 153.659 684.62 154.542 685.498C155.424 686.376 156.622 686.869 157.87 686.869Z" fill="#5987FF"/>
<path d="M133.583 686.869C134.831 686.869 136.029 686.376 136.911 685.498C137.794 684.62 138.29 683.43 138.29 682.188C138.29 680.947 137.794 679.756 136.911 678.879C136.029 678.001 134.831 677.508 133.583 677.508C132.335 677.508 131.137 678.001 130.255 678.879C129.372 679.756 128.876 680.947 128.876 682.188C128.876 683.43 129.372 684.62 130.255 685.498C131.137 686.376 132.335 686.869 133.583 686.869Z" fill="#5987FF"/>
<path d="M182.159 686.869C183.237 686.863 184.279 686.486 185.109 685.802C185.939 685.118 186.505 684.17 186.712 683.118C186.918 682.066 186.752 680.976 186.242 680.032C185.731 679.088 184.908 678.349 183.912 677.94C182.915 677.531 181.808 677.478 180.776 677.79C179.745 678.101 178.854 678.758 178.254 679.648C177.655 680.539 177.384 681.609 177.487 682.675C177.591 683.742 178.063 684.74 178.823 685.5C179.709 686.377 180.909 686.869 182.159 686.869Z" fill="#5987FF"/>
<path d="M109.319 725.335C110.398 725.331 111.441 724.956 112.273 724.274C113.105 723.592 113.674 722.644 113.882 721.592C114.091 720.54 113.926 719.449 113.417 718.504C112.908 717.558 112.085 716.818 111.089 716.408C110.093 715.997 108.984 715.943 107.952 716.254C106.92 716.564 106.028 717.221 105.428 718.111C104.827 719.002 104.556 720.072 104.659 721.139C104.763 722.207 105.234 723.205 105.995 723.966C106.879 724.838 108.073 725.33 109.319 725.335Z" fill="#5987FF"/>
<path d="M157.87 725.334C159.119 725.334 160.316 724.841 161.199 723.963C162.081 723.086 162.577 721.895 162.577 720.654C162.577 719.412 162.081 718.222 161.199 717.344C160.316 716.466 159.119 715.973 157.87 715.973C156.622 715.973 155.424 716.466 154.542 717.344C153.659 718.222 153.163 719.412 153.163 720.654C153.163 721.895 153.659 723.086 154.542 723.963C155.424 724.841 156.622 725.334 157.87 725.334Z" fill="#5987FF"/>
<path d="M133.583 725.334C134.831 725.334 136.029 724.841 136.911 723.963C137.794 723.086 138.29 721.895 138.29 720.654C138.29 719.412 137.794 718.222 136.911 717.344C136.029 716.466 134.831 715.973 133.583 715.973C132.335 715.973 131.137 716.466 130.255 717.344C129.372 718.222 128.876 719.412 128.876 720.654C128.876 721.895 129.372 723.086 130.255 723.963C131.137 724.841 132.335 725.334 133.583 725.334Z" fill="#5987FF"/>
<path d="M182.159 725.335C183.237 725.328 184.279 724.951 185.109 724.268C185.939 723.584 186.505 722.635 186.712 721.584C186.918 720.532 186.752 719.441 186.242 718.497C185.731 717.553 184.908 716.814 183.912 716.405C182.915 715.997 181.808 715.943 180.776 716.255C179.745 716.566 178.854 717.223 178.254 718.114C177.655 719.004 177.384 720.074 177.487 721.141C177.591 722.207 178.063 723.206 178.823 723.966C179.709 724.842 180.909 725.334 182.159 725.335Z" fill="#5987FF"/>
<path d="M109.319 744.567C110.398 744.563 111.441 744.189 112.273 743.506C113.105 742.824 113.674 741.876 113.882 740.824C114.091 739.772 113.926 738.681 113.417 737.736C112.908 736.791 112.085 736.05 111.089 735.64C110.093 735.23 108.984 735.175 107.952 735.486C106.92 735.796 106.028 736.453 105.428 737.344C104.827 738.234 104.556 739.304 104.659 740.371C104.763 741.439 105.234 742.438 105.995 743.198C106.879 744.07 108.073 744.562 109.319 744.567Z" fill="#5987FF"/>
<path d="M109.319 760.456C110.398 760.453 111.441 760.078 112.273 759.396C113.105 758.713 113.674 757.766 113.882 756.714C114.091 755.662 113.926 754.57 113.417 753.625C112.908 752.68 112.085 751.939 111.089 751.529C110.093 751.119 108.984 751.065 107.952 751.375C106.92 751.686 106.028 752.342 105.428 753.233C104.827 754.124 104.556 755.194 104.659 756.261C104.763 757.328 105.234 758.327 105.995 759.087C106.879 759.96 108.073 760.451 109.319 760.456Z" fill="#5987FF"/>
<path d="M157.87 744.567C159.119 744.567 160.316 744.074 161.199 743.197C162.081 742.319 162.577 741.128 162.577 739.887C162.577 738.646 162.081 737.455 161.199 736.577C160.316 735.699 159.119 735.206 157.87 735.206C156.622 735.206 155.424 735.699 154.542 736.577C153.659 737.455 153.163 738.646 153.163 739.887C153.163 741.128 153.659 742.319 154.542 743.197C155.424 744.074 156.622 744.567 157.87 744.567Z" fill="#5987FF"/>
<path d="M157.87 760.457C159.119 760.457 160.316 759.964 161.199 759.086C162.081 758.208 162.577 757.018 162.577 755.776C162.577 754.535 162.081 753.344 161.199 752.467C160.316 751.589 159.119 751.096 157.87 751.096C156.622 751.096 155.424 751.589 154.542 752.467C153.659 753.344 153.163 754.535 153.163 755.776C153.163 757.018 153.659 758.208 154.542 759.086C155.424 759.964 156.622 760.457 157.87 760.457Z" fill="#5987FF"/>
<path d="M133.583 744.567C134.831 744.567 136.029 744.074 136.911 743.197C137.794 742.319 138.29 741.128 138.29 739.887C138.29 738.646 137.794 737.455 136.911 736.577C136.029 735.699 134.831 735.206 133.583 735.206C132.335 735.206 131.137 735.699 130.255 736.577C129.372 737.455 128.876 738.646 128.876 739.887C128.876 741.128 129.372 742.319 130.255 743.197C131.137 744.074 132.335 744.567 133.583 744.567Z" fill="#5987FF"/>
<path d="M133.583 760.457C134.831 760.457 136.029 759.964 136.911 759.086C137.794 758.208 138.29 757.018 138.29 755.776C138.29 754.535 137.794 753.344 136.911 752.467C136.029 751.589 134.831 751.096 133.583 751.096C132.335 751.096 131.137 751.589 130.255 752.467C129.372 753.344 128.876 754.535 128.876 755.776C128.876 757.018 129.372 758.208 130.255 759.086C131.137 759.964 132.335 760.457 133.583 760.457Z" fill="#5987FF"/>
<path d="M182.159 744.568C183.237 744.562 184.279 744.185 185.109 743.501C185.939 742.817 186.505 741.869 186.712 740.817C186.918 739.765 186.752 738.675 186.242 737.731C185.731 736.787 184.908 736.048 183.912 735.639C182.915 735.23 181.808 735.177 180.776 735.488C179.745 735.8 178.854 736.456 178.254 737.347C177.655 738.238 177.384 739.307 177.487 740.374C177.591 741.441 178.063 742.439 178.823 743.199C179.709 744.075 180.909 744.567 182.159 744.568Z" fill="#5987FF"/>
<path d="M182.159 760.457C183.237 760.451 184.279 760.074 185.109 759.39C185.939 758.707 186.505 757.758 186.712 756.706C186.918 755.654 186.752 754.564 186.242 753.62C185.731 752.676 184.908 751.937 183.912 751.528C182.915 751.119 181.808 751.066 180.776 751.378C179.745 751.689 178.854 752.346 178.254 753.237C177.655 754.127 177.384 755.197 177.487 756.263C177.591 757.33 178.063 758.328 178.823 759.089C179.709 759.965 180.909 760.457 182.159 760.457Z" fill="#5987FF"/>
</g>
<defs>
<clipPath id="clip0_638_19846">
<rect width="486" height="768" fill="white"/>
</clipPath>
</defs>
</svg>
