<svg width="24" height="24" viewBox="0 0 24 24" fill="none" xmlns="http://www.w3.org/2000/svg">
<path d="M6 6L18 18" stroke="#4E5461" stroke-width="1.5" stroke-linecap="round" stroke-linejoin="round"/>
<path d="M15.6 15.9633C14.5179 16.5705 13.2949 17 12 17C7.58172 17 4 12 4 12C4 12 5.67073 9.66769 8.13764 8.18892M18 14.1947C19.2447 13.0543 20 12 20 12C20 12 16.4183 7 12 7C11.73 7 11.4631 7.01867 11.2 7.05373" stroke="#4E5461" stroke-width="1.5" stroke-linecap="round" stroke-linejoin="round"/>
<path d="M13.3229 13.4999C12.9703 13.8111 12.5072 13.9999 12 13.9999C10.8954 13.9999 10 13.1045 10 11.9999C10 11.4604 10.2136 10.9708 10.5609 10.6111" stroke="#4E5461" stroke-width="1.5" stroke-linecap="round" stroke-linejoin="round"/>
</svg>
