<svg width="120" height="27" viewBox="0 0 120 27" fill="none" xmlns="http://www.w3.org/2000/svg">
<g id="ElasticSign">
<g id="Text">
<path id="Vector" d="M28.9964 19.1867H34.6083V21.7737H26.3711V8.05469H34.5131V10.6417H28.9964V13.5619H34.0376V16.1097H28.9964V19.1867Z" fill="#2B313F"/>
<path id="Vector_2" d="M36.3438 21.7738V7.4668H38.7979V21.7738H36.3438Z" fill="#2B313F"/>
<path id="Vector_3" d="M48.2743 11.9736H50.7284V21.7729H48.2743V20.6166C47.5387 21.5704 46.5051 22.0473 45.1735 22.0473C43.9053 22.0473 42.8147 21.5508 41.9013 20.5578C41.001 19.5517 40.5508 18.3235 40.5508 16.8732C40.5508 15.4229 41.001 14.2013 41.9013 13.2083C42.8147 12.2022 43.9053 11.6992 45.1735 11.6992C46.5051 11.6992 47.5387 12.1761 48.2743 13.1299V11.9736ZM43.7468 18.8723C44.2412 19.3819 44.8691 19.6367 45.63 19.6367C46.3909 19.6367 47.0188 19.3819 47.5134 18.8723C48.0206 18.3497 48.2743 17.6833 48.2743 16.8732C48.2743 16.0632 48.0206 15.4033 47.5134 14.8938C47.0188 14.3712 46.3909 14.1098 45.63 14.1098C44.8691 14.1098 44.2412 14.3712 43.7468 14.8938C43.2521 15.4033 43.0049 16.0632 43.0049 16.8732C43.0049 17.6833 43.2521 18.3497 43.7468 18.8723Z" fill="#2B313F"/>
<path id="Vector_4" d="M55.1413 14.7566C55.1413 15.0179 55.306 15.2335 55.6357 15.4033C55.9781 15.5601 56.3903 15.7039 56.8722 15.8345C57.3542 15.9521 57.8361 16.1089 58.318 16.3049C58.7999 16.4878 59.2059 16.8014 59.5356 17.2456C59.878 17.6898 60.0492 18.2451 60.0492 18.9115C60.0492 19.9176 59.6813 20.695 58.9459 21.2437C58.223 21.7794 57.3162 22.0473 56.2256 22.0473C54.2724 22.0473 52.9408 21.2699 52.2305 19.7151L54.3611 18.4803C54.6401 19.3296 55.2617 19.7542 56.2256 19.7542C57.1004 19.7542 57.5381 19.4733 57.5381 18.9115C57.5381 18.6502 57.3669 18.4411 57.0245 18.2843C56.6948 18.1145 56.2888 17.9642 55.8069 17.8336C55.325 17.7029 54.8431 17.5396 54.3611 17.3436C53.8792 17.1476 53.467 16.8406 53.1246 16.4225C52.7949 15.9913 52.6301 15.4556 52.6301 14.8154C52.6301 13.8485 52.9726 13.0907 53.6572 12.5419C54.3549 11.9801 55.2172 11.6992 56.2446 11.6992C57.0182 11.6992 57.7221 11.8821 58.356 12.248C58.9901 12.6008 59.4911 13.1103 59.859 13.7767L57.7663 14.9526C57.4619 14.2862 56.9547 13.9531 56.2446 13.9531C55.9274 13.9531 55.6612 14.0249 55.4455 14.1686C55.2425 14.3124 55.1413 14.5084 55.1413 14.7566Z" fill="#2B313F"/>
<path id="Vector_5" d="M66.79 14.4045H64.6403V18.481C64.6403 18.8207 64.7228 19.069 64.8876 19.2258C65.0525 19.3826 65.2935 19.474 65.6104 19.5001C65.9276 19.5132 66.3208 19.5067 66.79 19.4805V21.7736C65.1033 21.9696 63.9112 21.8062 63.2136 21.2836C62.5287 20.761 62.1862 19.8268 62.1862 18.481V14.4045H60.5312V11.9743H62.1862V9.99482L64.6403 9.23047V11.9743H66.79V14.4045Z" fill="#2B313F"/>
<path id="Vector_6" d="M69.7374 10.7978C69.3314 10.7978 68.9763 10.6476 68.6721 10.3471C68.3803 10.0335 68.2344 9.66765 68.2344 9.24953C68.2344 8.83143 68.3803 8.4656 68.6721 8.15202C68.9763 7.83844 69.3314 7.68164 69.7374 7.68164C70.1558 7.68164 70.511 7.83844 70.8027 8.15202C71.1069 8.4656 71.2591 8.83143 71.2591 9.24953C71.2591 9.66765 71.1069 10.0335 70.8027 10.3471C70.511 10.6476 70.1558 10.7978 69.7374 10.7978ZM68.5198 21.773V11.9737H70.9739V21.773H68.5198Z" fill="#2B313F"/>
<path id="Vector_7" d="M77.7488 22.0473C76.3155 22.0473 75.1172 21.5508 74.1533 20.5578C73.202 19.5648 72.7266 18.3366 72.7266 16.8732C72.7266 15.4099 73.202 14.1817 74.1533 13.1887C75.1172 12.1957 76.3155 11.6992 77.7488 11.6992C78.6746 11.6992 79.518 11.9279 80.2789 12.3852C81.0398 12.8425 81.6169 13.4565 82.0099 14.2274L79.8984 15.5013C79.7082 15.0963 79.4165 14.7762 79.0233 14.541C78.6429 14.3058 78.2117 14.1882 77.7298 14.1882C76.9941 14.1882 76.3855 14.443 75.9033 14.9526C75.4214 15.4491 75.1804 16.0893 75.1804 16.8732C75.1804 17.6441 75.4214 18.2843 75.9033 18.7939C76.3855 19.2904 76.9941 19.5386 77.7298 19.5386C78.2242 19.5386 78.6619 19.4276 79.0423 19.2055C79.4355 18.9703 79.7272 18.6502 79.9174 18.2451L82.0481 19.4994C81.6294 20.2703 81.0398 20.891 80.2789 21.3613C79.518 21.8186 78.6746 22.0473 77.7488 22.0473Z" fill="#2B313F"/>
<path id="Vector_8" d="M88.0236 22.0294C86.7808 22.0294 85.7155 21.7289 84.8279 21.1278C83.9528 20.5268 83.3376 19.7037 82.9824 18.6584L84.5044 17.7569C85.0243 19.4162 86.2102 20.2459 88.0619 20.2459C88.975 20.2459 89.6724 20.0564 90.1543 19.6775C90.6362 19.2856 90.8772 18.7695 90.8772 18.1292C90.8772 17.476 90.6362 16.986 90.1543 16.6593C89.6724 16.3327 88.867 15.9865 87.7384 15.6206C87.1803 15.4377 86.7556 15.294 86.4639 15.1895C86.1722 15.0719 85.8042 14.902 85.3605 14.6799C84.9291 14.4447 84.6059 14.2095 84.3902 13.9744C84.1747 13.7261 83.978 13.406 83.8005 13.014C83.6356 12.622 83.5533 12.1778 83.5533 11.6813C83.5533 10.4923 83.959 9.55159 84.7706 8.85911C85.5823 8.15356 86.5716 7.80078 87.7384 7.80078C88.791 7.80078 89.7041 8.07516 90.4777 8.62391C91.2641 9.17269 91.8538 9.89782 92.247 10.7994L90.7632 11.6813C90.1923 10.2702 89.1842 9.56465 87.7384 9.56465C87.0155 9.56465 86.4321 9.74756 85.9882 10.1134C85.5443 10.4793 85.3223 10.9758 85.3223 11.6029C85.3223 12.2039 85.5315 12.6612 85.9502 12.9748C86.3686 13.2884 87.0915 13.615 88.1189 13.9548C88.4866 14.0723 88.7465 14.1573 88.8987 14.2095C89.051 14.2618 89.2857 14.3532 89.6026 14.4839C89.9323 14.6146 90.1733 14.7191 90.3255 14.7975C90.4777 14.8759 90.6807 14.9869 90.9344 15.1307C91.2006 15.2744 91.3971 15.4116 91.5241 15.5422C91.6508 15.6729 91.7968 15.8362 91.9615 16.0322C92.1392 16.2151 92.266 16.4046 92.3419 16.6005C92.4182 16.7965 92.4814 17.0252 92.5322 17.2865C92.5957 17.5348 92.6274 17.8026 92.6274 18.0901C92.6274 19.2921 92.2025 20.2524 91.3528 20.9711C90.503 21.6766 89.3934 22.0294 88.0236 22.0294Z" fill="#2B313F"/>
<path id="Vector_9" d="M95.3879 10.1915C95.071 10.1915 94.8045 10.0804 94.5891 9.85828C94.3734 9.63618 94.2656 9.36832 94.2656 9.05475C94.2656 8.74117 94.3734 8.47331 94.5891 8.25121C94.8045 8.01601 95.071 7.89844 95.3879 7.89844C95.6924 7.89844 95.9524 8.01601 96.1678 8.25121C96.3835 8.47331 96.4913 8.74117 96.4913 9.05475C96.4913 9.36832 96.3835 9.63618 96.1678 9.85828C95.9524 10.0804 95.6924 10.1915 95.3879 10.1915ZM94.5508 21.7742V11.9749H96.2061V21.7742H94.5508Z" fill="#2B313F"/>
<path id="Vector_10" d="M106.627 11.9735H108.263V21.3612C108.263 22.8116 107.787 23.9353 106.836 24.7322C105.885 25.5422 104.743 25.9473 103.412 25.9473C102.346 25.9473 101.427 25.7382 100.653 25.3202C99.8797 24.915 99.2963 24.3273 98.9031 23.5563L100.349 22.7136C100.869 23.811 101.902 24.3599 103.45 24.3599C104.439 24.3599 105.213 24.0919 105.771 23.5563C106.341 23.0206 106.627 22.2889 106.627 21.3612V19.9698C105.79 21.2763 104.597 21.9296 103.05 21.9296C101.693 21.9296 100.546 21.4331 99.607 20.4401C98.6684 19.4471 98.1992 18.2385 98.1992 16.8144C98.1992 15.3902 98.6684 14.1882 99.607 13.2082C100.546 12.2152 101.693 11.7188 103.05 11.7188C104.61 11.7188 105.802 12.3655 106.627 13.659V11.9735ZM100.825 19.3034C101.471 19.9698 102.277 20.3029 103.24 20.3029C104.204 20.3029 105.01 19.9698 105.657 19.3034C106.303 18.6371 106.627 17.8074 106.627 16.8144C106.627 15.8345 106.303 15.0113 105.657 14.3449C105.01 13.6786 104.204 13.3454 103.24 13.3454C102.277 13.3454 101.471 13.6786 100.825 14.3449C100.178 15.0113 99.8542 15.8345 99.8542 16.8144C99.8542 17.8074 100.178 18.6371 100.825 19.3034Z" fill="#2B313F"/>
<path id="Vector_11" d="M115.507 11.7188C116.622 11.7188 117.516 12.0846 118.189 12.8163C118.861 13.5349 119.197 14.5148 119.197 15.7561V21.7728H117.542V15.8541C117.542 15.057 117.333 14.4429 116.914 14.0118C116.496 13.5675 115.918 13.3454 115.183 13.3454C114.359 13.3454 113.693 13.6133 113.186 14.149C112.678 14.6716 112.425 15.4817 112.425 16.5792V21.7728H110.77V11.9735H112.425V13.3846C113.097 12.274 114.124 11.7188 115.507 11.7188Z" fill="#2B313F"/>
</g>
<g id="Icon">
<path id="Subtract" fill-rule="evenodd" clip-rule="evenodd" d="M1.37097 23.7421H16.5613C17.3185 23.7421 17.9323 23.1411 17.9323 22.3997V7.4664L11.0758 1.06641H1.37097C0.613803 1.06641 0 1.66742 0 2.40881V22.3997C0 23.1411 0.613803 23.7421 1.37097 23.7421ZM5.90491 20.106L5.90415 20.108L5.90402 20.1083C5.76734 20.4672 5.36564 20.6474 5.00663 20.5109C4.64751 20.3743 4.4671 19.9725 4.60367 19.6134L5.25391 19.8607C4.60367 19.6134 4.60374 19.6132 4.60381 19.613L4.60398 19.6126L4.6044 19.6115L4.60551 19.6086L4.6089 19.5998L4.62029 19.5711C4.62992 19.5471 4.64363 19.5137 4.66136 19.472C4.69676 19.3889 4.74842 19.2726 4.81575 19.1342C4.9495 18.8593 5.14948 18.488 5.41215 18.1126C5.90121 17.4136 6.77174 16.467 8.00331 16.4802C8.54156 16.486 8.96529 16.6594 9.30223 16.9394C9.61147 17.1963 9.82183 17.5252 9.97475 17.767C10.3163 18.3072 10.4817 18.5576 10.8831 18.6434C11.4879 18.7726 12.35 18.5739 13.1604 18.267C13.5457 18.1211 13.8853 17.9641 14.1286 17.8434C14.2499 17.7833 14.3462 17.7327 14.4111 17.6977C14.4436 17.6803 14.4681 17.6667 14.4839 17.6579L14.501 17.6483L14.5044 17.6464L14.5045 17.6464L14.5046 17.6463C14.8378 17.4552 15.2629 17.5704 15.4541 17.9035C15.6453 18.2368 15.5302 18.6619 15.1969 18.8532L14.8815 18.3034C15.1969 18.8532 15.1968 18.8532 15.1967 18.8533L15.1964 18.8535L15.1956 18.854L15.1933 18.8553L15.186 18.8594L15.1609 18.8735C15.1396 18.8853 15.1093 18.902 15.0708 18.9228C14.9937 18.9643 14.8836 19.0221 14.7468 19.0899C14.4742 19.2251 14.0918 19.402 13.6532 19.5682C12.8154 19.8855 11.6211 20.2238 10.5924 20.004C9.59787 19.7916 9.14176 19.0602 8.85331 18.5977L8.85307 18.5973C8.8343 18.5672 8.81624 18.5382 8.79879 18.5107C8.63811 18.2566 8.53156 18.108 8.41301 18.0095C8.32215 17.934 8.20722 17.8739 7.98838 17.8715C7.50601 17.8663 7.00556 18.2622 6.55215 18.9102C6.34357 19.2083 6.17943 19.5116 6.06688 19.7429C6.01105 19.8577 5.969 19.9525 5.94149 20.0171C5.92776 20.0493 5.91771 20.0739 5.91145 20.0895L5.90491 20.106Z" fill="#4277FD"/>
<path id="Vector_12" d="M11.0762 1.06641L17.9326 7.46641H11.3047C11.1785 7.46641 11.0762 7.36407 11.0762 7.23783V1.06641Z" fill="#1D48B8"/>
</g>
</g>
</svg>
