<svg width="18" height="14" viewBox="0 0 18 14" fill="none" xmlns="http://www.w3.org/2000/svg">
<path d="M12.0514 6.4H5.94857L6.92468 5.42474L6.92471 5.42471C7.03735 5.31207 7.10063 5.1593 7.10063 5C7.10063 4.8407 7.03735 4.68793 6.92471 4.57529C6.81207 4.46265 6.6593 4.39937 6.5 4.39937C6.3407 4.39937 6.18793 4.46265 6.07529 4.57529L4.07538 6.5752L4.07529 6.57529L4.146 6.646C4.09944 6.69245 4.06249 6.74762 4.03729 6.80837C4.01208 6.86911 3.99911 6.93423 3.99911 7C3.99911 7.06577 4.01208 7.13089 4.03729 7.19163C4.06249 7.25238 4.09944 7.30755 4.146 7.354M12.0514 6.4L13.9246 7.4248L11.9247 9.42471C11.8121 9.53735 11.6593 9.60063 11.5 9.60063C11.3407 9.60063 11.1879 9.53735 11.0753 9.42471C10.9626 9.31207 10.8994 9.1593 10.8994 9C10.8994 8.8407 10.9626 8.68793 11.0753 8.57529L11.0753 8.57526L12.0514 7.6H5.94857L6.92468 8.57526L6.92471 8.57529C6.98048 8.63106 7.02473 8.69728 7.05491 8.77015C7.0851 8.84302 7.10063 8.92112 7.10063 9C7.10063 9.07888 7.0851 9.15698 7.05491 9.22985C7.02473 9.30272 6.98048 9.36894 6.92471 9.42471C6.86894 9.48048 6.80272 9.52473 6.72985 9.55491C6.65698 9.5851 6.57888 9.60063 6.5 9.60063C6.42112 9.60063 6.34302 9.5851 6.27015 9.55491C6.19728 9.52473 6.13106 9.48048 6.07529 9.42471L4.07538 7.4248L4.07529 7.42471L4.146 7.354M12.0514 6.4L11.0753 5.42474L11.0753 5.42471C10.9626 5.31207 10.8994 5.1593 10.8994 5C10.8994 4.8407 10.9626 4.68793 11.0753 4.57529C11.1879 4.46265 11.3407 4.39937 11.5 4.39937C11.6593 4.39937 11.8121 4.46265 11.9247 4.57529L13.9246 6.5752L12.0514 6.4ZM4.146 7.354L6.146 9.354C6.19249 9.40049 6.24768 9.43736 6.30842 9.46252C6.36916 9.48768 6.43426 9.50063 6.5 9.50063C6.56574 9.50063 6.63084 9.48768 6.69158 9.46252C6.75232 9.43736 6.80751 9.40049 6.854 9.354C6.90049 9.30751 6.93736 9.25232 6.96252 9.19158C6.98768 9.13084 7.00063 9.06574 7.00063 9C7.00063 8.93426 6.98768 8.86916 6.96252 8.80842C6.93736 8.74768 6.90049 8.69249 6.854 8.646L4.146 7.354ZM17.1 1.5C17.1 1.34087 17.0368 1.18826 16.9243 1.07574C16.8117 0.963214 16.6591 0.9 16.5 0.9C16.3409 0.9 16.1883 0.963214 16.0757 1.07574C15.9632 1.18826 15.9 1.34087 15.9 1.5V12.5C15.9 12.6591 15.9632 12.8117 16.0757 12.9243C16.1883 13.0368 16.3409 13.1 16.5 13.1C16.6591 13.1 16.8117 13.0368 16.9243 12.9243C17.0368 12.8117 17.1 12.6591 17.1 12.5V1.5ZM2.1 1.5C2.1 1.34087 2.03679 1.18826 1.92426 1.07574C1.81174 0.963214 1.65913 0.9 1.5 0.9C1.34087 0.9 1.18826 0.963214 1.07574 1.07574C0.963214 1.18826 0.9 1.34087 0.9 1.5V12.5C0.9 12.6591 0.963214 12.8117 1.07574 12.9243C1.18826 13.0368 1.34087 13.1 1.5 13.1C1.65913 13.1 1.81174 13.0368 1.92426 12.9243C2.03679 12.8117 2.1 12.6591 2.1 12.5V1.5ZM14.0551 6.77004C14.0248 6.69719 13.9805 6.63101 13.9247 6.57529V7.42471C13.9805 7.36899 14.0248 7.30281 14.0551 7.22996C14.0853 7.15707 14.1009 7.07892 14.1009 7C14.1009 6.92108 14.0853 6.84293 14.0551 6.77004Z" fill="#4E5461" stroke="#4E5461" stroke-width="0.2"/>
</svg>
