<svg width="20" height="20" viewBox="0 0 20 20" fill="none" xmlns="http://www.w3.org/2000/svg">
<g id="User / Users_Group">
<path id="Vector" d="M5.8335 16.6665C5.8335 15.2858 7.69898 14.1665 10.0002 14.1665C12.3013 14.1665 14.1668 15.2858 14.1668 16.6665" stroke="#4277FD" stroke-width="1.5" stroke-linecap="round" stroke-linejoin="round"/>
<path id="Vector_2" d="M15 11.8745C16.4716 12.2603 17.5 13.1413 17.5 14.1665" stroke="#4277FD" stroke-width="1.5" stroke-linecap="round" stroke-linejoin="round"/>
<path id="Vector_3" d="M5 11.8745C3.52841 12.2603 2.5 13.1413 2.5 14.1665" stroke="#4277FD" stroke-width="1.5" stroke-linecap="round" stroke-linejoin="round"/>
<path id="Vector_4" d="M10 11.6665C11.3807 11.6665 12.5 10.5472 12.5 9.1665C12.5 7.78579 11.3807 6.6665 10 6.6665C8.61929 6.6665 7.5 7.78579 7.5 9.1665C7.5 10.5472 8.61929 11.6665 10 11.6665Z" stroke="#4277FD" stroke-width="1.5" stroke-linecap="round" stroke-linejoin="round"/>
<path id="Vector_5" d="M14.9998 8.52993C15.5113 8.07216 15.8332 7.40692 15.8332 6.6665C15.8332 5.28579 14.7139 4.1665 13.3332 4.1665C12.6929 4.1665 12.1088 4.40722 11.6665 4.80308" stroke="#4277FD" stroke-width="1.5" stroke-linecap="round" stroke-linejoin="round"/>
<path id="Vector_6" d="M4.99984 8.52993C4.48838 8.07216 4.1665 7.40692 4.1665 6.6665C4.1665 5.28579 5.28579 4.1665 6.6665 4.1665C7.3068 4.1665 7.89087 4.40722 8.33317 4.80308" stroke="#4277FD" stroke-width="1.5" stroke-linecap="round" stroke-linejoin="round"/>
</g>
</svg>
