<svg width="20" height="20" viewBox="0 0 20 20" fill="none" xmlns="http://www.w3.org/2000/svg">
<path d="M12.0215 2.77165C12.9761 1.817 14.5239 1.817 15.4786 2.77166C16.4332 3.72631 16.4332 5.27411 15.4786 6.22876L14.2071 7.50023L14.2929 7.58603C15.0739 8.36708 15.0739 9.63341 14.2929 10.4145L12.8536 11.8538C12.6583 12.0491 12.3417 12.0491 12.1464 11.8538C11.9512 11.6585 11.9512 11.342 12.1464 11.1467L13.5858 9.70735C13.9763 9.31683 13.9763 8.68366 13.5858 8.29314L13.5 8.20734L6.85356 14.8538C6.78948 14.9178 6.70919 14.9633 6.62128 14.9853L2.62128 15.9853C2.44424 16.0295 2.25714 15.9738 2.13315 15.8399C2.00916 15.706 1.96796 15.5152 2.02567 15.3421L3.27567 11.5921C3.30022 11.5185 3.34157 11.4515 3.39646 11.3967L12.0215 2.77165ZM14.7715 3.47876C14.2073 2.91463 13.2927 2.91463 12.7286 3.47876L4.18703 12.0203L3.26238 14.7942L6.24439 14.0487L14.7715 5.52165C15.3356 4.95752 15.3356 4.04289 14.7715 3.47876Z" fill="#4E5461" stroke="#4E5461"/>
<path d="M3.2168 16.8671C3.23368 16.8796 3.25074 16.8921 3.26797 16.9047C4.01069 17.4448 5.1118 18.0003 6.49956 18.0003C7.24256 18.0003 7.92315 17.7403 8.52823 17.3957C9.13109 17.0524 9.69162 16.6057 10.1899 16.2009L10.3069 16.1057C10.7707 15.7283 11.1682 15.4049 11.5347 15.1889C11.9379 14.9513 12.1788 14.9205 12.3415 14.9747C12.6066 15.0631 12.7581 15.2675 13.0206 16.1439C13.108 16.4356 13.2639 16.7547 13.492 17.0109C13.7205 17.2677 14.0605 17.5004 14.4996 17.5004C14.9738 17.5004 15.4428 17.2722 15.805 17.0586C16.0436 16.9178 16.3001 16.7415 16.508 16.5985C16.6102 16.5282 16.7008 16.4659 16.7717 16.4199C17.0397 16.2461 17.2655 16.1336 17.4201 16.0658C17.4973 16.032 17.5566 16.0093 17.5944 15.9958C17.6132 15.989 17.6267 15.9846 17.6342 15.9821L17.6411 15.98C17.9049 15.9022 18.0565 15.6257 17.9798 15.3612C17.903 15.096 17.6247 14.9436 17.3595 15.0205L17.3583 15.0208L17.3557 15.0216L17.3485 15.0237L17.3271 15.0305C17.3097 15.0361 17.2862 15.044 17.2571 15.0544C17.1989 15.0753 17.118 15.1064 17.0185 15.15C16.8196 15.2372 16.5454 15.3748 16.2275 15.5809C16.1103 15.6569 15.9982 15.7344 15.8852 15.8125C15.7003 15.9403 15.5127 16.07 15.297 16.1972C14.9555 16.3986 14.6865 16.5004 14.4996 16.5004C14.4387 16.5004 14.3497 16.4705 14.2389 16.346C14.1275 16.2208 14.0334 16.04 13.9786 15.8569C13.7386 15.0559 13.4791 14.2999 12.6577 14.0261C12.0703 13.8302 11.4988 14.0494 11.027 14.3274C10.5915 14.584 10.1344 14.9564 9.68944 15.3188L9.55927 15.4248C9.0575 15.8324 8.55554 16.2294 8.03339 16.5267C7.51347 16.8228 7.00657 17.0003 6.49956 17.0003C5.75356 17.0003 5.10354 16.8003 4.56556 16.5299L3.2168 16.8671ZM17.4996 15.5004C17.3604 15.0202 17.3596 15.0204 17.3595 15.0205L17.4996 15.5004Z" fill="#4E5461"/>
<path d="M17.3595 15.0205C17.6247 14.9436 17.903 15.096 17.9798 15.3612C18.0565 15.6257 17.9049 15.9022 17.6411 15.98L17.6342 15.9821C17.6267 15.9846 17.6132 15.989 17.5944 15.9958C17.5566 16.0093 17.4973 16.032 17.4201 16.0658C17.2655 16.1336 17.0397 16.2461 16.7717 16.4199C16.7008 16.4659 16.6102 16.5282 16.508 16.5985C16.3001 16.7415 16.0436 16.9178 15.805 17.0586C15.4428 17.2722 14.9738 17.5004 14.4996 17.5004C14.0605 17.5004 13.7205 17.2677 13.492 17.0109C13.2639 16.7547 13.108 16.4356 13.0206 16.1439C12.7581 15.2675 12.6066 15.0631 12.3415 14.9747C12.1788 14.9205 11.9379 14.9513 11.5347 15.1889C11.1682 15.4049 10.7707 15.7283 10.3069 16.1057L10.1899 16.2009C9.69162 16.6057 9.13109 17.0524 8.52823 17.3957C7.92315 17.7403 7.24256 18.0003 6.49956 18.0003C5.1118 18.0003 4.01069 17.4448 3.26797 16.9047C3.25074 16.8921 3.23368 16.8796 3.2168 16.8671L4.56556 16.5299C5.10354 16.8003 5.75356 17.0003 6.49956 17.0003C7.00657 17.0003 7.51347 16.8228 8.03339 16.5267C8.55554 16.2294 9.0575 15.8324 9.55927 15.4248L9.68944 15.3188C10.1344 14.9564 10.5915 14.584 11.027 14.3274C11.4988 14.0494 12.0703 13.8302 12.6577 14.0261C13.4791 14.2999 13.7386 15.0559 13.9786 15.8569C14.0334 16.04 14.1275 16.2208 14.2389 16.346C14.3497 16.4705 14.4387 16.5004 14.4996 16.5004C14.6865 16.5004 14.9555 16.3986 15.297 16.1972C15.5127 16.07 15.7003 15.9403 15.8852 15.8125C15.9982 15.7344 16.1103 15.6569 16.2275 15.5809C16.5454 15.3748 16.8196 15.2372 17.0185 15.15C17.118 15.1064 17.1989 15.0753 17.2571 15.0544C17.2862 15.044 17.3097 15.0361 17.3271 15.0305L17.3485 15.0237L17.3557 15.0216L17.3583 15.0208L17.3595 15.0205ZM17.3595 15.0205C17.3596 15.0204 17.3604 15.0202 17.4996 15.5004L17.3595 15.0205Z" stroke="#4E5461"/>
</svg>
