<svg width="54" height="54" viewBox="0 0 54 54" fill="none" xmlns="http://www.w3.org/2000/svg">
<g clip-path="url(#clip0_2986_53606)">
<path d="M13.3408 27.0041L25.1369 40.6315L24.0013 41.6145C23.7001 41.8752 23.3077 42.0056 22.9104 41.977C22.5131 41.9483 22.1434 41.7631 21.8827 41.4619L12.0526 30.1057C11.7919 29.8045 11.6615 29.4121 11.6901 29.0148C11.7187 28.6175 11.904 28.2478 12.2052 27.9871L13.3408 27.0041Z" fill="#9BB1E9"/>
<path d="M28.3913 39.8011L27.2556 40.7841C26.9545 41.0448 26.562 41.1752 26.1647 41.1466C25.7674 41.118 25.3977 40.9327 25.137 40.6315L13.2721 26.9246C13.0437 26.62 12.9394 26.2399 12.9806 25.8614C13.0217 25.4828 13.205 25.134 13.4935 24.8855L14.6291 23.9025C15.2315 23.3811 16.0163 23.1203 16.811 23.1775C17.6056 23.2348 18.345 23.6053 18.8664 24.2077L20.6948 26.3199C20.906 26.583 21.1996 26.7673 21.5283 26.8431C21.857 26.9189 22.2017 26.8819 22.5068 26.738C23.6265 26.2016 24.6098 25.418 25.3825 24.4463C26.1553 23.4745 26.6973 22.34 26.9678 21.1283C27.0181 20.9384 27.0569 20.7456 27.0839 20.551C27.3748 19.434 27.9812 18.4244 28.8308 17.643C29.6804 16.8616 30.7371 16.3415 31.8745 16.1448C33.0119 15.9482 34.1818 16.0834 35.2444 16.5342C36.307 16.985 37.2172 17.7324 37.8662 18.687C38.4405 19.5449 38.7841 20.5364 38.8637 21.5657C38.9433 22.5951 38.7563 23.6276 38.3207 24.5636C37.8852 25.4996 37.2158 26.3077 36.377 26.9097C35.5383 27.5117 34.5586 27.8875 33.5324 28.0007C32.1914 28.0109 30.8731 28.348 29.6918 28.9829C28.5105 29.6177 27.5019 30.5311 26.7534 31.6438C26.5672 31.9251 26.4812 32.2609 26.5091 32.5971C26.537 32.9333 26.6773 33.2503 26.9074 33.497L28.6965 35.5638C29.2179 36.1662 29.4787 36.951 29.4214 37.7457C29.3642 38.5403 28.9936 39.2797 28.3913 39.8011Z" fill="white"/>
<path d="M21.3156 41.9534L11.4855 30.5972C11.1076 30.1557 10.9136 29.586 10.9435 29.0057C10.9734 28.4253 11.225 27.8786 11.6463 27.4783L12.7819 26.4953C12.9123 26.3482 13.0952 26.2581 13.2913 26.2443C13.4874 26.2306 13.681 26.2943 13.8307 26.4217C13.957 26.5729 14.0215 26.7662 14.0113 26.963C14.001 27.1597 13.9169 27.3453 13.7756 27.4826L12.64 28.4656C12.5061 28.6012 12.4275 28.7819 12.4197 28.9723C12.4119 29.1627 12.4754 29.3492 12.5977 29.4954L22.4278 40.8515C22.5582 41.0021 22.743 41.0948 22.9417 41.1091C23.1403 41.1234 23.3365 41.0582 23.4871 40.9278L24.6227 39.9448C24.7733 39.8145 24.9695 39.7493 25.1682 39.7636C25.3668 39.7779 25.5517 39.8705 25.682 40.0211C25.8124 40.1717 25.8776 40.3679 25.8633 40.5666C25.849 40.7653 25.7563 40.9501 25.6057 41.0805L24.4701 42.0635C24.0347 42.462 23.4603 42.6738 22.8703 42.6532C22.2804 42.6326 21.7221 42.3813 21.3156 41.9534Z" fill="#222732"/>
<path d="M24.5696 41.123L12.6654 27.3707C12.3249 26.9135 12.1704 26.3444 12.233 25.7778C12.2955 25.2113 12.5705 24.6895 13.0024 24.3177L14.138 23.3347C14.891 22.6829 15.872 22.3569 16.8653 22.4285C17.8586 22.5 18.7828 22.9632 19.4346 23.7162L21.263 25.8284C21.37 25.9533 21.5144 26.0404 21.6747 26.0769C21.8351 26.1134 22.003 26.0973 22.1535 26.031C23.1679 25.54 24.0587 24.8269 24.7601 23.9448C25.4614 23.0626 25.9551 22.0339 26.2048 20.9349L26.3163 20.4212C26.6397 19.0572 27.3837 17.8294 28.4432 16.9114C29.2435 16.2152 30.1965 15.717 31.2251 15.4574C32.2536 15.1977 33.3288 15.1838 34.3637 15.4168C35.3987 15.6497 36.3642 16.123 37.1823 16.7983C38.0004 17.4737 38.648 18.3321 39.0728 19.3041C39.4976 20.2762 39.6876 21.3346 39.6275 22.3937C39.5674 23.4528 39.2588 24.4829 38.7267 25.4006C38.1947 26.3183 37.4541 27.098 36.5648 27.6764C35.6756 28.2548 34.6627 28.6158 33.608 28.7301C32.3773 28.7532 31.1703 29.0731 30.0896 29.6626C29.009 30.2522 28.0867 31.0939 27.4012 32.1164C27.3179 32.256 27.2811 32.4185 27.2962 32.5804C27.3114 32.7423 27.3776 32.8951 27.4854 33.0169L29.2647 35.0723C29.9164 35.8253 30.2424 36.8063 30.1709 37.7996C30.0993 38.7929 29.6361 39.7171 28.8831 40.3689L27.7475 41.3519C27.2957 41.743 26.7071 41.9385 26.1111 41.8956C25.5152 41.8527 24.9607 41.5748 24.5696 41.123ZM13.9091 26.5126L25.7052 40.14C25.8356 40.2906 26.0204 40.3832 26.2191 40.3975C26.4177 40.4118 26.6139 40.3466 26.7645 40.2163L27.9001 39.2333C28.3519 38.8422 28.6298 38.2877 28.6728 37.6917C28.7157 37.0957 28.5201 36.5071 28.129 36.0553L26.3006 33.9431C25.9786 33.5694 25.7872 33.1009 25.7554 32.6086C25.7236 32.1164 25.8532 31.6271 26.1245 31.2151C26.9417 30.0037 28.0412 29.0091 29.3283 28.3171C30.6155 27.6252 32.0516 27.2566 33.5128 27.2432C34.4111 27.1401 35.2676 26.8071 35.9996 26.2764C36.7316 25.7456 37.3143 25.035 37.6914 24.2133C38.0686 23.3915 38.2274 22.4864 38.1525 21.5853C38.0776 20.6843 37.7716 19.8177 37.2641 19.0695C36.8511 18.4486 36.3101 17.9233 35.6774 17.5287C35.0446 17.1342 34.3348 16.8796 33.5955 16.7821C32.3216 16.6058 31.0273 16.9026 29.9575 17.6164C28.8877 18.3301 28.1166 19.4112 27.7902 20.6551C27.7636 20.8768 27.706 21.0856 27.671 21.2748C27.3891 22.6004 26.8084 23.8442 25.9732 24.9115C25.1379 25.9788 24.0701 26.8413 22.851 27.4335C22.3928 27.6487 21.8756 27.7044 21.382 27.5917C20.8884 27.4789 20.4468 27.2043 20.1274 26.8114L18.299 24.6992C17.9079 24.2474 17.3534 23.9695 16.7574 23.9266C16.1614 23.8836 15.5728 24.0792 15.121 24.4703L13.9854 25.4533C13.8433 25.5758 13.7534 25.748 13.734 25.9346C13.7146 26.1212 13.7673 26.3082 13.8811 26.4573L13.9091 26.5126Z" fill="#222732"/>
</g>
<defs>
<clipPath id="clip0_2986_53606">
<rect width="37.5493" height="37.5493" fill="white" transform="translate(29.0967 0.453979) rotate(49.12)"/>
</clipPath>
</defs>
</svg>
