<svg width="64" height="64" viewBox="0 0 64 64" fill="none" xmlns="http://www.w3.org/2000/svg">
<path fill-rule="evenodd" clip-rule="evenodd" d="M32.0139 0.0807495C49.6495 0.0807495 63.9516 14.3828 63.9516 32.0184C63.9516 49.6541 49.6495 63.9561 32.0139 63.9561C14.3783 63.9561 0.0761719 49.6541 0.0761719 32.0184C0.0761719 14.3828 14.3783 0.0807495 32.0139 0.0807495ZM25.3816 42.392L17.5625 34.5664C16.2304 33.2335 16.2301 31.06 17.5625 29.7273C18.8951 28.395 21.0784 28.4033 22.4013 29.7273L27.9138 35.2441L41.6269 21.531C42.9595 20.1983 45.1334 20.1983 46.4657 21.531C47.7984 22.8634 47.7965 25.0391 46.4657 26.3699L30.3293 42.5063C28.9986 43.8371 26.8228 43.839 25.4904 42.5063C25.453 42.4689 25.4169 42.4308 25.3816 42.392Z" fill="#54C093"/>
</svg>
