<svg width="17" height="18" viewBox="0 0 17 18" fill="none" xmlns="http://www.w3.org/2000/svg">
<g clip-path="url(#clip0_2884_24563)">
<path d="M14.4244 9.50075C14.5572 9.36792 14.6318 9.18778 14.6318 8.99996C14.6318 8.81213 14.5572 8.632 14.4244 8.49917L10.4174 4.49212C10.3521 4.42447 10.2739 4.37051 10.1875 4.33339C10.1011 4.29626 10.0081 4.27672 9.91406 4.27591C9.82001 4.27509 9.72674 4.29301 9.63969 4.32863C9.55264 4.36424 9.47355 4.41684 9.40704 4.48334C9.34053 4.54985 9.28794 4.62894 9.25232 4.71599C9.21671 4.80304 9.19878 4.89632 9.1996 4.99037C9.20042 5.08442 9.21996 5.17737 9.25708 5.26379C9.29421 5.35021 9.34817 5.42837 9.41582 5.49371L12.2137 8.29162L2.12495 8.29162C1.93708 8.29162 1.75692 8.36625 1.62408 8.49909C1.49124 8.63193 1.41661 8.8121 1.41661 8.99996C1.41661 9.18782 1.49124 9.36799 1.62408 9.50082C1.75692 9.63366 1.93708 9.70829 2.12495 9.70829L12.2137 9.70829L9.41582 12.5062C9.28679 12.6398 9.2154 12.8187 9.21701 13.0044C9.21862 13.1902 9.29312 13.3678 9.42445 13.4992C9.55578 13.6305 9.73344 13.705 9.91916 13.7066C10.1049 13.7082 10.2838 13.6368 10.4174 13.5078L14.4244 9.50075Z" fill="#4277FD"/>
</g>
<defs>
<clipPath id="clip0_2884_24563">
<rect width="17" height="17" fill="white" transform="translate(17 0.5) rotate(90)"/>
</clipPath>
</defs>
</svg>
