<svg width="462" height="240" viewBox="0 0 462 240" fill="none" xmlns="http://www.w3.org/2000/svg">
<path d="M0.5 13C0.5 8.58173 4.08172 5 8.5 5H453.5C457.918 5 461.5 8.58172 461.5 13V234H0.5V13Z" fill="#EEF2FB"/>
<g filter="url(#filter0_d_4890_17528)">
<rect width="207" height="189" transform="translate(127.5 5)" fill="white"/>
<rect x="139.5" y="24.5" width="173" height="2" fill="#E8EBF4"/>
<rect x="139.5" y="44.5" width="173" height="2" fill="#E8EBF4"/>
<rect x="139.5" y="64.5" width="173" height="2" fill="#E8EBF4"/>
<rect x="139.5" y="84.5" width="173" height="2" fill="#E8EBF4"/>
<rect x="139.5" y="104.5" width="71" height="2" fill="#E8EBF4"/>
<rect x="249.2" y="121.2" width="63.6" height="35.6" fill="#F0F5FF" stroke="#4277FD" stroke-width="0.6" stroke-dasharray="2 2"/>
<g filter="url(#filter1_d_4890_17528)">
<rect x="90" y="137" width="118" height="79" fill="#F0F5FF" shape-rendering="crispEdges"/>
<rect x="89.7461" y="136.746" width="118.508" height="79.5079" stroke="#4277FD" stroke-width="0.507872" shape-rendering="crispEdges"/>
<rect x="100" y="145.326" width="97.0363" height="46.7645" fill="white"/>
<path d="M120.304 172.66C120.585 174.104 120.365 176.07 122.268 175.26C124.374 174.364 128.039 172.181 128.538 169.771C129.347 165.862 128.034 161.455 125.273 158.618C123.426 156.72 122.195 155.603 121.604 158.676C120.872 162.482 122.846 168.442 126.544 170.291C130.807 172.422 133.582 159.351 136.021 165.206C136.682 166.791 139.688 174.881 142.175 172.082C142.99 171.166 147.302 163.304 148.099 163.645C149.907 164.42 150.601 168.62 153.819 167.228C157.559 165.611 158.813 161.843 159.309 158.127C159.746 154.853 160.841 155.784 162.661 157.925C166.86 162.865 169.428 174.507 161.332 177.225C149.373 181.24 135.363 179.914 122.962 181.732C120.51 182.092 117.817 182.388 115.45 183.177C114.508 183.491 114.88 183.583 115.71 183.293C122.769 180.822 131.118 180.501 138.477 179.45C150.712 177.702 162.727 176.057 174.622 172.602C177.604 171.736 181.02 170.721 183.175 168.297C183.408 168.035 183.752 167.445 183.752 167.979" stroke="#4277FD" stroke-width="1.75367" stroke-linecap="round"/>
<path d="M104.318 198.959C104.28 198.639 104.126 198.391 103.857 198.214C103.588 198.037 103.257 197.949 102.866 197.949C102.58 197.949 102.329 197.995 102.115 198.088C101.902 198.18 101.736 198.308 101.616 198.47C101.498 198.632 101.439 198.816 101.439 199.022C101.439 199.194 101.48 199.343 101.562 199.467C101.646 199.589 101.754 199.691 101.884 199.773C102.015 199.853 102.151 199.919 102.295 199.972C102.438 200.022 102.569 200.063 102.689 200.095L103.346 200.272C103.514 200.316 103.701 200.377 103.907 200.455C104.116 200.533 104.314 200.639 104.504 200.774C104.695 200.906 104.853 201.077 104.977 201.285C105.101 201.493 105.163 201.749 105.163 202.052C105.163 202.401 105.072 202.717 104.889 202.999C104.708 203.281 104.443 203.505 104.094 203.671C103.746 203.837 103.324 203.92 102.828 203.92C102.365 203.92 101.964 203.846 101.625 203.696C101.289 203.547 101.024 203.338 100.83 203.071C100.639 202.804 100.53 202.494 100.505 202.14H101.313C101.334 202.384 101.416 202.586 101.559 202.746C101.704 202.904 101.887 203.022 102.108 203.1C102.331 203.175 102.571 203.213 102.828 203.213C103.127 203.213 103.395 203.165 103.633 203.068C103.871 202.969 104.059 202.832 104.198 202.658C104.337 202.481 104.406 202.275 104.406 202.039C104.406 201.825 104.346 201.65 104.226 201.515C104.106 201.381 103.948 201.271 103.753 201.187C103.557 201.103 103.346 201.029 103.118 200.966L102.323 200.739C101.818 200.594 101.418 200.386 101.124 200.117C100.829 199.848 100.682 199.495 100.682 199.06C100.682 198.698 100.78 198.382 100.975 198.113C101.173 197.841 101.438 197.631 101.771 197.482C102.105 197.33 102.479 197.254 102.891 197.254C103.308 197.254 103.678 197.329 104.002 197.479C104.326 197.626 104.583 197.828 104.772 198.085C104.964 198.341 105.065 198.633 105.075 198.959H104.318ZM106.349 203.807V198.959H107.094V203.807H106.349ZM106.728 198.151C106.583 198.151 106.458 198.101 106.353 198.002C106.249 197.904 106.198 197.785 106.198 197.646C106.198 197.507 106.249 197.388 106.353 197.289C106.458 197.19 106.583 197.141 106.728 197.141C106.873 197.141 106.997 197.19 107.101 197.289C107.206 197.388 107.258 197.507 107.258 197.646C107.258 197.785 107.206 197.904 107.101 198.002C106.997 198.101 106.873 198.151 106.728 198.151ZM110.415 205.726C110.056 205.726 109.746 205.679 109.487 205.587C109.229 205.496 109.013 205.376 108.84 205.227C108.67 205.08 108.534 204.922 108.433 204.753L109.027 204.337C109.094 204.425 109.179 204.526 109.282 204.64C109.385 204.756 109.526 204.856 109.705 204.94C109.886 205.026 110.123 205.069 110.415 205.069C110.807 205.069 111.13 204.974 111.384 204.785C111.639 204.596 111.766 204.299 111.766 203.895V202.91H111.703C111.648 202.999 111.571 203.108 111.47 203.239C111.371 203.367 111.228 203.482 111.04 203.583C110.855 203.681 110.605 203.731 110.289 203.731C109.898 203.731 109.546 203.638 109.235 203.453C108.926 203.268 108.681 202.999 108.5 202.645C108.321 202.292 108.231 201.862 108.231 201.357C108.231 200.861 108.319 200.428 108.493 200.06C108.668 199.69 108.911 199.404 109.222 199.202C109.534 198.998 109.894 198.896 110.302 198.896C110.617 198.896 110.868 198.948 111.053 199.053C111.24 199.157 111.383 199.274 111.482 199.407C111.583 199.537 111.661 199.645 111.716 199.729H111.791V198.959H112.511V203.946C112.511 204.362 112.416 204.701 112.227 204.962C112.04 205.225 111.787 205.417 111.47 205.539C111.154 205.664 110.803 205.726 110.415 205.726ZM110.39 203.062C110.689 203.062 110.941 202.993 111.148 202.857C111.354 202.72 111.511 202.523 111.618 202.266C111.725 202.01 111.779 201.703 111.779 201.345C111.779 200.996 111.726 200.687 111.621 200.42C111.516 200.153 111.36 199.943 111.154 199.792C110.948 199.641 110.693 199.565 110.39 199.565C110.074 199.565 109.811 199.645 109.601 199.805C109.393 199.965 109.236 200.179 109.131 200.448C109.028 200.718 108.976 201.017 108.976 201.345C108.976 201.681 109.029 201.979 109.134 202.238C109.241 202.495 109.399 202.697 109.607 202.844C109.818 202.989 110.079 203.062 110.39 203.062ZM114.619 200.89V203.807H113.875V198.959H114.594V199.716H114.657C114.771 199.47 114.943 199.272 115.175 199.123C115.406 198.971 115.705 198.896 116.071 198.896C116.399 198.896 116.687 198.963 116.933 199.098C117.179 199.23 117.37 199.432 117.507 199.704C117.644 199.973 117.712 200.314 117.712 200.726V203.807H116.968V200.777C116.968 200.396 116.869 200.099 116.671 199.887C116.473 199.672 116.202 199.565 115.857 199.565C115.619 199.565 115.406 199.616 115.219 199.719C115.034 199.823 114.888 199.973 114.78 200.171C114.673 200.369 114.619 200.608 114.619 200.89ZM121.106 203.908C120.639 203.908 120.236 203.805 119.897 203.598C119.561 203.39 119.301 203.1 119.118 202.727C118.937 202.353 118.846 201.917 118.846 201.421C118.846 200.924 118.937 200.486 119.118 200.108C119.301 199.727 119.555 199.43 119.881 199.218C120.21 199.003 120.593 198.896 121.03 198.896C121.283 198.896 121.532 198.938 121.778 199.022C122.025 199.106 122.249 199.243 122.451 199.432C122.653 199.619 122.814 199.868 122.933 200.177C123.053 200.486 123.113 200.867 123.113 201.32V201.635H119.376V200.991H122.356C122.356 200.718 122.301 200.474 122.192 200.259C122.084 200.044 121.931 199.875 121.731 199.751C121.533 199.627 121.3 199.565 121.03 199.565C120.734 199.565 120.477 199.638 120.26 199.786C120.046 199.931 119.88 200.12 119.765 200.354C119.649 200.587 119.591 200.838 119.591 201.105V201.534C119.591 201.9 119.654 202.211 119.78 202.465C119.909 202.718 120.087 202.91 120.314 203.043C120.541 203.173 120.805 203.239 121.106 203.239C121.302 203.239 121.478 203.211 121.636 203.156C121.796 203.1 121.934 203.015 122.05 202.904C122.165 202.79 122.255 202.649 122.318 202.481L123.038 202.683C122.962 202.927 122.835 203.142 122.656 203.327C122.477 203.51 122.256 203.653 121.993 203.756C121.73 203.857 121.434 203.908 121.106 203.908ZM126.077 203.908C125.673 203.908 125.316 203.806 125.007 203.601C124.698 203.395 124.456 203.105 124.281 202.73C124.107 202.354 124.019 201.909 124.019 201.395C124.019 200.886 124.107 200.444 124.281 200.07C124.456 199.695 124.699 199.406 125.01 199.202C125.322 198.998 125.681 198.896 126.09 198.896C126.405 198.896 126.655 198.948 126.838 199.053C127.023 199.157 127.164 199.274 127.261 199.407C127.359 199.537 127.436 199.645 127.491 199.729H127.554V197.343H128.299V203.807H127.579V203.062H127.491C127.436 203.15 127.358 203.262 127.257 203.396C127.156 203.529 127.012 203.648 126.825 203.753C126.638 203.856 126.388 203.908 126.077 203.908ZM126.178 203.239C126.477 203.239 126.729 203.161 126.936 203.005C127.142 202.847 127.298 202.629 127.406 202.352C127.513 202.072 127.567 201.749 127.567 201.383C127.567 201.021 127.514 200.704 127.409 200.433C127.304 200.159 127.148 199.947 126.942 199.795C126.736 199.642 126.481 199.565 126.178 199.565C125.862 199.565 125.599 199.646 125.389 199.808C125.181 199.968 125.024 200.185 124.919 200.461C124.816 200.735 124.764 201.042 124.764 201.383C124.764 201.728 124.817 202.041 124.922 202.323C125.029 202.603 125.187 202.826 125.395 202.992C125.606 203.156 125.867 203.239 126.178 203.239ZM136.23 198.959L134.438 203.807H133.68L131.888 198.959H132.696L134.034 202.822H134.084L135.422 198.959H136.23ZM137.214 203.807V198.959H137.958V203.807H137.214ZM137.592 198.151C137.447 198.151 137.322 198.101 137.217 198.002C137.114 197.904 137.062 197.785 137.062 197.646C137.062 197.507 137.114 197.388 137.217 197.289C137.322 197.19 137.447 197.141 137.592 197.141C137.737 197.141 137.862 197.19 137.965 197.289C138.07 197.388 138.123 197.507 138.123 197.646C138.123 197.785 138.07 197.904 137.965 198.002C137.862 198.101 137.737 198.151 137.592 198.151ZM140.749 203.92C140.442 203.92 140.163 203.862 139.913 203.747C139.662 203.629 139.464 203.459 139.316 203.239C139.169 203.015 139.095 202.746 139.095 202.431C139.095 202.153 139.15 201.928 139.26 201.755C139.369 201.58 139.515 201.444 139.698 201.345C139.881 201.246 140.083 201.172 140.304 201.124C140.527 201.073 140.751 201.033 140.977 201.004C141.271 200.966 141.51 200.938 141.693 200.919C141.878 200.898 142.013 200.863 142.097 200.815C142.183 200.766 142.226 200.682 142.226 200.562V200.537C142.226 200.225 142.141 199.983 141.971 199.811C141.802 199.638 141.547 199.552 141.204 199.552C140.848 199.552 140.569 199.63 140.367 199.786C140.165 199.941 140.023 200.108 139.941 200.284L139.234 200.032C139.361 199.737 139.529 199.508 139.739 199.344C139.952 199.178 140.183 199.062 140.434 198.997C140.686 198.929 140.934 198.896 141.178 198.896C141.334 198.896 141.513 198.915 141.715 198.952C141.919 198.988 142.116 199.063 142.305 199.177C142.497 199.29 142.656 199.462 142.782 199.691C142.908 199.92 142.971 200.228 142.971 200.613V203.807H142.226V203.15H142.188C142.138 203.255 142.054 203.368 141.936 203.488C141.818 203.608 141.661 203.71 141.466 203.794C141.27 203.878 141.031 203.92 140.749 203.92ZM140.863 203.251C141.157 203.251 141.406 203.193 141.608 203.078C141.812 202.962 141.965 202.812 142.069 202.629C142.174 202.446 142.226 202.254 142.226 202.052V201.37C142.195 201.408 142.125 201.443 142.018 201.474C141.913 201.504 141.791 201.53 141.652 201.553C141.515 201.574 141.382 201.593 141.251 201.61C141.123 201.625 141.019 201.637 140.939 201.648C140.745 201.673 140.564 201.714 140.396 201.771C140.23 201.826 140.095 201.909 139.992 202.02C139.891 202.13 139.84 202.279 139.84 202.468C139.84 202.727 139.936 202.923 140.127 203.055C140.321 203.186 140.566 203.251 140.863 203.251ZM146.931 203.807V197.343H150.832V198.037H147.714V200.221H150.63V200.916H147.714V203.112H150.883V203.807H146.931ZM152.887 197.343V203.807H152.142V197.343H152.887ZM155.678 203.92C155.371 203.92 155.092 203.862 154.842 203.747C154.591 203.629 154.392 203.459 154.245 203.239C154.098 203.015 154.024 202.746 154.024 202.431C154.024 202.153 154.079 201.928 154.188 201.755C154.298 201.58 154.444 201.444 154.627 201.345C154.81 201.246 155.012 201.172 155.233 201.124C155.456 201.073 155.68 201.033 155.905 201.004C156.2 200.966 156.439 200.938 156.622 200.919C156.807 200.898 156.941 200.863 157.026 200.815C157.112 200.766 157.155 200.682 157.155 200.562V200.537C157.155 200.225 157.07 199.983 156.899 199.811C156.731 199.638 156.475 199.552 156.132 199.552C155.777 199.552 155.498 199.63 155.296 199.786C155.094 199.941 154.952 200.108 154.87 200.284L154.163 200.032C154.289 199.737 154.458 199.508 154.668 199.344C154.88 199.178 155.112 199.062 155.362 198.997C155.615 198.929 155.863 198.896 156.107 198.896C156.263 198.896 156.442 198.915 156.644 198.952C156.848 198.988 157.045 199.063 157.234 199.177C157.425 199.29 157.584 199.462 157.71 199.691C157.837 199.92 157.9 200.228 157.9 200.613V203.807H157.155V203.15H157.117C157.067 203.255 156.982 203.368 156.865 203.488C156.747 203.608 156.59 203.71 156.394 203.794C156.199 203.878 155.96 203.92 155.678 203.92ZM155.792 203.251C156.086 203.251 156.334 203.193 156.536 203.078C156.74 202.962 156.894 202.812 156.997 202.629C157.102 202.446 157.155 202.254 157.155 202.052V201.37C157.123 201.408 157.054 201.443 156.947 201.474C156.841 201.504 156.719 201.53 156.581 201.553C156.444 201.574 156.31 201.593 156.18 201.61C156.051 201.625 155.947 201.637 155.867 201.648C155.674 201.673 155.493 201.714 155.324 201.771C155.158 201.826 155.024 201.909 154.92 202.02C154.819 202.13 154.769 202.279 154.769 202.468C154.769 202.727 154.865 202.923 155.056 203.055C155.25 203.186 155.495 203.251 155.792 203.251ZM162.693 200.044L162.024 200.234C161.982 200.122 161.92 200.014 161.838 199.909C161.758 199.801 161.649 199.713 161.51 199.644C161.371 199.574 161.193 199.54 160.976 199.54C160.68 199.54 160.432 199.608 160.235 199.745C160.039 199.879 159.941 200.051 159.941 200.259C159.941 200.444 160.008 200.591 160.143 200.698C160.278 200.805 160.488 200.895 160.774 200.966L161.494 201.143C161.927 201.248 162.25 201.409 162.463 201.626C162.675 201.84 162.782 202.117 162.782 202.456C162.782 202.734 162.702 202.982 162.542 203.201C162.384 203.419 162.163 203.592 161.879 203.718C161.595 203.845 161.265 203.908 160.888 203.908C160.393 203.908 159.984 203.8 159.66 203.586C159.336 203.371 159.131 203.058 159.045 202.645L159.752 202.468C159.819 202.729 159.946 202.925 160.134 203.055C160.323 203.186 160.57 203.251 160.875 203.251C161.223 203.251 161.498 203.178 161.702 203.03C161.908 202.881 162.012 202.702 162.012 202.494C162.012 202.325 161.953 202.184 161.835 202.071C161.717 201.955 161.536 201.869 161.292 201.812L160.484 201.623C160.04 201.517 159.714 201.354 159.506 201.133C159.299 200.91 159.196 200.632 159.196 200.297C159.196 200.023 159.273 199.781 159.427 199.571C159.582 199.361 159.794 199.195 160.061 199.076C160.33 198.956 160.635 198.896 160.976 198.896C161.456 198.896 161.833 199.001 162.106 199.211C162.382 199.422 162.578 199.699 162.693 200.044ZM166.011 198.959V199.59H163.499V198.959H166.011ZM164.231 197.797H164.976V202.418C164.976 202.628 165.006 202.786 165.068 202.891C165.131 202.994 165.211 203.064 165.307 203.1C165.406 203.133 165.51 203.15 165.62 203.15C165.702 203.15 165.769 203.146 165.822 203.138C165.874 203.127 165.917 203.119 165.948 203.112L166.1 203.781C166.049 203.8 165.979 203.819 165.888 203.838C165.798 203.859 165.683 203.87 165.544 203.87C165.334 203.87 165.127 203.825 164.925 203.734C164.726 203.644 164.559 203.506 164.427 203.321C164.296 203.135 164.231 202.902 164.231 202.62V197.797ZM167.132 203.807V198.959H167.877V203.807H167.132ZM167.51 198.151C167.365 198.151 167.24 198.101 167.135 198.002C167.032 197.904 166.98 197.785 166.98 197.646C166.98 197.507 167.032 197.388 167.135 197.289C167.24 197.19 167.365 197.141 167.51 197.141C167.656 197.141 167.78 197.19 167.883 197.289C167.988 197.388 168.041 197.507 168.041 197.646C168.041 197.785 167.988 197.904 167.883 198.002C167.78 198.101 167.656 198.151 167.51 198.151ZM171.21 203.908C170.756 203.908 170.364 203.8 170.036 203.586C169.708 203.371 169.455 203.075 169.279 202.699C169.102 202.322 169.014 201.892 169.014 201.408C169.014 200.916 169.104 200.481 169.285 200.104C169.468 199.726 169.723 199.43 170.049 199.218C170.377 199.003 170.76 198.896 171.198 198.896C171.538 198.896 171.846 198.959 172.119 199.085C172.393 199.211 172.617 199.388 172.791 199.615C172.966 199.842 173.074 200.108 173.117 200.411H172.372C172.315 200.19 172.189 199.994 171.993 199.824C171.799 199.651 171.538 199.565 171.21 199.565C170.92 199.565 170.665 199.641 170.446 199.792C170.23 199.941 170.06 200.153 169.938 200.426C169.818 200.698 169.758 201.017 169.758 201.383C169.758 201.757 169.817 202.083 169.935 202.361C170.055 202.639 170.223 202.855 170.44 203.008C170.659 203.162 170.916 203.239 171.21 203.239C171.404 203.239 171.579 203.205 171.737 203.138C171.895 203.07 172.029 202.973 172.138 202.847C172.248 202.721 172.325 202.569 172.372 202.393H173.117C173.074 202.679 172.97 202.937 172.804 203.166C172.64 203.393 172.422 203.574 172.151 203.709C171.881 203.841 171.568 203.908 171.21 203.908ZM177.841 198.959C177.803 198.639 177.65 198.391 177.381 198.214C177.111 198.037 176.781 197.949 176.389 197.949C176.103 197.949 175.853 197.995 175.638 198.088C175.426 198.18 175.26 198.308 175.14 198.47C175.022 198.632 174.963 198.816 174.963 199.022C174.963 199.194 175.004 199.343 175.086 199.467C175.17 199.589 175.277 199.691 175.408 199.773C175.538 199.853 175.675 199.919 175.818 199.972C175.961 200.022 176.093 200.063 176.213 200.095L176.869 200.272C177.038 200.316 177.225 200.377 177.431 200.455C177.639 200.533 177.838 200.639 178.028 200.774C178.219 200.906 178.377 201.077 178.501 201.285C178.625 201.493 178.687 201.749 178.687 202.052C178.687 202.401 178.596 202.717 178.413 202.999C178.232 203.281 177.967 203.505 177.617 203.671C177.27 203.837 176.848 203.92 176.352 203.92C175.889 203.92 175.488 203.846 175.149 203.696C174.812 203.547 174.547 203.338 174.354 203.071C174.162 202.804 174.054 202.494 174.029 202.14H174.837C174.858 202.384 174.94 202.586 175.083 202.746C175.228 202.904 175.411 203.022 175.632 203.1C175.855 203.175 176.095 203.213 176.352 203.213C176.65 203.213 176.919 203.165 177.156 203.068C177.394 202.969 177.583 202.832 177.721 202.658C177.86 202.481 177.93 202.275 177.93 202.039C177.93 201.825 177.87 201.65 177.75 201.515C177.63 201.381 177.472 201.271 177.276 201.187C177.081 201.103 176.869 201.029 176.642 200.966L175.847 200.739C175.342 200.594 174.942 200.386 174.647 200.117C174.353 199.848 174.205 199.495 174.205 199.06C174.205 198.698 174.303 198.382 174.499 198.113C174.697 197.841 174.962 197.631 175.294 197.482C175.629 197.33 176.002 197.254 176.415 197.254C176.831 197.254 177.202 197.329 177.526 197.479C177.85 197.626 178.106 197.828 178.296 198.085C178.487 198.341 178.588 198.633 178.599 198.959H177.841ZM179.873 203.807V198.959H180.618V203.807H179.873ZM180.252 198.151C180.107 198.151 179.981 198.101 179.876 198.002C179.773 197.904 179.722 197.785 179.722 197.646C179.722 197.507 179.773 197.388 179.876 197.289C179.981 197.19 180.107 197.141 180.252 197.141C180.397 197.141 180.521 197.19 180.624 197.289C180.729 197.388 180.782 197.507 180.782 197.646C180.782 197.785 180.729 197.904 180.624 198.002C180.521 198.101 180.397 198.151 180.252 198.151ZM183.939 205.726C183.579 205.726 183.27 205.679 183.011 205.587C182.752 205.496 182.537 205.376 182.364 205.227C182.194 205.08 182.058 204.922 181.957 204.753L182.55 204.337C182.618 204.425 182.703 204.526 182.806 204.64C182.909 204.756 183.05 204.856 183.229 204.94C183.41 205.026 183.647 205.069 183.939 205.069C184.33 205.069 184.653 204.974 184.908 204.785C185.163 204.596 185.29 204.299 185.29 203.895V202.91H185.227C185.172 202.999 185.094 203.108 184.993 203.239C184.894 203.367 184.751 203.482 184.564 203.583C184.379 203.681 184.128 203.731 183.813 203.731C183.421 203.731 183.07 203.638 182.759 203.453C182.449 203.268 182.204 202.999 182.023 202.645C181.844 202.292 181.755 201.862 181.755 201.357C181.755 200.861 181.842 200.428 182.017 200.06C182.192 199.69 182.435 199.404 182.746 199.202C183.057 198.998 183.417 198.896 183.825 198.896C184.141 198.896 184.391 198.948 184.577 199.053C184.764 199.157 184.907 199.274 185.006 199.407C185.107 199.537 185.185 199.645 185.239 199.729H185.315V198.959H186.035V203.946C186.035 204.362 185.94 204.701 185.751 204.962C185.563 205.225 185.311 205.417 184.993 205.539C184.678 205.664 184.326 205.726 183.939 205.726ZM183.914 203.062C184.213 203.062 184.465 202.993 184.671 202.857C184.877 202.72 185.034 202.523 185.142 202.266C185.249 202.01 185.302 201.703 185.302 201.345C185.302 200.996 185.25 200.687 185.145 200.42C185.039 200.153 184.884 199.943 184.678 199.792C184.471 199.641 184.217 199.565 183.914 199.565C183.598 199.565 183.335 199.645 183.125 199.805C182.916 199.965 182.76 200.179 182.654 200.448C182.551 200.718 182.5 201.017 182.5 201.345C182.5 201.681 182.552 201.979 182.658 202.238C182.765 202.495 182.923 202.697 183.131 202.844C183.341 202.989 183.602 203.062 183.914 203.062ZM188.143 200.89V203.807H187.398V198.959H188.118V199.716H188.181C188.295 199.47 188.467 199.272 188.699 199.123C188.93 198.971 189.229 198.896 189.595 198.896C189.923 198.896 190.21 198.963 190.457 199.098C190.703 199.23 190.894 199.432 191.031 199.704C191.168 199.973 191.236 200.314 191.236 200.726V203.807H190.491V200.777C190.491 200.396 190.392 200.099 190.195 199.887C189.997 199.672 189.725 199.565 189.38 199.565C189.142 199.565 188.93 199.616 188.743 199.719C188.558 199.823 188.411 199.973 188.304 200.171C188.197 200.369 188.143 200.608 188.143 200.89Z" fill="#2B313F"/>
<rect x="205.231" y="134.132" width="4.6986" height="4.6986" fill="white" stroke="#4277FD" stroke-width="0.380904"/>
<rect x="87.1514" y="134.132" width="4.6986" height="4.6986" fill="white" stroke="#4277FD" stroke-width="0.380904"/>
<rect x="87.1514" y="213.313" width="4.6986" height="4.6986" fill="white" stroke="#4277FD" stroke-width="0.380904"/>
<rect x="205.231" y="213.313" width="4.6986" height="4.6986" fill="white" stroke="#4277FD" stroke-width="0.380904"/>
</g>
</g>
<defs>
<filter id="filter0_d_4890_17528" x="81.9609" y="0" width="273.539" height="239.201" filterUnits="userSpaceOnUse" color-interpolation-filters="sRGB">
<feFlood flood-opacity="0" result="BackgroundImageFix"/>
<feColorMatrix in="SourceAlpha" type="matrix" values="0 0 0 0 0 0 0 0 0 0 0 0 0 0 0 0 0 0 127 0" result="hardAlpha"/>
<feOffset dx="8" dy="8"/>
<feGaussianBlur stdDeviation="6.5"/>
<feComposite in2="hardAlpha" operator="out"/>
<feColorMatrix type="matrix" values="0 0 0 0 0.168627 0 0 0 0 0.192157 0 0 0 0 0.247059 0 0 0 0.08 0"/>
<feBlend mode="normal" in2="BackgroundImageFix" result="effect1_dropShadow_4890_17528"/>
<feBlend mode="normal" in="SourceGraphic" in2="effect1_dropShadow_4890_17528" result="shape"/>
</filter>
<filter id="filter1_d_4890_17528" x="76.8035" y="126.323" width="143.475" height="104.575" filterUnits="userSpaceOnUse" color-interpolation-filters="sRGB">
<feFlood flood-opacity="0" result="BackgroundImageFix"/>
<feColorMatrix in="SourceAlpha" type="matrix" values="0 0 0 0 0 0 0 0 0 0 0 0 0 0 0 0 0 0 127 0" result="hardAlpha"/>
<feOffset dy="2.53936"/>
<feGaussianBlur stdDeviation="5.07872"/>
<feComposite in2="hardAlpha" operator="out"/>
<feColorMatrix type="matrix" values="0 0 0 0 0.258824 0 0 0 0 0.466667 0 0 0 0 0.992157 0 0 0 0.1 0"/>
<feBlend mode="normal" in2="BackgroundImageFix" result="effect1_dropShadow_4890_17528"/>
<feBlend mode="normal" in="SourceGraphic" in2="effect1_dropShadow_4890_17528" result="shape"/>
</filter>
</defs>
</svg>
