<svg width="394" height="166" viewBox="0 0 394 166" fill="none" xmlns="http://www.w3.org/2000/svg">
<path d="M0 8.5C0 4.08172 3.58172 0.5 8 0.5H386C390.418 0.5 394 4.08172 394 8.5V165.5H0V8.5Z" fill="#EEF2FB"/>
<g clip-path="url(#clip0_4913_21291)">
<path d="M220.401 63.3033V106.313C220.401 108.626 218.496 110.5 216.149 110.5H176.851C174.503 110.5 172.6 108.626 172.6 106.313V49.6873C172.599 47.3743 174.503 45.5 176.851 45.5H202.324L220.401 63.3033Z" fill="#4277FD"/>
<path d="M208.721 78.1338H184.277V80.8088H208.721V78.1338Z" fill="white"/>
<path d="M208.721 84.1084H184.277V86.7834H208.721V84.1084Z" fill="white"/>
<path d="M208.721 90.082H184.277V92.7571H208.721V90.082Z" fill="white"/>
<path d="M201.661 96.0566H184.277V98.7317H201.661V96.0566Z" fill="white"/>
<path d="M204.789 62.9164L220.4 69.2502V63.3032L211.549 60.7295L204.789 62.9164Z" fill="#3A5BBC"/>
<path d="M220.401 63.3033H206.576C204.227 63.3033 202.324 61.4289 202.324 59.116V45.5L220.401 63.3033Z" fill="#ACD1FC"/>
<path d="M217.593 120.309C224.824 120.309 230.686 114.531 230.686 107.404C230.686 100.278 224.824 94.5 217.593 94.5C210.362 94.5 204.5 100.278 204.5 107.404C204.5 114.531 210.362 120.309 217.593 120.309Z" fill="#4277FD"/>
<path d="M217.594 118.324C223.713 118.324 228.673 113.435 228.673 107.404C228.673 101.374 223.713 96.4854 217.594 96.4854C211.476 96.4854 206.516 101.374 206.516 107.404C206.516 113.435 211.476 118.324 217.594 118.324Z" fill="white"/>
<path d="M213.5 108C213.5 108 216 111 216.5 111C217 111 223 103.5 223 103.5" stroke="#4277FD" stroke-width="2" stroke-linecap="round"/>
</g>
<defs>
<clipPath id="clip0_4913_21291">
<rect width="67" height="75" fill="white" transform="translate(163.5 45.5)"/>
</clipPath>
</defs>
</svg>
