<svg width="38" height="38" viewBox="0 0 38 38" fill="none" xmlns="http://www.w3.org/2000/svg">
<rect width="38" height="38" fill="#C7C7C7"/>
<g id="Query toast-error" filter="url(#filter0_d_48_3737)">
<rect x="-15" y="-19" width="450" height="76" rx="6" fill="#FFF4F5" shape-rendering="crispEdges"/>
<g id="Frame 1000001998">
<g id="Frame 1000002194">
<rect width="38" height="38" rx="19" fill="#DB0F0F"/>
<g id="Group 4452">
<path id="Vector" d="M18.6316 12C18.2904 12 17.9783 12.29 18.0012 12.6305L18.3164 21.1417C18.3164 21.2253 18.3496 21.3055 18.4087 21.3646C18.4679 21.4237 18.548 21.457 18.6316 21.457C18.7153 21.457 18.7954 21.4237 18.8545 21.3646C18.9137 21.3055 18.9469 21.2253 18.9469 21.1417L19.2621 12.6305C19.285 12.29 18.9729 12 18.6316 12Z" stroke="white" stroke-width="1.80841" stroke-linecap="round" stroke-linejoin="round"/>
<path id="Vector_2" d="M18.6324 25.8696C18.9806 25.8696 19.2629 25.5873 19.2629 25.2391C19.2629 24.8909 18.9806 24.6086 18.6324 24.6086C18.2842 24.6086 18.002 24.8909 18.002 25.2391C18.002 25.5873 18.2842 25.8696 18.6324 25.8696Z" stroke="white" stroke-width="1.80841" stroke-linecap="round" stroke-linejoin="round"/>
</g>
</g>
</g>
</g>
<defs>
<filter id="filter0_d_48_3737" x="-20" y="-22" width="460" height="86" filterUnits="userSpaceOnUse" color-interpolation-filters="sRGB">
<feFlood flood-opacity="0" result="BackgroundImageFix"/>
<feColorMatrix in="SourceAlpha" type="matrix" values="0 0 0 0 0 0 0 0 0 0 0 0 0 0 0 0 0 0 127 0" result="hardAlpha"/>
<feOffset dy="2"/>
<feGaussianBlur stdDeviation="2.5"/>
<feComposite in2="hardAlpha" operator="out"/>
<feColorMatrix type="matrix" values="0 0 0 0 0 0 0 0 0 0 0 0 0 0 0 0 0 0 0.08 0"/>
<feBlend mode="normal" in2="BackgroundImageFix" result="effect1_dropShadow_48_3737"/>
<feBlend mode="normal" in="SourceGraphic" in2="effect1_dropShadow_48_3737" result="shape"/>
</filter>
</defs>
</svg>
