<svg width="73" height="74" viewBox="0 0 73 74" fill="none" xmlns="http://www.w3.org/2000/svg">
<g id="2472241_accept_check_green_ok_success_icon 1" clip-path="url(#clip0_7427_16905)">
<g id="&#229;&#155;&#190;&#229;&#177;&#130;_x0020_1">
<path id="Vector" fill-rule="evenodd" clip-rule="evenodd" d="M36.5139 5.08105C54.1495 5.08105 68.4516 19.3831 68.4516 37.0188C68.4516 54.6544 54.1495 68.9564 36.5139 68.9564C18.8783 68.9564 4.57617 54.6544 4.57617 37.0188C4.57617 19.3831 18.8783 5.08105 36.5139 5.08105ZM29.8816 47.3923L22.0625 39.5668C20.7304 38.2338 20.7301 36.0603 22.0625 34.7276C23.3951 33.3953 25.5784 33.4036 26.9013 34.7276L32.4138 40.2444L46.1269 26.5313C47.4595 25.1986 49.6334 25.1986 50.9657 26.5313C52.2984 27.8637 52.2965 30.0394 50.9657 31.3702L34.8293 47.5066C33.4986 48.8374 31.3228 48.8393 29.9904 47.5066C29.953 47.4692 29.9169 47.4311 29.8816 47.3923Z" fill="#54C093"/>
</g>
</g>
<defs>
<clipPath id="clip0_7427_16905">
<rect width="73" height="73" fill="white" transform="translate(0 0.5)"/>
</clipPath>
</defs>
</svg>
