<svg width="39" height="54" viewBox="0 0 39 54" fill="none" xmlns="http://www.w3.org/2000/svg">
<path d="M24.1008 46.4599L19.5 48L14.8992 46.4599C6.59296 43.6794 1 35.9478 1 27.2461V9.24127L19.5 3L38 9.24127V27.246C37.9999 35.9478 32.407 43.6794 24.1008 46.4599Z" stroke="#2A5EE4" stroke-width="2" stroke-miterlimit="10" stroke-linecap="round" stroke-linejoin="round"/>
<path d="M24 20.2931C24 17.9221 21.9853 16 19.5 16C17.0147 16 15 17.9221 15 20.2931C15 22.0928 16.1612 23.6328 17.8075 24.2709V33.3853C17.8075 34.2771 18.5652 35 19.5 35C20.4348 35 21.1925 34.2771 21.1925 33.3853V24.2709C22.8388 23.6329 24 22.0928 24 20.2931Z" stroke="#20BFFC" stroke-width="2" stroke-miterlimit="10" stroke-linecap="round" stroke-linejoin="round"/>
<path d="M19 3V12" stroke="#2A5EE4" stroke-width="2" stroke-miterlimit="10" stroke-linecap="round" stroke-linejoin="round"/>
<path d="M19 40V48" stroke="#2A5EE4" stroke-width="2" stroke-miterlimit="10" stroke-linecap="round" stroke-linejoin="round"/>
</svg>
