<svg width="38" height="54" viewBox="0 0 38 54" fill="none" xmlns="http://www.w3.org/2000/svg">
<g clip-path="url(#clip0_2876_20589)">
<path d="M6.28571 0.85C3.85597 0.85 1.85 2.67087 1.85 4.92857V41.0714C1.85 43.3291 3.85597 45.15 6.28571 45.15H33.7143C36.144 45.15 38.15 43.3291 38.15 41.0714V13.5714C38.15 12.8105 37.8123 12.097 37.2522 11.5714L26.7154 1.68248C26.1338 1.13662 25.3424 0.85 24.5368 0.85H6.28571ZM6.28571 2.72143H24.1357V10.4286C24.1357 12.251 25.7594 13.7214 27.7143 13.7214H36.1357V41.0714C36.1357 42.296 35.0834 43.2786 33.7143 43.2786H6.28571C4.9166 43.2786 3.86429 42.296 3.86429 41.0714V4.92857C3.86429 3.70398 4.9166 2.72143 6.28571 2.72143ZM26.15 10.4286V3.81257L34.7147 11.85H27.7143C26.82 11.85 26.15 11.2179 26.15 10.4286Z" fill="#2A5EE4" stroke="#2A5EE4" stroke-width="0.3"/>
<path d="M27.9167 27H17.0833C16.4333 27 16 27.4 16 28C16 28.6 16.4333 29 17.0833 29H27.9167C28.5667 29 29 28.6 29 28C29 27.4 28.4583 27 27.9167 27Z" fill="#20BFFC"/>
<path d="M27.9167 19H17.0833C16.4333 19 16 19.4 16 20C16 20.6 16.4333 21 17.0833 21H27.9167C28.5667 21 29 20.6 29 20C29 19.4 28.4583 19 27.9167 19Z" fill="#20BFFC"/>
<path d="M27.9167 34H17.0833C16.4333 34 16 34.4 16 35C16 35.6 16.4333 36 17.0833 36H27.9167C28.5667 36 29 35.6 29 35C29 34.4 28.4583 34 27.9167 34Z" fill="#20BFFC"/>
<path d="M13.3333 18.3659L11.9608 20.0732L11.6667 19.7073C11.2745 19.2195 10.6863 19.2195 10.2941 19.7073C9.90196 20.1951 9.90196 20.9268 10.2941 21.4146L11.2745 22.6341C11.4706 22.878 11.6667 23 11.9608 23C12.2549 23 12.451 22.878 12.6471 22.6341L14.7059 20.0732C15.098 19.5854 15.098 18.8537 14.7059 18.3659C14.3137 17.878 13.7255 17.878 13.3333 18.3659Z" fill="#20BFFC"/>
<path d="M13.3333 26.2927L11.9608 27.6585L11.6667 27.3659C11.2745 26.9756 10.6863 26.9756 10.2941 27.3659C9.90196 27.7561 9.90196 28.3415 10.2941 28.7317L11.2745 29.7073C11.4706 29.9024 11.6667 30 11.9608 30C12.2549 30 12.451 29.9024 12.6471 29.7073L14.7059 27.6585C15.098 27.2683 15.098 26.6829 14.7059 26.2927C14.3137 25.9024 13.7255 25.9024 13.3333 26.2927Z" fill="#20BFFC"/>
<path d="M13.3333 33.3659L11.9608 35.0732L11.6667 34.7073C11.2745 34.2195 10.6863 34.2195 10.2941 34.7073C9.90196 35.1951 9.90196 35.9268 10.2941 36.4146L11.2745 37.6341C11.4706 37.878 11.6667 38 11.9608 38C12.2549 38 12.451 37.878 12.6471 37.6341L14.7059 35.0732C15.098 34.5854 15.098 33.8537 14.7059 33.3659C14.3137 32.878 13.7255 32.878 13.3333 33.3659Z" fill="#20BFFC"/>
</g>
<defs>
<clipPath id="clip0_2876_20589">
<rect width="38" height="54" fill="white"/>
</clipPath>
</defs>
</svg>
