<svg width="50" height="54" viewBox="0 0 50 54" fill="none" xmlns="http://www.w3.org/2000/svg">
<path d="M23.4375 31.8125C26.0263 31.8125 28.125 29.7138 28.125 27.125C28.125 24.5362 26.0263 22.4375 23.4375 22.4375C20.8487 22.4375 18.75 24.5362 18.75 27.125C18.75 29.7138 20.8487 31.8125 23.4375 31.8125Z" stroke="#20BFFC" stroke-width="2" stroke-miterlimit="10" stroke-linecap="round" stroke-linejoin="round"/>
<path d="M23.4375 19.3125V22.4375" stroke="#20BFFC" stroke-width="2" stroke-miterlimit="10" stroke-linecap="round" stroke-linejoin="round"/>
<path d="M23.4375 31.8125V34.9375" stroke="#20BFFC" stroke-width="2" stroke-miterlimit="10" stroke-linecap="round" stroke-linejoin="round"/>
<path d="M16.7188 23.2188L19.375 24.7812" stroke="#20BFFC" stroke-width="2" stroke-miterlimit="10" stroke-linecap="round" stroke-linejoin="round"/>
<path d="M27.5 29.4688L30.1562 31.0312" stroke="#20BFFC" stroke-width="2" stroke-miterlimit="10" stroke-linecap="round" stroke-linejoin="round"/>
<path d="M16.7188 31.0312L19.375 29.4688" stroke="#20BFFC" stroke-width="2" stroke-miterlimit="10" stroke-linecap="round" stroke-linejoin="round"/>
<path d="M27.5 24.7812L30.1562 23.2188" stroke="#20BFFC" stroke-width="2" stroke-miterlimit="10" stroke-linecap="round" stroke-linejoin="round"/>
<path d="M6 39.6522V4H16.7692C16.7692 7.92174 19.5385 11.1304 22.9231 11.1304C26.3077 11.1304 29.0769 7.92174 29.0769 4H39.8462V18.2609C43.2308 18.2609 46 21.4696 46 25.3913C46 29.313 43.2308 32.5217 39.8462 32.5217V45H9.07692" stroke="#2A5EE4" stroke-width="2" stroke-miterlimit="10" stroke-linecap="round" stroke-linejoin="round"/>
</svg>
