<svg width="42" height="51" viewBox="0 0 42 51" fill="none" xmlns="http://www.w3.org/2000/svg">
<path d="M41 1.57143C41 1.41988 40.9333 1.27453 40.8145 1.16737C40.6957 1.0602 40.5346 1 40.3667 1H22.6333C22.4654 1 22.3043 1.0602 22.1855 1.16737C22.0667 1.27453 22 1.41988 22 1.57143V8.42857C22 8.58012 22.0667 8.72547 22.1855 8.83263C22.3043 8.9398 22.4654 9 22.6333 9H40.3667C40.5346 9 40.6957 8.9398 40.8145 8.83263C40.9333 8.72547 41 8.58012 41 8.42857V1.57143ZM39.7333 7.85714H23.2667V2.14286H39.7333V7.85714Z" fill="#2A5EE4" stroke="#2A5EE4" stroke-width="0.5"/>
<path d="M1.6 18H18.4C18.5591 18 18.7117 17.9403 18.8243 17.834C18.9368 17.7278 19 17.5836 19 17.4333V1.56667C19 1.41638 18.9368 1.27224 18.8243 1.16597C18.7117 1.0597 18.5591 1 18.4 1H1.6C1.44087 1 1.28826 1.0597 1.17574 1.16597C1.06321 1.27224 1 1.41638 1 1.56667V17.4333C1 17.5836 1.06321 17.7278 1.17574 17.834C1.28826 17.9403 1.44087 18 1.6 18ZM2.2 2.13333H17.8V16.8667H2.2V2.13333Z" fill="#2A5EE4" stroke="#2A5EE4" stroke-width="0.5"/>
<path d="M41 12.5667C41 12.4164 40.9333 12.2722 40.8145 12.166C40.6957 12.0597 40.5346 12 40.3667 12H22.6333C22.4654 12 22.3043 12.0597 22.1855 12.166C22.0667 12.2722 22 12.4164 22 12.5667V28.4333C22 28.5836 22.0667 28.7278 22.1855 28.834C22.3043 28.9403 22.4654 29 22.6333 29H40.3667C40.5346 29 40.6957 28.9403 40.8145 28.834C40.9333 28.7278 41 28.5836 41 28.4333V12.5667ZM39.7333 27.8667H23.2667V13.1333H39.7333V27.8667Z" fill="#20BFFC" stroke="#20BFFC" stroke-width="0.5"/>
<path d="M1.6 38H18.4C18.5591 38 18.7117 37.9403 18.8243 37.834C18.9368 37.7278 19 37.5836 19 37.4333V21.5667C19 21.4164 18.9368 21.2722 18.8243 21.166C18.7117 21.0597 18.5591 21 18.4 21H1.6C1.44087 21 1.28826 21.0597 1.17574 21.166C1.06321 21.2722 1 21.4164 1 21.5667V37.4333C1 37.5836 1.06321 37.7278 1.17574 37.834C1.28826 37.9403 1.44087 38 1.6 38ZM2.2 22.1333H17.8V36.8667H2.2V22.1333Z" fill="#2A5EE4" stroke="#2A5EE4" stroke-width="0.5"/>
<path d="M40.3667 32H22.6333C22.4654 32 22.3043 32.0602 22.1855 32.1674C22.0667 32.2745 22 32.4199 22 32.5714V39.4286C22 39.5801 22.0667 39.7255 22.1855 39.8326C22.3043 39.9398 22.4654 40 22.6333 40H40.3667C40.5346 40 40.6957 39.9398 40.8145 39.8326C40.9333 39.7255 41 39.5801 41 39.4286V32.5714C41 32.4199 40.9333 32.2745 40.8145 32.1674C40.6957 32.0602 40.5346 32 40.3667 32ZM39.7333 38.8571H23.2667V33.1429H39.7333V38.8571Z" fill="#2A5EE4" stroke="#2A5EE4" stroke-width="0.5"/>
</svg>
