<svg width="53" height="54" viewBox="0 0 53 54" fill="none" xmlns="http://www.w3.org/2000/svg">
<path d="M52.15 18.3182H42.8C42.5746 18.3182 42.3584 18.4188 42.199 18.5978C42.0396 18.7768 41.95 19.0196 41.95 19.2727V22.1364H36.2573L28.8215 16.5694C28.6818 16.4649 28.5178 16.4091 28.35 16.4091C28.1822 16.4091 28.0181 16.4649 27.8785 16.5694L20.4426 22.1364H14.9886L15.5745 19.5043C15.6059 19.3635 15.6082 19.2166 15.5814 19.0747C15.5547 18.9328 15.4994 18.7997 15.4199 18.6853C15.3404 18.571 15.2388 18.4785 15.1227 18.4149C15.0066 18.3513 14.8791 18.3182 14.75 18.3182H9.64997V10.6818C9.65022 10.4287 9.73986 10.1861 9.89921 10.0072C10.0586 9.82822 10.2746 9.72756 10.5 9.72727H21.6355C21.8327 10.8045 22.3546 11.7724 23.1132 12.468C23.8718 13.1635 24.8207 13.544 25.8 13.5455H30.9C32.0272 13.5455 33.1082 13.0426 33.9052 12.1476C34.7022 11.2525 35.15 10.0385 35.15 8.77273C35.15 7.50692 34.7022 6.29296 33.9052 5.3979C33.1082 4.50284 32.0272 4 30.9 4H25.8C24.8207 4.00144 23.8718 4.38199 23.1132 5.0775C22.3546 5.77301 21.8327 6.74096 21.6355 7.81818H10.5C9.8239 7.81905 9.17575 8.12103 8.6977 8.65788C8.21965 9.19473 7.95074 9.9226 7.94997 10.6818V18.3182H4.54996C4.3604 18.3182 4.17628 18.3893 4.02687 18.5203C3.87746 18.6513 3.77134 18.8347 3.72538 19.0412L2.02538 26.6776C1.99405 26.8183 1.99169 26.9652 2.01849 27.1071C2.04528 27.249 2.10052 27.3822 2.18001 27.4965C2.2595 27.6108 2.36115 27.7033 2.47723 27.7669C2.59332 27.8306 2.72079 27.8636 2.84996 27.8636H7.94997V31.6818C7.95074 32.441 8.21965 33.1689 8.6977 33.7058C9.17575 34.2426 9.8239 34.5446 10.5 34.5455H26.65C27.326 34.5446 27.9742 34.2426 28.4522 33.7058C28.9303 33.1689 29.1992 32.441 29.2 31.6818V29.329L36.2573 24.0455H41.95V26.9091C41.95 27.1622 42.0396 27.405 42.199 27.584C42.3584 27.7631 42.5746 27.8636 42.8 27.8636H47.05V36.4016C46.3935 36.1489 45.6989 36.0451 45.0063 36.096C44.3138 36.1469 43.6372 36.3515 43.0156 36.6981L41.5698 37.5099C41.4286 37.5892 41.3099 37.711 41.2269 37.8618C41.1439 38.0126 41.1 38.1864 41.1 38.3636V40.2727H34.2145C34.0173 39.1955 33.4954 38.2276 32.7368 37.532C31.9782 36.8365 31.0293 36.456 30.05 36.4545H24.95C23.8228 36.4545 22.7418 36.9574 21.9448 37.8524C21.1477 38.7475 20.7 39.9615 20.7 41.2273C20.7 42.4931 21.1477 43.707 21.9448 44.6021C22.7418 45.4972 23.8228 46 24.95 46H30.05C31.0293 45.9986 31.9782 45.618 32.7368 44.9225C33.4954 44.227 34.0173 43.259 34.2145 42.1818H41.1V45.0455C41.1 45.2986 41.1896 45.5414 41.349 45.7204C41.5084 45.8994 41.7246 46 41.95 46H52.15C52.3754 46 52.5916 45.8994 52.751 45.7204C52.9104 45.5414 53 45.2986 53 45.0455V37.4091C53 37.264 52.9705 37.1209 52.9139 36.9905C52.8573 36.8602 52.7749 36.746 52.6731 36.6567C52.5713 36.5675 52.4527 36.5054 52.3263 36.4753C52.1999 36.4453 52.0691 36.4479 51.9438 36.4831L50.1121 36.9974C49.6668 37.122 49.2041 37.1477 48.75 37.073V27.8636H52.15C52.3754 27.8636 52.5916 27.7631 52.751 27.584C52.9104 27.405 53 27.1622 53 26.9091V19.2727C53 19.0196 52.9104 18.7768 52.751 18.5978C52.5916 18.4188 52.3754 18.3182 52.15 18.3182ZM25.8 5.90909H30.9C31.5763 5.90909 32.2249 6.21079 32.7031 6.74783C33.1813 7.28487 33.45 8.01324 33.45 8.77273C33.45 9.53221 33.1813 10.2606 32.7031 10.7976C32.2249 11.3347 31.5763 11.6364 30.9 11.6364H25.8C25.1237 11.6364 24.4751 11.3347 23.9969 10.7976C23.5186 10.2606 23.25 9.53221 23.25 8.77273C23.25 8.01324 23.5186 7.28487 23.9969 6.74783C24.4751 6.21079 25.1237 5.90909 25.8 5.90909ZM5.21361 20.2273H13.6613L12.3863 25.9545H3.93861L5.21361 20.2273ZM26.65 32.6364H10.5C10.2746 32.6361 10.0586 32.5354 9.89921 32.3565C9.73986 32.1775 9.65022 31.9349 9.64997 31.6818V27.8636H13.05C13.2395 27.8637 13.4237 27.7925 13.5731 27.6615C13.7225 27.5305 13.8286 27.3471 13.8745 27.1406L14.5636 24.0455H20.4426L27.5 29.329V31.6818C27.4997 31.9349 27.4101 32.1775 27.2507 32.3565C27.0914 32.5354 26.8753 32.6361 26.65 32.6364ZM28.35 27.6709L22.2323 23.0909L28.35 18.5109L34.4677 23.0909L28.35 27.6709ZM30.05 44.0909H24.95C24.2737 44.0909 23.6251 43.7892 23.1469 43.2522C22.6686 42.7151 22.4 41.9868 22.4 41.2273C22.4 40.4678 22.6686 39.7394 23.1469 39.2024C23.6251 38.6653 24.2737 38.3636 24.95 38.3636H30.05C30.7263 38.3636 31.3749 38.6653 31.8531 39.2024C32.3313 39.7394 32.6 40.4678 32.6 41.2273C32.6 41.9868 32.3313 42.7151 31.8531 43.2522C31.3749 43.7892 30.7263 44.0909 30.05 44.0909ZM50.5244 38.8494L51.3 38.6316V44.0909H42.8V38.9536L43.776 38.4056C44.265 38.1326 44.8038 37.9905 45.35 37.9905C45.8962 37.9905 46.4349 38.1326 46.924 38.4056C48.0386 39.0311 49.3155 39.1885 50.5244 38.8494ZM51.3 25.9545H43.65V20.2273H51.3V25.9545Z" fill="#2A5EE4"/>
<rect x="22" y="3" width="13" height="11" fill="#F6F7FA"/>
<rect x="20" y="35" width="15" height="12" fill="#F6F7FA"/>
<rect x="22" y="6" width="12" height="7" rx="3" stroke="#20BFFC" stroke-width="2"/>
<rect x="23" y="37" width="12" height="8" rx="3" stroke="#20BFFC" stroke-width="2"/>
</svg>
