<svg width="55" height="54" viewBox="0 0 55 54" fill="none" xmlns="http://www.w3.org/2000/svg">
<path d="M24.2509 35.424L42.8584 46.1362C43.0214 46.23 43.2054 46.2815 43.3934 46.2858C43.5815 46.2902 43.7676 46.2473 43.9348 46.1611C44.102 46.0749 44.2449 45.9482 44.3505 45.7926C44.4561 45.6369 44.5209 45.4572 44.5391 45.27L48.1684 7.98525C48.1883 7.78156 48.1522 7.57631 48.0641 7.3916C47.976 7.20689 47.8392 7.04971 47.6683 6.93699C47.4975 6.82428 47.2992 6.76029 47.0947 6.75192C46.8902 6.74355 46.6873 6.79112 46.5079 6.8895L4.83339 29.7495C4.62896 29.8614 4.46431 30.0339 4.36219 30.2434C4.26007 30.4529 4.22551 30.6889 4.2633 30.9188C4.30109 31.1488 4.40936 31.3613 4.57315 31.5271C4.73694 31.6929 4.94816 31.8037 5.17764 31.8442L20.3089 34.5442" stroke="#2A5EE4" stroke-width="2.2" stroke-linecap="round" stroke-linejoin="round"/>
<path d="M41.1281 15.552L24.2531 35.424L26.1679 46.674C26.188 46.8168 26.2534 46.9494 26.3544 47.0524C26.4554 47.1553 26.5867 47.2232 26.7291 47.2461C26.8715 47.269 27.0175 47.2457 27.1456 47.1796C27.2738 47.1135 27.3775 47.008 27.4414 46.8787L29.4934 43.0133" stroke="#20BFFC" stroke-width="2.2" stroke-linecap="round" stroke-linejoin="round"/>
</svg>
