<svg width="71" height="54" viewBox="0 0 71 54" fill="none" xmlns="http://www.w3.org/2000/svg">
<path d="M16.2115 26.0137H35.9227" stroke="#2A5EE4" stroke-width="2" stroke-miterlimit="10"/>
<path d="M16.316 32.1436H33.242" stroke="#2A5EE4" stroke-width="2" stroke-miterlimit="10"/>
<path d="M35.5167 40.6038L33.2932 42.8185" stroke="#2A5EE4" stroke-width="2" stroke-miterlimit="10" stroke-linecap="round"/>
<path d="M37.7032 34.1301C42.4418 25.9406 49.3035 19.4514 57.7867 15.1712C58.5237 14.8446 59.6314 15.0851 60.2317 15.6816C60.333 15.7842 60.4376 15.8892 60.5405 15.9918C61.1409 16.5876 61.3847 17.6929 61.0569 18.4232C56.7688 26.8343 50.2094 33.7223 42.0243 38.4357L37.7032 34.1301Z" stroke="#2A5EE4" stroke-width="2" stroke-miterlimit="10" stroke-linejoin="round"/>
<path d="M35.6798 37.0654L34.8876 39.5699L36.5478 41.2225L41.8975 38.4998" stroke="#2A5EE4" stroke-width="2" stroke-miterlimit="10" stroke-linejoin="round"/>
<path d="M54.5181 16.7969L51.8169 13.7542" stroke="#2A5EE4" stroke-width="2" stroke-miterlimit="10" stroke-linecap="round" stroke-linejoin="round"/>
<path d="M42.8387 20.8726C46.7357 16.9018 51.7831 13.7869 51.7831 13.7869" stroke="#2A5EE4" stroke-width="2" stroke-miterlimit="10" stroke-linecap="round" stroke-linejoin="round"/>
<path d="M50.8073 23.5947L54.8928 27.664" stroke="#2A5EE4" stroke-width="2" stroke-miterlimit="10" stroke-linejoin="round"/>
<path d="M16.1868 42.3558C16.1868 42.3558 18.6129 39.492 19.6258 39.1645C20.6379 38.8396 20.5943 42.9499 20.5943 42.9499C20.5943 42.9499 23.1192 39.6979 24.7663 41.5442C26.7074 43.7188 26.2075 43.5957 29.2957 43.1854" stroke="#20BFFC" stroke-width="2.5" stroke-miterlimit="10" stroke-linecap="round" stroke-linejoin="round"/>
<path d="M43.5099 42.9072V50.098H8.62598V13.0714L17.8306 3.90137H43.5099V14.1989" stroke="#2A5EE4" stroke-width="2" stroke-miterlimit="10" stroke-linejoin="round"/>
<path d="M19.3318 8.33496V14.5993H13.0376" stroke="#2A5EE4" stroke-width="2" stroke-miterlimit="10"/>
</svg>
