<svg width="38" height="54" viewBox="0 0 38 54" fill="none" xmlns="http://www.w3.org/2000/svg">
<path d="M6.04762 2.95C3.79647 2.95 1.95 4.61312 1.95 6.66071V40.3393C1.95 42.3869 3.79647 44.05 6.04762 44.05H31.9524C34.2035 44.05 36.05 42.3869 36.05 40.3393V14.7143C36.05 14.0321 35.7431 13.3903 35.2308 12.9159L25.2793 3.70118C24.7485 3.20967 24.0243 2.95 23.2848 2.95H6.04762ZM6.04762 4.51429H22.9976V11.7857C22.9976 13.4277 24.483 14.7643 26.2857 14.7643H34.331V40.3393C34.331 41.5365 33.289 42.4857 31.9524 42.4857H6.04762C4.71096 42.4857 3.66905 41.5365 3.66905 40.3393V6.66071C3.66905 5.46345 4.71096 4.51429 6.04762 4.51429ZM24.7167 11.7857V5.41239L33.1276 13.2H26.2857C25.3975 13.2 24.7167 12.5774 24.7167 11.7857Z" fill="#2A5EE4" stroke="#2A5EE4" stroke-width="0.1"/>
<path d="M19.1915 18.7503L19.1912 18.7503C19.059 18.7472 18.9276 18.7708 18.8047 18.8197C18.6818 18.8686 18.57 18.9418 18.476 19.0348L18.4759 19.0349L13.0413 24.4208L13.0412 24.4209C12.8559 24.6047 12.7511 24.8546 12.75 25.1156C12.7489 25.3767 12.8515 25.6274 13.0353 25.8128L13.0353 25.8129C13.2192 25.9982 13.4691 26.1029 13.7301 26.104C13.9912 26.1051 14.2419 26.0025 14.4273 25.8187C14.4273 25.8187 14.4273 25.8187 14.4273 25.8187L18.1839 22.0957V35.8908C18.1839 36.1519 18.2876 36.4023 18.4722 36.5869C18.6568 36.7715 18.9072 36.8752 19.1683 36.8752C19.4293 36.8752 19.6797 36.7715 19.8643 36.5869C20.0489 36.4023 20.1526 36.1519 20.1526 35.8908V22.0957L23.9091 25.8187C23.9091 25.8187 23.9091 25.8187 23.9092 25.8187C24.0945 26.0025 24.3453 26.1051 24.6063 26.104C24.8673 26.1029 25.1173 25.9982 25.3011 25.8128L25.3011 25.8128C25.4849 25.6274 25.5875 25.3766 25.5864 25.1156C25.5853 24.8546 25.4806 24.6046 25.2952 24.4208L25.2952 24.4208L19.8605 19.0349L19.8604 19.0348C19.6819 18.8581 19.4426 18.7563 19.1915 18.7503Z" fill="#20BFFC" stroke="#20BFFC" stroke-width="0.5"/>
</svg>
