<svg width="20" height="20" viewBox="0 0 20 20" fill="none" xmlns="http://www.w3.org/2000/svg">
<path d="M16.8003 5.59308L10.4167 1.90754C10.1589 1.75868 9.84125 1.75868 9.58341 1.90754L3.19987 5.59308C2.94204 5.74195 2.7832 6.01705 2.7832 6.31477V13.6859C2.7832 13.9836 2.94204 14.2587 3.19987 14.4075L9.58342 18.0931C9.84125 18.2419 10.1589 18.2419 10.4167 18.0931L16.8003 14.4075C17.0581 14.2587 17.217 13.9836 17.217 13.6859V6.31477C17.217 6.01705 17.0581 5.74195 16.8003 5.59308Z" stroke="#4277FD" stroke-width="2" stroke-linecap="round" stroke-linejoin="round"/>
<path d="M10 12.5C11.3807 12.5 12.5 11.3807 12.5 10C12.5 8.61929 11.3807 7.5 10 7.5C8.61929 7.5 7.5 8.61929 7.5 10C7.5 11.3807 8.61929 12.5 10 12.5Z" stroke="#4277FD" stroke-width="2" stroke-linecap="round" stroke-linejoin="round"/>
</svg>
