<svg width="20" height="20" viewBox="0 0 20 20" fill="none" xmlns="http://www.w3.org/2000/svg">
<path d="M7.49967 10.8333C8.42015 10.8333 9.16634 10.0871 9.16634 9.16667C9.16634 8.24619 8.42015 7.5 7.49967 7.5C6.5792 7.5 5.83301 8.24619 5.83301 9.16667C5.83301 10.0871 6.5792 10.8333 7.49967 10.8333Z" stroke="#4277FD" stroke-width="1.5" stroke-linecap="round" stroke-linejoin="round"/>
<path d="M16.6667 5H3.33333C2.8731 5 2.5 5.3731 2.5 5.83333V14.1667C2.5 14.6269 2.8731 15 3.33333 15H16.6667C17.1269 15 17.5 14.6269 17.5 14.1667V5.83333C17.5 5.3731 17.1269 5 16.6667 5Z" stroke="#4277FD" stroke-width="1.5" stroke-linecap="round" stroke-linejoin="round"/>
<path d="M5 14.9997C5 14.0792 6.11929 13.333 7.5 13.333C8.88071 13.333 10 14.0792 10 14.9997" stroke="#4277FD" stroke-width="1.5" stroke-linecap="round" stroke-linejoin="round"/>
<path d="M15.0003 11.667L11.667 11.667" stroke="#4277FD" stroke-width="1.5" stroke-linecap="round" stroke-linejoin="round"/>
<path d="M15 9.16699L12.5 9.16699" stroke="#4277FD" stroke-width="1.5" stroke-linecap="round" stroke-linejoin="round"/>
</svg>
