<svg width="98" height="98" viewBox="0 0 98 98" fill="none" xmlns="http://www.w3.org/2000/svg">
<path fill-rule="evenodd" clip-rule="evenodd" d="M48.028 63.8724C51.5364 64.5388 55.0448 63.5392 58.1808 60.9716C59.4352 59.9328 60.572 58.698 61.5716 57.3652C61.8068 58.1296 62.14 58.8156 62.5516 59.4036C65.5601 61.416 66.0992 57.5808 65.9032 57.3848C64.9036 56.2676 64.7664 53.6412 64.9232 51.3872C65.5504 49.78 65.9032 48.3492 65.9228 47.3496C65.9424 45.762 65.0604 45.2132 64.5312 45.0368C63.7276 44.7624 62.7672 45.076 62.2576 45.762C61.846 46.3108 61.3168 48.1728 61.0816 50.466C60.0624 52.8376 58.22 55.8756 55.672 57.9532C53.4376 59.776 51.1052 60.4816 48.7336 60.0308C46.5776 59.6192 44.7548 58.7568 43.2652 57.4436C46.7932 52.0144 49.8704 46.3892 51.0464 41.8028C53.3984 32.6496 52.9084 25.3976 49.7136 22.3988C48.322 21.0856 46.4796 20.674 44.6568 21.262C40.58 22.5752 37.15 28.5532 35.484 37.2556C33.9356 45.3504 34.9352 52.7788 38.228 57.62C38.2672 57.6592 38.2868 57.718 38.326 57.7572C36.4052 60.56 34.4256 63.2648 32.5832 65.656H21.96C20.882 65.656 20 66.538 20 67.616C20 68.694 20.882 69.576 21.96 69.576H29.5452C27.056 72.6728 25.3312 74.672 25.2724 74.7308C24.5668 75.554 24.6452 76.7888 25.4684 77.4944C25.8408 77.8276 26.2916 77.9844 26.762 77.9844C27.3108 77.9844 27.8596 77.7492 28.232 77.318C28.526 76.9848 31.1524 73.9468 34.5628 69.576H76.16C77.238 69.576 78.12 68.694 78.12 67.616C78.12 66.538 77.238 65.656 76.16 65.656H37.542C38.6984 64.088 39.894 62.4416 41.0896 60.7168C43.0104 62.324 45.3232 63.3824 48.028 63.8724ZM45.8916 24.986C43.8336 25.6524 40.8936 30.0036 39.3648 37.9808C38.1496 44.3508 38.6592 50.1328 40.7368 54.1312C43.7552 49.388 46.2836 44.6252 47.2636 40.8032C49.7724 31.0424 48.322 26.4364 47.048 25.2408C46.7932 25.0056 46.5776 24.9076 46.3032 24.9076C46.1856 24.9076 46.0484 24.9468 45.8916 24.986Z" fill="#A2A7B3"/>
</svg>
