<svg width="98" height="98" viewBox="0 0 98 98" fill="none" xmlns="http://www.w3.org/2000/svg">
<path d="M30.9684 59.9563C34.4768 60.6227 37.9852 59.6231 41.1212 57.0555C42.3756 56.0167 43.5124 54.7819 44.512 53.4491C44.7472 54.2135 45.0804 54.8995 45.492 55.4875C46.374 56.7419 48.432 58.6431 52.4108 57.4279C59.3296 55.3307 64.014 49.2547 66.66 43.4139C67.7576 49.1959 69.6196 53.8019 73.422 54.6839C77.146 55.5463 81.1836 52.4887 86.064 45.0407C86.2404 45.0799 86.456 45.1387 86.6128 45.1779C88.612 45.6679 93.3356 46.8439 95.5308 40.3367C95.8836 39.3175 95.3348 38.2003 94.296 37.8475C93.2768 37.4947 92.1596 38.0435 91.8068 39.0823C90.7484 42.1791 89.6116 41.9047 87.534 41.3755C86.3188 41.0619 84.2608 40.5719 83.124 42.3359C77.6164 50.9011 74.9508 51.0383 74.2844 50.8815C72.834 50.5483 70.8348 47.7455 69.5804 36.3383C69.306 33.9471 69.1492 32.4967 67.3264 32.4771C66.464 32.5163 65.4644 32.8691 65.2096 34.8095C64.406 40.7287 59.898 51.0775 51.274 53.7039C49.5492 54.2331 49.0396 53.6647 48.8436 53.4687C47.844 52.3515 47.7068 49.7251 47.8636 47.4711C48.4908 45.8639 48.8436 44.4331 48.8632 43.4335C48.8828 41.8459 48.0008 41.2971 47.4716 41.1207C46.668 40.8463 45.7076 41.1599 45.198 41.8459C44.7864 42.3947 44.2572 44.2567 44.022 46.5499C43.0028 48.9215 41.1604 51.9595 38.6124 54.0371C36.378 55.8599 34.0456 56.5655 31.674 56.1147C29.518 55.7031 27.6952 54.8407 26.2056 53.5275C29.7336 48.0983 32.8108 42.4731 33.9868 37.8867C36.3388 28.7335 35.8488 21.4815 32.654 18.4827C31.2624 17.1695 29.42 16.7579 27.5972 17.3459C23.5204 18.6591 20.0904 24.6371 18.4244 33.3395C16.876 41.4343 17.8756 48.8627 21.1684 53.7039C21.2076 53.7431 21.2272 53.8019 21.2664 53.8411C19.3456 56.6439 17.366 59.3487 15.5236 61.7399H4.90043C3.82243 61.7399 2.94043 62.6219 2.94043 63.6999C2.94043 64.7779 3.82243 65.6599 4.90043 65.6599H12.4856C9.99643 68.7567 8.27163 70.7559 8.21283 70.8147C7.50723 71.6379 7.58563 72.8727 8.40883 73.5783C8.78123 73.9115 9.23203 74.0683 9.70243 74.0683C10.2512 74.0683 10.8 73.8331 11.1724 73.4019C11.4664 73.0687 14.0928 70.0307 17.5032 65.6599H93.1004C94.1784 65.6599 95.0604 64.7779 95.0604 63.6999C95.0604 62.6219 94.1784 61.7399 93.1004 61.7399H20.4824C21.6388 60.1719 22.8344 58.5255 24.03 56.8007C25.9508 58.4079 28.2636 59.4663 30.9684 59.9563ZM22.3052 34.0647C23.834 26.0875 26.774 21.7363 28.832 21.0699C28.9888 21.0307 29.126 20.9915 29.2436 20.9915C29.518 20.9915 29.7336 21.0895 29.9884 21.3247C31.2624 22.5203 32.7128 27.1263 30.204 36.8871C29.224 40.7091 26.6956 45.4719 23.6772 50.2151C21.5996 46.2167 21.09 40.4347 22.3052 34.0647Z" fill="#A2A7B3"/>
</svg>
