<svg width="20" height="20" viewBox="0 0 20 20" fill="none" xmlns="http://www.w3.org/2000/svg">
<path d="M14.1663 10.833H17.4997V15.833C17.4997 16.2932 17.1266 16.6663 16.6663 16.6663H14.1663C13.7061 16.6663 13.333 16.2932 13.333 15.833V11.6663C13.333 11.2061 13.7061 10.833 14.1663 10.833Z" stroke="#4277FD" stroke-width="2" stroke-linecap="round" stroke-linejoin="round"/>
<path d="M5.83333 10.833H2.5V15.833C2.5 16.2932 2.8731 16.6663 3.33333 16.6663H5.83333C6.29357 16.6663 6.66667 16.2932 6.66667 15.833V11.6663C6.66667 11.2061 6.29357 10.833 5.83333 10.833Z" stroke="#4277FD" stroke-width="2" stroke-linecap="round" stroke-linejoin="round"/>
<path d="M2.5 10.833C2.5 6.69087 5.85786 3.33301 10 3.33301C14.1421 3.33301 17.5 6.69087 17.5 10.833" stroke="#4277FD" stroke-width="2" stroke-linecap="round" stroke-linejoin="round"/>
</svg>
