<svg width="20" height="20" viewBox="0 0 20 20" fill="none" xmlns="http://www.w3.org/2000/svg">
<path d="M5.83301 16.667C5.83301 15.2863 7.69849 14.167 9.99967 14.167C12.3009 14.167 14.1663 15.2863 14.1663 16.667" stroke="#4277FD" stroke-width="1.5" stroke-linecap="round" stroke-linejoin="round"/>
<path d="M15 11.875C16.4716 12.2608 17.5 13.1418 17.5 14.167" stroke="#4277FD" stroke-width="1.5" stroke-linecap="round" stroke-linejoin="round"/>
<path d="M5 11.875C3.52841 12.2608 2.5 13.1418 2.5 14.167" stroke="#4277FD" stroke-width="1.5" stroke-linecap="round" stroke-linejoin="round"/>
<path d="M10 11.667C11.3807 11.667 12.5 10.5477 12.5 9.16699C12.5 7.78628 11.3807 6.66699 10 6.66699C8.61929 6.66699 7.5 7.78628 7.5 9.16699C7.5 10.5477 8.61929 11.667 10 11.667Z" stroke="#4277FD" stroke-width="1.5" stroke-linecap="round" stroke-linejoin="round"/>
<path d="M15.0003 8.53041C15.5118 8.07265 15.8337 7.40741 15.8337 6.66699C15.8337 5.28628 14.7144 4.16699 13.3337 4.16699C12.6934 4.16699 12.1093 4.4077 11.667 4.80357" stroke="#4277FD" stroke-width="1.5" stroke-linecap="round" stroke-linejoin="round"/>
<path d="M5.00033 8.53041C4.48887 8.07265 4.16699 7.40741 4.16699 6.66699C4.16699 5.28628 5.28628 4.16699 6.66699 4.16699C7.30729 4.16699 7.89136 4.4077 8.33366 4.80357" stroke="#4277FD" stroke-width="1.5" stroke-linecap="round" stroke-linejoin="round"/>
</svg>
