<svg width="64" height="61" viewBox="0 0 64 61" fill="none" xmlns="http://www.w3.org/2000/svg">
<path d="M47.6559 4.23506C48.3351 5.72972 49.0212 8.05591 49.7109 11.0897C54.2344 35.9201 33.2409 57.625 8.92309 57.625C8.57647 57.625 8.33487 57.4975 8.17739 57.3204C8.01583 57.1386 7.92969 56.8892 7.92969 56.6316C7.92969 56.374 8.01583 56.1246 8.17739 55.9428C8.33487 55.7656 8.57647 55.6381 8.92309 55.6381C31.9882 55.6381 52.3086 34.5195 47.7145 11.544C47.0228 7.94753 46.1862 5.41357 45.0463 3.8461L44.7314 3.41309L44.6016 3.9325C43.5005 8.33671 41.9862 12.4672 40.1951 16.463C40.05 16.7816 39.8369 16.9436 39.6186 17.0078C39.394 17.0739 39.1396 17.0431 38.9116 16.9291C38.4584 16.7025 38.1606 16.1819 38.4389 15.5663C40.5124 11.2806 42.1732 6.57994 43.146 1.46459L43.3942 1.09232L43.4362 1.02933V0.953631C43.4362 0.879929 43.4374 0.8415 43.446 0.807026C43.4525 0.780942 43.4648 0.752281 43.5011 0.715953C43.72 0.49721 44.0647 0.374756 44.4297 0.374756C44.7066 0.375008 44.9217 0.378513 45.1337 0.480377C45.9971 1.05211 47.2676 1.54117 48.9258 1.973C50.5968 2.40818 52.6798 2.78971 55.1715 3.13575L55.1714 3.13613L55.1851 3.13727C55.5317 3.16614 55.7569 3.31337 55.8928 3.50103C56.0326 3.69411 56.0914 3.94933 56.0627 4.20756C56.034 4.46559 55.9197 4.71009 55.7355 4.88069C55.5562 5.04667 55.2993 5.15386 54.9547 5.12622C51.5012 4.71168 49.1781 4.29968 47.9625 3.89446L47.4187 3.71317L47.6559 4.23506Z" fill="#4277FD" stroke="white" stroke-width="0.5"/>
</svg>
