<svg width="74" height="10" viewBox="0 0 74 10" fill="none" xmlns="http://www.w3.org/2000/svg">
<path d="M10.6924 0.904767C10.4395 0.904244 10.1921 0.979333 9.9817 1.12052C9.77127 1.26172 9.60723 1.46264 9.51039 1.69782C9.41354 1.933 9.38826 2.19184 9.43774 2.44151C9.48722 2.69117 9.60924 2.92042 9.78832 3.10018C9.90775 3.2229 10.0503 3.32039 10.2076 3.38695C10.365 3.45351 10.5339 3.48779 10.7046 3.48779C10.8752 3.48779 11.0442 3.45351 11.2015 3.38695C11.3588 3.32039 11.5014 3.2229 11.6208 3.10018C11.7999 2.92042 11.9219 2.69117 11.9714 2.44151C12.0209 2.19184 11.9956 1.933 11.8988 1.69782C11.8019 1.46264 11.6379 1.26172 11.4274 1.12052C11.217 0.979333 10.9697 0.904244 10.7168 0.904767" fill="#9BB1E9"/>
<path d="M2.95653 0.892558C2.614 0.892558 2.2855 1.02862 2.0433 1.27083C1.80109 1.51303 1.66502 1.84154 1.66502 2.18407C1.66502 2.5266 1.80109 2.85511 2.0433 3.09732C2.2855 3.33952 2.614 3.47559 2.95653 3.47559C3.29906 3.47559 3.62756 3.33952 3.86977 3.09732C4.11197 2.85511 4.24805 2.5266 4.24805 2.18407C4.24805 1.84154 4.11197 1.51303 3.86977 1.27083C3.62756 1.02862 3.29906 0.892558 2.95653 0.892558Z" fill="#9BB1E9"/>
<path d="M10.7111 7.38084C10.4125 7.38205 10.1236 7.48665 9.89351 7.67684C9.66339 7.86704 9.50627 8.13108 9.44887 8.42405C9.39148 8.71703 9.43737 9.02084 9.57871 9.28381C9.72006 9.54678 9.94814 9.75265 10.2242 9.86642C10.5002 9.98018 10.8071 9.99481 11.0927 9.90781C11.3782 9.82081 11.6249 9.63756 11.7906 9.38922C11.9563 9.14089 12.0309 8.84282 12.0016 8.54571C11.9723 8.24861 11.841 7.97082 11.63 7.7596C11.3854 7.51754 11.0552 7.38148 10.7111 7.38084Z" fill="#9BB1E9"/>
<path d="M2.9663 7.39305C2.62377 7.39305 2.29527 7.52911 2.05306 7.77132C1.81086 8.01352 1.67478 8.34203 1.67478 8.68456C1.67478 9.02709 1.81086 9.35559 2.05306 9.59779C2.29527 9.84 2.62377 9.97607 2.9663 9.97607C3.30883 9.97607 3.63733 9.84 3.87953 9.59779C4.12174 9.35559 4.25781 9.02709 4.25781 8.68456C4.25781 8.34203 4.12174 8.01352 3.87953 7.77132C3.63733 7.52911 3.30883 7.39305 2.9663 7.39305Z" fill="#9BB1E9"/>
<path d="M41.7038 0.892561C41.4479 0.892034 41.1976 0.967488 40.9846 1.10937C40.7717 1.25124 40.6057 1.45315 40.5077 1.68947C40.4097 1.92579 40.3841 2.18589 40.4341 2.43677C40.4842 2.68765 40.6077 2.91801 40.7889 3.09864C41.0339 3.33732 41.3616 3.47234 41.7038 3.47559C41.9591 3.47489 42.2086 3.39854 42.4206 3.2562C42.6326 3.11385 42.7976 2.91189 42.8949 2.67582C42.9921 2.43975 43.0172 2.18017 42.9669 1.92986C42.9166 1.67956 42.7933 1.44977 42.6125 1.26951C42.3715 1.0284 42.0447 0.892817 41.7038 0.892561Z" fill="#9BB1E9"/>
<path d="M26.2026 0.892558C25.8601 0.892558 25.5316 1.02862 25.2894 1.27083C25.0472 1.51303 24.9111 1.84154 24.9111 2.18407C24.9111 2.5266 25.0472 2.85511 25.2894 3.09732C25.5316 3.33952 25.8601 3.47559 26.2026 3.47559C26.5452 3.47559 26.8737 3.33952 27.1159 3.09732C27.3581 2.85511 27.4941 2.5266 27.4941 2.18407C27.4941 1.84154 27.3581 1.51303 27.1159 1.27083C26.8737 1.02862 26.5452 0.892558 26.2026 0.892558Z" fill="#9BB1E9"/>
<path d="M33.9526 0.892558C33.6101 0.892558 33.2816 1.02862 33.0394 1.27083C32.7972 1.51303 32.6611 1.84154 32.6611 2.18407C32.6611 2.5266 32.7972 2.85511 33.0394 3.09732C33.2816 3.33952 33.6101 3.47559 33.9526 3.47559C34.2952 3.47559 34.6237 3.33952 34.8659 3.09732C35.1081 2.85511 35.2441 2.5266 35.2441 2.18407C35.2441 1.84154 35.1081 1.51303 34.8659 1.27083C34.6237 1.02862 34.2952 0.892558 33.9526 0.892558Z" fill="#9BB1E9"/>
<path d="M18.4495 0.892564C18.2806 0.892012 18.1133 0.925055 17.9573 0.98977C17.8013 1.05448 17.6597 1.14958 17.5408 1.26951C17.36 1.44977 17.2367 1.67956 17.1864 1.92987C17.1361 2.18017 17.1612 2.43976 17.2584 2.67582C17.3557 2.91189 17.5207 3.11385 17.7327 3.2562C17.9447 3.39854 18.1942 3.47489 18.4495 3.47559C18.7917 3.47234 19.1194 3.33732 19.3644 3.09864C19.5456 2.91801 19.6691 2.68765 19.7192 2.43677C19.7692 2.18589 19.7436 1.92579 19.6456 1.68947C19.5476 1.45315 19.3816 1.25125 19.1687 1.10937C18.9557 0.967492 18.7054 0.892038 18.4495 0.892564Z" fill="#9BB1E9"/>
<path d="M41.7065 7.41753C41.3656 7.41753 41.0385 7.55231 40.7974 7.79222C40.5563 8.03213 40.4209 8.35752 40.4209 8.6968C40.4209 9.03609 40.5563 9.36147 40.7974 9.60138C41.0385 9.84129 41.3656 9.97607 41.7065 9.97607C42.0458 9.97582 42.3711 9.84152 42.6108 9.6027C42.7351 9.48389 42.834 9.34133 42.9015 9.18356C42.9691 9.02578 43.0039 8.85605 43.0039 8.68456C43.0039 8.51307 42.9691 8.34335 42.9015 8.18557C42.834 8.0278 42.7351 7.88523 42.6108 7.76642C42.3711 7.5276 42.0458 7.3933 41.7065 7.39305" fill="#9BB1E9"/>
<path d="M26.2124 7.39305C25.8699 7.39305 25.5414 7.52911 25.2992 7.77132C25.057 8.01352 24.9209 8.34203 24.9209 8.68456C24.9209 9.02709 25.057 9.35559 25.2992 9.59779C25.5414 9.84 25.8699 9.97607 26.2124 9.97607C26.5549 9.97607 26.8834 9.84 27.1256 9.59779C27.3678 9.35559 27.5039 9.02709 27.5039 8.68456C27.5039 8.34203 27.3678 8.01352 27.1256 7.77132C26.8834 7.52911 26.5549 7.39305 26.2124 7.39305Z" fill="#9BB1E9"/>
<path d="M33.9624 7.39305C33.6199 7.39305 33.2914 7.52911 33.0492 7.77132C32.807 8.01352 32.6709 8.34203 32.6709 8.68456C32.6709 9.02709 32.807 9.35559 33.0492 9.59779C33.2914 9.84 33.6199 9.97607 33.9624 9.97607C34.3049 9.97607 34.6334 9.84 34.8756 9.59779C35.1178 9.35559 35.2539 9.02709 35.2539 8.68456C35.2539 8.34203 35.1178 8.01352 34.8756 7.77132C34.6334 7.52911 34.3049 7.39305 33.9624 7.39305Z" fill="#9BB1E9"/>
<path d="M18.4702 7.41698C18.3021 7.41643 18.1356 7.44916 17.9804 7.51326C17.8251 7.57736 17.6842 7.67156 17.5659 7.79035C17.4416 7.90916 17.3427 8.05172 17.2752 8.20949C17.2076 8.36726 17.1728 8.53699 17.1728 8.70849C17.1728 8.87998 17.2076 9.0497 17.2752 9.20747C17.3427 9.36524 17.4416 9.50781 17.5659 9.62662C17.6842 9.74542 17.8251 9.8396 17.9804 9.9037C18.1356 9.9678 18.3021 10.0005 18.4702 9.99999C18.8112 9.99999 19.1382 9.86521 19.3793 9.6253C19.6204 9.38539 19.7559 9.06 19.7559 8.72072C19.7559 8.38144 19.6204 8.05606 19.3793 7.81615C19.1382 7.57624 18.8112 7.44146 18.4702 7.44146" fill="#9BB1E9"/>
<path d="M72.6887 0.923564C72.3506 0.924197 72.0264 1.05796 71.7861 1.29594C71.5435 1.53879 71.4072 1.86818 71.4072 2.21162C71.4072 2.55507 71.5435 2.88445 71.7861 3.1273C72.0287 3.37016 72.3578 3.50659 72.7009 3.50659C73.044 3.50659 73.373 3.37016 73.6156 3.1273C73.7944 2.94886 73.9162 2.72129 73.9656 2.47345C74.015 2.22561 73.9897 1.96868 73.8931 1.73523C73.7964 1.50177 73.6326 1.30232 73.4225 1.16216C73.2125 1.02201 72.9655 0.947458 72.7131 0.947978" fill="#9BB1E9"/>
<path d="M57.2007 0.892558C56.8581 0.892558 56.5296 1.02862 56.2874 1.27083C56.0452 1.51303 55.9092 1.84154 55.9092 2.18407C55.9092 2.5266 56.0452 2.85511 56.2874 3.09732C56.5296 3.33952 56.8581 3.47559 57.2007 3.47559C57.5432 3.47559 57.8717 3.33952 58.1139 3.09732C58.3561 2.85511 58.4922 2.5266 58.4922 2.18407C58.4922 1.84154 58.3561 1.51303 58.1139 1.27083C57.8717 1.02862 57.5432 0.892558 57.2007 0.892558Z" fill="#9BB1E9"/>
<path d="M64.9487 0.892558C64.6062 0.892558 64.2777 1.02862 64.0355 1.27083C63.7933 1.51303 63.6572 1.84154 63.6572 2.18407C63.6572 2.5266 63.7933 2.85511 64.0355 3.09732C64.2777 3.33952 64.6062 3.47559 64.9487 3.47559C65.2913 3.47559 65.6198 3.33952 65.862 3.09732C66.1042 2.85511 66.2402 2.5266 66.2402 2.18407C66.2402 1.84154 66.1042 1.51303 65.862 1.27083C65.6198 1.02862 65.2913 0.892558 64.9487 0.892558Z" fill="#9BB1E9"/>
<path d="M49.4538 0.892564C49.1979 0.892038 48.9476 0.967492 48.7346 1.10937C48.5217 1.25125 48.3557 1.45315 48.2577 1.68947C48.1597 1.92579 48.1341 2.18589 48.1841 2.43677C48.2342 2.68765 48.3577 2.91801 48.5389 3.09864C48.7839 3.33732 49.1116 3.47234 49.4538 3.47559C49.7091 3.47489 49.9586 3.39854 50.1706 3.2562C50.3826 3.11385 50.5476 2.91189 50.6449 2.67582C50.7421 2.43976 50.7672 2.18017 50.7169 1.92987C50.6666 1.67956 50.5433 1.44977 50.3624 1.26951C50.2436 1.14958 50.102 1.05448 49.946 0.98977C49.79 0.925055 49.6227 0.892012 49.4538 0.892564Z" fill="#9BB1E9"/>
<path d="M72.7161 7.41697C72.3748 7.41761 72.0476 7.55173 71.805 7.79035C71.6821 7.91003 71.5845 8.05287 71.5179 8.21053C71.4513 8.36818 71.417 8.53748 71.417 8.70849C71.417 8.8795 71.4513 9.04879 71.5179 9.20644C71.5845 9.3641 71.6821 9.50695 71.805 9.62663C71.9547 9.77504 72.1388 9.88448 72.3412 9.94529C72.5435 10.0061 72.7578 10.0164 72.9651 9.97527C73.1724 9.93415 73.3664 9.84286 73.5298 9.7095C73.6931 9.57614 73.821 9.4048 73.9019 9.21063C73.9829 9.01647 74.0145 8.80546 73.9939 8.59627C73.9733 8.38708 73.9012 8.18616 73.784 8.01125C73.6668 7.83635 73.508 7.69287 73.3217 7.59348C73.1355 7.4941 72.9274 7.44188 72.7161 7.44145" fill="#9BB1E9"/>
<path d="M57.2104 7.39305C56.8679 7.39305 56.5394 7.52911 56.2972 7.77132C56.055 8.01352 55.9189 8.34203 55.9189 8.68456C55.9189 9.02709 56.055 9.35559 56.2972 9.59779C56.5394 9.84 56.8679 9.97607 57.2104 9.97607C57.553 9.97607 57.8815 9.84 58.1237 9.59779C58.3659 9.35559 58.502 9.02709 58.502 8.68456C58.502 8.34203 58.3659 8.01352 58.1237 7.77132C57.8815 7.52911 57.553 7.39305 57.2104 7.39305Z" fill="#9BB1E9"/>
<path d="M64.9585 7.39305C64.616 7.39305 64.2874 7.52911 64.0452 7.77132C63.803 8.01352 63.667 8.34203 63.667 8.68456C63.667 9.02709 63.803 9.35559 64.0452 9.59779C64.2874 9.84 64.616 9.97607 64.9585 9.97607C65.301 9.97607 65.6295 9.84 65.8717 9.59779C66.1139 9.35559 66.25 9.02709 66.25 8.68456C66.25 8.34203 66.1139 8.01352 65.8717 7.77132C65.6295 7.52911 65.301 7.39305 64.9585 7.39305Z" fill="#9BB1E9"/>
<path d="M49.4546 7.41754C49.1136 7.41754 48.7866 7.55231 48.5455 7.79222C48.3044 8.03213 48.1689 8.35752 48.1689 8.6968C48.1689 9.03609 48.3044 9.36147 48.5455 9.60138C48.7866 9.84129 49.1136 9.97607 49.4546 9.97607C49.6227 9.97661 49.7892 9.94389 49.9444 9.87978C50.0997 9.81568 50.2405 9.72149 50.3589 9.60269C50.4831 9.48389 50.582 9.34133 50.6496 9.18355C50.7171 9.02578 50.752 8.85605 50.752 8.68456C50.752 8.51307 50.7171 8.34335 50.6496 8.18558C50.582 8.0278 50.4831 7.88523 50.3589 7.76643C50.2405 7.64763 50.0997 7.55344 49.9444 7.48934C49.7892 7.42523 49.6227 7.39251 49.4546 7.39305" fill="#9BB1E9"/>
</svg>
