<svg width="24" height="24" viewBox="0 0 24 24" fill="none" xmlns="http://www.w3.org/2000/svg">
<path d="M19.6585 9.70104L12.6585 3.57604C12.2815 3.24614 11.7185 3.24614 11.3415 3.57604L4.3415 9.70104C4.12448 9.89092 4 10.1653 4 10.4536L4 18.9998C4 19.5521 4.44772 19.9998 5 19.9998H9C9.55228 19.9998 10 19.5521 10 18.9998L10 14.9998C10 14.4476 10.4477 13.9998 11 13.9998H13C13.5523 13.9998 14 14.4476 14 14.9998V18.9998C14 19.5521 14.4477 19.9998 15 19.9998L19 19.9998C19.5523 19.9998 20 19.5521 20 18.9998L20 10.4536C20 10.1653 19.8755 9.89093 19.6585 9.70104Z" stroke="#4E5461" stroke-width="1.5" stroke-linecap="round" stroke-linejoin="round"/>
</svg>
