<svg width="68" height="75" viewBox="0 0 68 75" fill="none" xmlns="http://www.w3.org/2000/svg">
<path d="M57.401 17.8033V60.8126C57.401 63.1255 55.496 64.9999 53.1493 64.9999H13.8513C11.5028 64.9999 9.59961 63.1255 9.59961 60.8126V4.18729C9.59948 1.87434 11.5027 0 13.8513 0H39.3238L57.401 17.8033Z" fill="#4277FD"/>
<path d="M45.7213 32.6338H21.2773V35.3088H45.7213V32.6338Z" fill="white"/>
<path d="M45.7213 38.6084H21.2773V41.2834H45.7213V38.6084Z" fill="white"/>
<path d="M45.7213 44.582H21.2773V47.2571H45.7213V44.582Z" fill="white"/>
<path d="M38.661 50.5566H21.2773V53.2317H38.661V50.5566Z" fill="white"/>
<path d="M41.7891 17.4164L57.3999 23.7502V17.8032L48.549 15.2295L41.7891 17.4164Z" fill="#3A5BBC"/>
<path d="M57.4014 17.8033H43.5759C41.2273 17.8033 39.3242 15.9289 39.3242 13.616V0L57.4014 17.8033Z" fill="#ACD1FC"/>
<path d="M54.5929 74.8088C61.8238 74.8088 67.6857 69.0313 67.6857 61.9044C67.6857 54.7775 61.8238 49 54.5929 49C47.3619 49 41.5 54.7775 41.5 61.9044C41.5 69.0313 47.3619 74.8088 54.5929 74.8088Z" fill="#4277FD"/>
<path d="M55.0786 72.3382C61.1971 72.3382 66.1571 67.4496 66.1571 61.4191C66.1571 55.3887 61.1971 50.5 55.0786 50.5C48.96 50.5 44 55.3887 44 61.4191C44 67.4496 48.96 72.3382 55.0786 72.3382Z" fill="white"/>
<path d="M58.5002 57.7495H51.5V65.9164C51.5 66.2385 51.7612 66.4997 52.0833 66.4997H57.9168C58.239 66.4997 58.5002 66.2385 58.5002 65.9164V57.7495Z" fill="#4277FD" stroke="#4277FD" stroke-width="0.984398" stroke-linecap="round" stroke-linejoin="round"/>
<path d="M56.167 60.083L56.167 64.1664" stroke="white" stroke-width="0.984398" stroke-linecap="round" stroke-linejoin="round"/>
<path d="M53.835 60.083L53.835 64.1664" stroke="white" stroke-width="0.984398" stroke-linecap="round" stroke-linejoin="round"/>
<path d="M50.334 57.7495H59.6675" stroke="#4277FD" stroke-width="0.984398" stroke-linecap="round" stroke-linejoin="round"/>
<path d="M56.7514 55.9995H53.2513C52.9291 55.9995 52.668 56.2607 52.668 56.5829V57.7496H57.3347V56.5829C57.3347 56.2607 57.0736 55.9995 56.7514 55.9995Z" stroke="#4277FD" stroke-width="0.984398" stroke-linecap="round" stroke-linejoin="round"/>
</svg>
