<svg width="65" height="64" viewBox="0 0 65 64" fill="none" xmlns="http://www.w3.org/2000/svg">
<path d="M48.4997 56H16.4997C15.0269 56 13.833 54.8061 13.833 53.3333L13.833 10.6667C13.833 9.19391 15.0269 8 16.4997 8L36.6679 8C37.4107 8 38.1199 8.30985 38.6246 8.85491L50.4564 21.6332C50.9128 22.1262 51.1663 22.7732 51.1663 23.445V53.3333C51.1663 54.8061 49.9724 56 48.4997 56Z" fill="#EEEEF0" stroke="#A2A7B3" stroke-width="2" stroke-linecap="round" stroke-linejoin="round"/>
<path d="M24.5 45.3334H40.5" stroke="#A2A7B3" stroke-width="2" stroke-linecap="round" stroke-linejoin="round"/>
<path d="M24.5 37.3334H40.5" stroke="#A2A7B3" stroke-width="2" stroke-linecap="round" stroke-linejoin="round"/>
<path d="M51.166 24L37.8327 24C36.3599 24 35.166 22.8061 35.166 21.3333L35.166 8" stroke="#A2A7B3" stroke-width="2" stroke-linecap="round" stroke-linejoin="round"/>
</svg>
