<svg width="36" height="36" viewBox="0 0 36 36" fill="none" xmlns="http://www.w3.org/2000/svg">
<rect width="36" height="36" rx="18" fill="#EEF2FB"/>
<path d="M13 17.1667L13 11.3333C13 10.8731 13.3731 10.5 13.8333 10.5L20.1359 10.5C20.368 10.5 20.5897 10.5968 20.7474 10.7672L24.4448 14.7604C24.5874 14.9144 24.6667 15.1166 24.6667 15.3266V24.6667C24.6667 25.1269 24.2936 25.5 23.8333 25.5H18.8333" stroke="#4277FD" stroke-width="1.25" stroke-linecap="round" stroke-linejoin="round"/>
<path d="M11.333 25.4993H13.4163L19.6663 19.2493L17.583 17.166L11.333 23.416V25.4993Z" stroke="#4277FD" stroke-width="1.25" stroke-linecap="round" stroke-linejoin="round"/>
<path d="M15.5 19.666L17.1667 21.3327" stroke="#4277FD" stroke-width="1.25" stroke-linecap="round" stroke-linejoin="round"/>
<path d="M24.667 15.5L20.5003 15.5C20.0401 15.5 19.667 15.1269 19.667 14.6667L19.667 10.5" stroke="#4277FD" stroke-width="1.25" stroke-linecap="round" stroke-linejoin="round"/>
</svg>
