<svg width="28" height="28" viewBox="0 0 28 28" fill="none" xmlns="http://www.w3.org/2000/svg">
<path d="M19.3036 17.6872H18.875V13.4095C18.875 10.8691 17.0125 8.7698 14.5893 8.42052V7.72016C14.5893 7.32227 14.2696 7 13.875 7C13.4804 7 13.1607 7.32227 13.1607 7.72016V8.42052C10.7375 8.7698 8.875 10.8691 8.875 13.4095V17.6872H8.44643C8.13036 17.6872 7.875 17.9447 7.875 18.2634V18.8395C7.875 18.9187 7.93929 18.9835 8.01786 18.9835H11.875C11.875 20.0962 12.7714 21 13.875 21C14.9786 21 15.875 20.0962 15.875 18.9835H19.7321C19.8107 18.9835 19.875 18.9187 19.875 18.8395V18.2634C19.875 17.9447 19.6196 17.6872 19.3036 17.6872ZM13.875 19.8477C13.4018 19.8477 13.0179 19.4606 13.0179 18.9835H14.7321C14.7321 19.4606 14.3482 19.8477 13.875 19.8477ZM10.1607 17.6872V13.4095C10.1607 12.4084 10.5464 11.4686 11.2482 10.7611C11.95 10.0535 12.8821 9.66461 13.875 9.66461C14.8679 9.66461 15.8 10.0535 16.5018 10.7611C17.2036 11.4686 17.5893 12.4084 17.5893 13.4095V17.6872H10.1607Z" fill="#777C8C"/>
</svg>
