<svg width="36" height="36" viewBox="0 0 36 36" fill="none" xmlns="http://www.w3.org/2000/svg">
<rect width="36" height="36" rx="18" fill="#FFEBED"/>
<path d="M16.333 22.1673L19.6663 18.834" stroke="#D83243" stroke-width="1.5" stroke-linecap="round" stroke-linejoin="round"/>
<path d="M16.333 18.834L19.6663 22.1673" stroke="#D83243" stroke-width="1.5" stroke-linecap="round" stroke-linejoin="round"/>
<path d="M23.0003 25.5H13.0003C12.5401 25.5 12.167 25.1269 12.167 24.6667L12.167 11.3333C12.167 10.8731 12.5401 10.5 13.0003 10.5L19.3029 10.5C19.535 10.5 19.7566 10.5968 19.9144 10.7672L23.6118 14.7604C23.7544 14.9144 23.8337 15.1166 23.8337 15.3266L23.8337 24.6667C23.8337 25.1269 23.4606 25.5 23.0003 25.5Z" stroke="#D83243" stroke-width="1.5" stroke-linecap="round" stroke-linejoin="round"/>
<path d="M23.833 15.5L19.6663 15.5C19.2061 15.5 18.833 15.1269 18.833 14.6667L18.833 10.5" stroke="#D83243" stroke-width="1.5" stroke-linecap="round" stroke-linejoin="round"/>
</svg>
