<svg width="234" height="243" viewBox="0 0 234 243" fill="none" xmlns="http://www.w3.org/2000/svg">
<g filter="url(#filter0_d_7193_30726)">
<rect width="207" height="216" transform="translate(5.5 5.5)" fill="white"/>
<rect x="22" y="43.5" width="173" height="2" fill="#E8EBF4"/>
<rect x="22" y="57" width="173" height="2" fill="#E8EBF4"/>
<rect x="22" y="19.5" width="173" height="13" fill="#E8EBF4"/>
<rect x="22.5" y="159.5" width="172" height="35" stroke="#E8EBF4"/>
<path d="M76.8061 180.364L76.9531 177.775L74.7798 179.2L74 177.845L76.3203 176.682L74 175.518L74.7798 174.163L76.9531 175.589L76.8061 173H78.3594L78.2188 175.589L80.392 174.163L81.1719 175.518L78.8452 176.682L81.1719 177.845L80.392 179.2L78.2188 177.775L78.3594 180.364H76.8061Z" fill="#4277FD"/>
<path d="M94.978 180.364L95.125 177.775L92.9517 179.2L92.1719 177.845L94.4922 176.682L92.1719 175.518L92.9517 174.163L95.125 175.589L94.978 173H96.5312L96.3906 175.589L98.5639 174.163L99.3438 175.518L97.017 176.682L99.3438 177.845L98.5639 179.2L96.3906 177.775L96.5312 180.364H94.978Z" fill="#4277FD"/>
<path d="M113.15 180.364L113.297 177.775L111.124 179.2L110.344 177.845L112.664 176.682L110.344 175.518L111.124 174.163L113.297 175.589L113.15 173H114.703L114.562 175.589L116.736 174.163L117.516 175.518L115.189 176.682L117.516 177.845L116.736 179.2L114.562 177.775L114.703 180.364H113.15Z" fill="#4277FD"/>
<path d="M131.322 180.364L131.469 177.775L129.295 179.2L128.516 177.845L130.836 176.682L128.516 175.518L129.295 174.163L131.469 175.589L131.322 173H132.875L132.734 175.589L134.908 174.163L135.688 175.518L133.361 176.682L135.688 177.845L134.908 179.2L132.734 177.775L132.875 180.364H131.322Z" fill="#4277FD"/>
<path d="M149.494 180.364L149.641 177.775L147.467 179.2L146.688 177.845L149.008 176.682L146.688 175.518L147.467 174.163L149.641 175.589L149.494 173H151.047L150.906 175.589L153.08 174.163L153.859 175.518L151.533 176.682L153.859 177.845L153.08 179.2L150.906 177.775L151.047 180.364H149.494Z" fill="#4277FD"/>
<path d="M94.8133 136.375C93.6848 136.375 92.719 135.973 91.9158 135.168C91.1109 134.365 90.7085 133.399 90.7085 132.27V109.98C90.7085 108.851 91.1109 107.885 91.9158 107.082C92.719 106.277 93.6848 105.875 94.8133 105.875H98.3335V100.792C98.3335 97.9603 99.3197 95.5575 101.292 93.5835C103.264 91.6095 105.667 90.6233 108.5 90.625C111.332 90.625 113.734 91.6112 115.708 93.5835C117.682 95.5558 118.669 97.9586 118.667 100.792V105.875H122.187C123.316 105.875 124.281 106.277 125.085 107.082C125.889 107.885 126.292 108.851 126.292 109.98V132.27C126.292 133.399 125.889 134.365 125.085 135.168C124.281 135.973 123.316 136.375 122.187 136.375H94.8133ZM108.5 124.938C109.573 124.938 110.476 124.57 111.21 123.834C111.945 123.101 112.313 122.198 112.313 121.125C112.313 120.052 111.945 119.149 111.21 118.416C110.476 117.68 109.573 117.313 108.5 117.313C107.428 117.313 106.524 117.68 105.791 118.416C105.055 119.149 104.688 120.052 104.688 121.125C104.688 122.198 105.055 123.101 105.791 123.834C106.524 124.57 107.428 124.938 108.5 124.938ZM100.875 105.875H116.125V100.792C116.125 98.6736 115.384 96.8733 113.901 95.3906C112.419 93.908 110.618 93.1667 108.5 93.1667C106.382 93.1667 104.582 93.908 103.099 95.3906C101.616 96.8733 100.875 98.6736 100.875 100.792V105.875Z" fill="#E8EBF4"/>
</g>
<defs>
<filter id="filter0_d_7193_30726" x="0.5" y="0.5" width="233" height="242" filterUnits="userSpaceOnUse" color-interpolation-filters="sRGB">
<feFlood flood-opacity="0" result="BackgroundImageFix"/>
<feColorMatrix in="SourceAlpha" type="matrix" values="0 0 0 0 0 0 0 0 0 0 0 0 0 0 0 0 0 0 127 0" result="hardAlpha"/>
<feOffset dx="8" dy="8"/>
<feGaussianBlur stdDeviation="6.5"/>
<feComposite in2="hardAlpha" operator="out"/>
<feColorMatrix type="matrix" values="0 0 0 0 0.168627 0 0 0 0 0.192157 0 0 0 0 0.247059 0 0 0 0.08 0"/>
<feBlend mode="normal" in2="BackgroundImageFix" result="effect1_dropShadow_7193_30726"/>
<feBlend mode="normal" in="SourceGraphic" in2="effect1_dropShadow_7193_30726" result="shape"/>
</filter>
</defs>
</svg>
