<svg width="64" height="65" viewBox="0 0 64 65" fill="none" xmlns="http://www.w3.org/2000/svg">
<g id="mdi:cloud-upload" clip-path="url(#clip0_447_20289)">
<path id="Vector" d="M18.6667 36.167H25.6667V45.8337C25.6667 46.3859 26.1144 46.8337 26.6667 46.8337H37.3333C37.8856 46.8337 38.3333 46.3859 38.3333 45.8337V36.167H45.3333C45.7378 36.167 46.1024 35.9234 46.2572 35.5497C46.412 35.176 46.3264 34.7459 46.0404 34.4599L32.7071 21.1266C32.3166 20.736 31.6834 20.736 31.2929 21.1266L17.9596 34.4599C17.6736 34.7459 17.588 35.176 17.7428 35.5497C17.8976 35.9234 18.2622 36.167 18.6667 36.167ZM50.6192 27.4419C50.7069 27.8832 51.0784 28.2115 51.5271 28.2443C57.9502 28.7137 63 33.9967 63 40.5003C63 42.12 62.681 43.7237 62.0612 45.2201C61.4414 46.7164 60.5329 48.0761 59.3876 49.2213C58.2424 50.3666 56.8828 51.275 55.3864 51.8948C53.8901 52.5146 52.2863 52.8337 50.6667 52.8337H16C12.0218 52.8337 8.20644 51.2533 5.3934 48.4403C2.58035 45.6272 1 41.8119 1 37.8337L1 37.8334C0.998938 34.1347 2.3635 30.5658 4.83194 27.8113C7.30038 25.0568 10.6989 23.3106 14.3756 22.9077C14.7069 22.8714 14.9983 22.6724 15.1528 22.3771C18.3208 16.3199 24.6807 12.167 32 12.167L32.0005 12.167C36.3922 12.1648 40.6487 13.6863 44.044 16.4718C47.4393 19.2573 49.7631 23.1344 50.6192 27.4419Z" fill="#D0D3D9" stroke="#A2A7B3" stroke-width="2" stroke-linejoin="round"/>
</g>
<defs>
<clipPath id="clip0_447_20289">
<rect width="64" height="64" fill="white" transform="translate(0 0.5)"/>
</clipPath>
</defs>
</svg>
