<svg width="68" height="76" viewBox="0 0 68 76" fill="none" xmlns="http://www.w3.org/2000/svg">
<path d="M57.401 18.3033V61.3126C57.401 63.6255 55.496 65.4999 53.1493 65.4999H13.8513C11.5028 65.4999 9.59961 63.6255 9.59961 61.3126V4.68729C9.59948 2.37434 11.5027 0.5 13.8513 0.5H39.3238L57.401 18.3033Z" fill="#4277FD"/>
<path d="M45.7213 33.1338H21.2773V35.8088H45.7213V33.1338Z" fill="white"/>
<path d="M45.7213 39.1084H21.2773V41.7834H45.7213V39.1084Z" fill="white"/>
<path d="M45.7213 45.082H21.2773V47.7571H45.7213V45.082Z" fill="white"/>
<path d="M38.661 51.0566H21.2773V53.7317H38.661V51.0566Z" fill="white"/>
<path d="M41.7891 17.9164L57.3999 24.2502V18.3032L48.549 15.7295L41.7891 17.9164Z" fill="#3A5BBC"/>
<path d="M57.4014 18.3033H43.5759C41.2273 18.3033 39.3242 16.4289 39.3242 14.116V0.5L57.4014 18.3033Z" fill="#ACD1FC"/>
<path d="M54.5929 75.3088C61.8238 75.3088 67.6857 69.5313 67.6857 62.4044C67.6857 55.2775 61.8238 49.5 54.5929 49.5C47.3619 49.5 41.5 55.2775 41.5 62.4044C41.5 69.5313 47.3619 75.3088 54.5929 75.3088Z" fill="#4277FD"/>
<path d="M54.5942 73.3236C60.7127 73.3236 65.6728 68.4349 65.6728 62.4045C65.6728 56.374 60.7127 51.4854 54.5942 51.4854C48.4757 51.4854 43.5156 56.374 43.5156 62.4045C43.5156 68.4349 48.4757 73.3236 54.5942 73.3236Z" fill="white"/>
<g clip-path="url(#clip0_7884_125215)">
<path d="M56.4929 67.3844C56.507 67.3686 56.5163 67.3491 56.5196 67.3282C56.523 67.3074 56.5203 67.286 56.5119 67.2666C56.5034 67.2472 56.4896 67.2306 56.472 67.2189C56.4544 67.2071 56.4339 67.2006 56.4127 67.2002H53.4531C53.4319 67.2006 53.4113 67.2071 53.3938 67.2189C53.3762 67.2306 53.3624 67.2472 53.3539 67.2666C53.3455 67.286 53.3428 67.3074 53.3461 67.3282C53.3495 67.3491 53.3588 67.3686 53.3729 67.3844C53.5719 67.5994 53.8132 67.771 54.0816 67.8883C54.3501 68.0056 54.6399 68.0662 54.9329 68.0662C55.2259 68.0662 55.5157 68.0056 55.7841 67.8883C56.0526 67.771 56.2939 67.5994 56.4929 67.3844Z" fill="#4277FD"/>
<path d="M60.6702 65.1377C60.225 64.6923 59.8719 64.1637 59.631 63.5819C59.3901 63.0001 59.2661 62.3765 59.2662 61.7468V60.3797C59.2662 58.0245 57.4354 56.0138 55.0802 55.9337C54.4989 55.9139 53.9195 56.0113 53.3766 56.2202C52.8338 56.4291 52.3385 56.7452 51.9204 57.1496C51.5023 57.5539 51.1698 58.0384 50.9429 58.5739C50.716 59.1095 50.5992 59.6853 50.5995 60.267V61.7468C50.5996 62.3765 50.4757 63.0001 50.2348 63.5819C49.9939 64.1637 49.6408 64.6923 49.1955 65.1377L49.02 65.3132C48.9217 65.4114 48.8664 65.5446 48.8662 65.6837V65.8072C48.8659 65.8762 48.8793 65.9446 48.9055 66.0085C48.9317 66.0723 48.9703 66.1304 49.019 66.1793C49.0677 66.2282 49.1256 66.2671 49.1894 66.2935C49.2532 66.32 49.3215 66.3337 49.3905 66.3337H60.4752C60.6143 66.3337 60.7476 66.2784 60.846 66.1801C60.9443 66.0818 60.9995 65.9484 60.9995 65.8093V65.6837C60.9994 65.5446 60.9441 65.4114 60.8457 65.3132L60.6702 65.1377Z" fill="#4277FD"/>
</g>
<defs>
<clipPath id="clip0_7884_125215">
<rect width="13.8667" height="13.8667" fill="white" transform="translate(48 55.0669)"/>
</clipPath>
</defs>
</svg>
