<svg width="15" height="16" viewBox="0 0 15 16" fill="none" xmlns="http://www.w3.org/2000/svg">
<path d="M9.375 11.125H5.625V11.75C5.625 12.7855 6.46447 13.625 7.5 13.625C8.53553 13.625 9.375 12.7855 9.375 11.75V11.125Z" stroke="#4277FD" stroke-width="1.2" stroke-linecap="round" stroke-linejoin="round"/>
<path d="M3.125 11.125H11.875C12.2202 11.125 12.5 10.8452 12.5 10.5V10.1339C12.5 9.96813 12.4342 9.80916 12.3169 9.69195L11.9977 9.37266C11.9191 9.29412 11.875 9.18758 11.875 9.0765V6.75C11.875 4.33375 9.91624 2.37499 7.49999 2.375C5.08375 2.37501 3.125 4.33376 3.125 6.75V9.07652C3.125 9.1876 3.08087 9.29414 3.00232 9.37269L2.68306 9.69195C2.56585 9.80916 2.5 9.96813 2.5 10.1339V10.5C2.5 10.8452 2.77982 11.125 3.125 11.125Z" stroke="#4277FD" stroke-width="1.2" stroke-linecap="round" stroke-linejoin="round"/>
<path d="M11.2617 1.7583C12.1237 2.40787 12.8028 3.26961 13.2329 4.25959" stroke="#4277FD" stroke-width="1.2" stroke-linecap="round" stroke-linejoin="round"/>
<path d="M3.73873 1.75879C2.87672 2.40836 2.19762 3.2701 1.76758 4.26008" stroke="#4277FD" stroke-width="1.2" stroke-linecap="round" stroke-linejoin="round"/>
</svg>
