<svg width="68" height="76" viewBox="0 0 68 76" fill="none" xmlns="http://www.w3.org/2000/svg">
<g clip-path="url(#clip0_7919_129126)">
<path d="M57.401 18.3033V61.3126C57.401 63.6255 55.496 65.4999 53.1493 65.4999H13.8513C11.5028 65.4999 9.59961 63.6255 9.59961 61.3126V4.68729C9.59948 2.37434 11.5027 0.5 13.8513 0.5H39.3238L57.401 18.3033Z" fill="#4277FD"/>
<path d="M45.7213 33.1338H21.2773V35.8088H45.7213V33.1338Z" fill="white"/>
<path d="M45.7213 39.1084H21.2773V41.7834H45.7213V39.1084Z" fill="white"/>
<path d="M45.7213 45.082H21.2773V47.7571H45.7213V45.082Z" fill="white"/>
<path d="M38.661 51.0566H21.2773V53.7317H38.661V51.0566Z" fill="white"/>
<path d="M41.7891 17.9164L57.3999 24.2502V18.3032L48.549 15.7295L41.7891 17.9164Z" fill="#3A5BBC"/>
<path d="M57.4014 18.3033H43.5759C41.2273 18.3033 39.3242 16.4289 39.3242 14.116V0.5L57.4014 18.3033Z" fill="#ACD1FC"/>
<path d="M54.5929 75.3088C61.8238 75.3088 67.6857 69.5313 67.6857 62.4044C67.6857 55.2775 61.8238 49.5 54.5929 49.5C47.3619 49.5 41.5 55.2775 41.5 62.4044C41.5 69.5313 47.3619 75.3088 54.5929 75.3088Z" fill="#4277FD"/>
<path d="M54.5942 73.3236C60.7127 73.3236 65.6728 68.4349 65.6728 62.4045C65.6728 56.374 60.7127 51.4854 54.5942 51.4854C48.4757 51.4854 43.5156 56.374 43.5156 62.4045C43.5156 68.4349 48.4757 73.3236 54.5942 73.3236Z" fill="white"/>
<path d="M49.75 58.5938C49.75 58.1379 49.919 57.7007 50.2198 57.3784C50.5207 57.0561 50.9287 56.875 51.3542 56.875H57.1671C57.6699 56.875 58.1521 57.0891 58.5076 57.47L59.6947 58.7419C60.0505 59.1231 60.25 59.64 60.25 60.1788V66.4062C60.25 66.8621 60.081 67.2993 59.7802 67.6216C59.4793 67.9439 59.0713 68.125 58.6458 68.125H51.3542C50.9287 68.125 50.5207 67.9439 50.2198 67.6216C49.919 67.2993 49.75 66.8621 49.75 66.4062V58.5938ZM51.3542 57.8125C50.9517 57.8125 50.625 58.1625 50.625 58.5938V66.4062C50.625 66.8375 50.9517 67.1875 51.3542 67.1875H51.5V63.9062C51.5 63.5333 51.6383 63.1756 51.8844 62.9119C52.1306 62.6482 52.4644 62.5 52.8125 62.5H57.1875C57.5356 62.5 57.8694 62.6482 58.1156 62.9119C58.3617 63.1756 58.5 63.5333 58.5 63.9062V67.1875H58.6458C59.0483 67.1875 59.375 66.8375 59.375 66.4062V60.1788C59.375 59.8881 59.2677 59.61 59.0757 59.405L57.8887 58.1331C57.738 57.9714 57.5438 57.8643 57.3333 57.8269V59.5312C57.3333 59.7159 57.2994 59.8988 57.2334 60.0694C57.1675 60.24 57.0708 60.395 56.9489 60.5256C56.827 60.6562 56.6823 60.7598 56.5231 60.8305C56.3639 60.9011 56.1932 60.9375 56.0208 60.9375H53.3958C53.0477 60.9375 52.7139 60.7893 52.4678 60.5256C52.2216 60.2619 52.0833 59.9042 52.0833 59.5312V57.8125H51.3542ZM57.625 67.1875V63.9062C57.625 63.7819 57.5789 63.6627 57.4969 63.5748C57.4148 63.4869 57.3035 63.4375 57.1875 63.4375H52.8125C52.6965 63.4375 52.5852 63.4869 52.5031 63.5748C52.4211 63.6627 52.375 63.7819 52.375 63.9062V67.1875H57.625ZM52.9583 57.8125V59.5312C52.9583 59.79 53.1543 60 53.3958 60H56.0208C56.1369 60 56.2481 59.9506 56.3302 59.8627C56.4122 59.7748 56.4583 59.6556 56.4583 59.5312V57.8125H52.9583Z" fill="#4277FD"/>
</g>
<defs>
<clipPath id="clip0_7919_129126">
<rect width="67" height="75" fill="white" transform="translate(0.5 0.5)"/>
</clipPath>
</defs>
</svg>
