<svg width="32" height="32" viewBox="0 0 32 32" fill="none" xmlns="http://www.w3.org/2000/svg">
<rect width="32" height="32" rx="16" fill="#F5E8FF"/>
<path d="M20.8004 23.1998H11.2004C10.7586 23.1998 10.4004 22.8416 10.4004 22.3998L10.4004 9.59981C10.4004 9.15798 10.7586 8.79981 11.2004 8.79981L17.2509 8.7998C17.4737 8.7998 17.6865 8.89276 17.8379 9.05628L21.3874 12.8898C21.5243 13.0377 21.6004 13.2318 21.6004 13.4333L21.6004 22.3998C21.6004 22.8416 21.2422 23.1998 20.8004 23.1998Z" stroke="#8219D4" stroke-width="1.25" stroke-linecap="round" stroke-linejoin="round"/>
<path d="M13.5996 20H18.3996" stroke="#8219D4" stroke-width="1.25" stroke-linecap="round" stroke-linejoin="round"/>
<path d="M13.5996 17.5999H18.3996" stroke="#8219D4" stroke-width="1.25" stroke-linecap="round" stroke-linejoin="round"/>
<path d="M21.6008 13.5998L17.6008 13.5998C17.159 13.5998 16.8008 13.2416 16.8008 12.7998L16.8008 8.7998" stroke="#8219D4" stroke-width="1.25" stroke-linecap="round" stroke-linejoin="round"/>
</svg>
