<svg width="32" height="32" viewBox="0 0 32 32" fill="none" xmlns="http://www.w3.org/2000/svg">
<rect width="32" height="32" rx="16" fill="#FFF5D5"/>
<g clip-path="url(#clip0_830_8117)">
<path d="M12.0728 6.76929C10.9812 6.76929 9.83969 7.47467 8.82738 8.78852C7.81507 10.1024 7.032 12.0824 7.07277 14.7024C7.07277 15.9531 7.472 17.3408 8.22661 18.5001C8.33738 18.6708 8.52892 18.7731 8.65892 18.9331C8.12969 19.5724 7.21661 20.7839 7.21661 20.7839C7.13469 20.8537 7.06833 20.9399 7.02182 21.037C6.97531 21.134 6.94969 21.2398 6.9466 21.3474C6.94352 21.455 6.96305 21.562 7.00393 21.6615C7.0448 21.7611 7.10612 21.851 7.18391 21.9254C7.2617 21.9998 7.35423 22.057 7.45552 22.0934C7.55682 22.1297 7.66462 22.1445 7.77195 22.1366C7.87929 22.1287 7.98378 22.0983 8.07866 22.0475C8.17354 21.9967 8.2567 21.9266 8.32277 21.8416C8.32277 21.8416 9.24815 20.6031 9.74046 20.0147C10.3082 20.3754 10.9574 20.6154 11.6882 20.6154C13.002 20.6154 14.2358 19.987 15.2935 19.1247C15.4435 19.0031 15.5343 18.8239 15.6782 18.6924C16.0174 18.9301 16.4166 19.077 16.8558 19.077C17.5935 19.077 18.2197 18.7254 18.7558 18.3077C19.2912 17.8901 19.7505 17.387 20.1735 16.8893C20.4574 16.5554 20.6651 16.2785 20.8951 16.0001C20.8666 16.3624 20.8435 16.7193 20.8466 17.0577C20.8482 17.2347 20.8558 17.3939 20.9189 17.6108C20.9497 17.7185 20.9774 17.8677 21.1112 18.0193C21.2451 18.1708 21.5174 18.3077 21.7597 18.3077C22.3882 18.3077 22.8558 17.9554 23.202 17.6108C23.5482 17.2654 23.8258 16.8685 24.1405 16.5047C24.7666 15.7777 25.3697 15.2308 26.2312 15.2308C26.4352 15.2308 26.6309 15.1498 26.7752 15.0055C26.9194 14.8613 27.0005 14.6656 27.0005 14.4616C27.0005 14.2576 26.9194 14.0619 26.7752 13.9177C26.6309 13.7734 26.4352 13.6924 26.2312 13.6924C24.7082 13.6924 23.6851 14.6847 22.9858 15.4954C22.7689 15.747 22.6058 15.9185 22.4335 16.1201C22.4351 16.0924 22.4312 16.0762 22.4335 16.0477C22.4628 15.657 22.5105 15.2762 22.4812 14.8939C22.4735 14.6784 22.4244 14.4663 22.3366 14.2693C22.2289 14.0339 21.8689 13.6924 21.4712 13.6924C21.0551 13.6924 20.8205 13.8754 20.6305 14.0293C20.4405 14.1831 20.2743 14.3616 20.1012 14.5577C19.7551 14.9501 19.3897 15.4162 18.9958 15.8801C18.6012 16.3439 18.1835 16.8024 17.7935 17.1062C17.4043 17.4093 17.0805 17.5385 16.8558 17.5385C16.8051 17.5385 16.7789 17.4516 16.7358 17.4424C17.1412 16.9554 17.6397 16.537 17.962 16.0239C18.6643 14.9039 19.1528 13.7954 19.3082 12.827C19.3858 12.3424 19.4135 11.8716 19.1882 11.4085C18.962 10.9462 18.3728 10.6154 17.842 10.6154C16.8074 10.6154 15.9374 11.2847 15.342 12.1777C14.7458 13.0716 14.3805 14.2439 14.3805 15.5431C14.3805 16.2177 14.592 16.7847 14.8128 17.3462C14.6297 17.5231 14.4974 17.7693 14.3082 17.9231C13.4189 18.6477 12.4889 19.077 11.6882 19.077C11.3397 19.077 11.0289 18.9247 10.7266 18.7647C11.0858 18.2862 11.1135 18.3493 11.4958 17.7785C13.0712 15.4254 14.6928 12.4177 14.6928 9.53467C14.6928 9.19236 14.6697 8.57313 14.3082 7.94775C13.9466 7.32159 13.1405 6.76929 12.0728 6.76929ZM12.0728 8.30775C12.6974 8.30775 12.8235 8.47698 12.962 8.71621C13.1005 8.95621 13.1543 9.33775 13.1543 9.5339C13.1543 11.8047 11.6989 14.6947 10.1974 16.9377C9.89046 17.3962 9.89046 17.3331 9.59661 17.7308C9.57584 17.7001 9.54507 17.6901 9.5243 17.6585C8.952 16.7793 8.61123 15.6047 8.61123 14.7016C8.61134 14.6939 8.61134 14.6862 8.61123 14.6785C8.57507 12.3747 9.25738 10.7824 10.0535 9.75006C10.8489 8.71775 11.8558 8.30775 12.0728 8.30775ZM17.7935 12.1777C17.8043 12.2347 17.8335 12.3362 17.7935 12.5862C17.6943 13.2047 17.2882 14.2116 16.6635 15.207C16.492 15.4801 16.2151 15.6839 16.0151 15.9524C15.9966 15.7924 15.9189 15.7185 15.9189 15.5431C15.9189 14.5354 16.2112 13.6254 16.6158 13.0193C17.002 12.4393 17.4489 12.2001 17.7935 12.1777ZM7.00046 23.6924V25.2308H27.0005V23.6924H7.00046Z" fill="#EFB008"/>
</g>
<defs>
<clipPath id="clip0_830_8117">
<rect width="20" height="20" fill="white" transform="translate(7 6)"/>
</clipPath>
</defs>
</svg>
