<svg width="42" height="45" viewBox="0 0 42 45" fill="none" xmlns="http://www.w3.org/2000/svg">
<g clip-path="url(#clip0_2862_18733)">
<path d="M11.4666 10.6535L17.658 10.6543C18.0829 12.174 19.2644 13.3728 20.7668 13.8043L20.7664 33.7417L12.722 40.0154L12.7157 40.0203L12.7097 40.0256L12.6066 40.1172L12.6005 40.1226L12.5948 40.1284C11.8487 40.8834 12.3478 42.25 13.4754 42.25H30.5246H30.5326L30.5407 42.2495L30.6775 42.2406L30.6857 42.2401L30.6939 42.239C31.7526 42.1 32.1612 40.7041 31.278 40.0154L23.2336 33.7417L23.2345 13.8039C24.7363 13.3721 25.9172 12.1735 26.342 10.6543L32.8553 10.6535L28.0106 19.4396L27.9795 19.4959V19.5603V19.8201H27.9795L27.9796 19.8249L27.9853 20.1212L27.9852 20.1212L27.9854 20.1261C28.1387 24.0819 31.2542 27.2716 35.1148 27.2716C39.0744 27.2716 42.25 23.9164 42.25 19.8201V19.576V19.5155L42.2224 19.4617L36.9799 9.25883L36.9802 9.25866L36.9732 9.24677L36.8791 9.08607L36.8795 9.08588L36.8718 9.07431C36.5664 8.61341 36.0877 8.3233 35.5723 8.24796C35.4305 8.19072 35.276 8.15931 35.1148 8.15931L26.3423 8.15976C25.8071 6.24338 24.0677 4.83569 22 4.83569C19.9323 4.83569 18.1929 6.24338 17.6576 8.15976L8.88526 8.15931L8.87674 8.15931L8.86824 8.15989L8.73477 8.16899L8.72621 8.16957L8.71772 8.17074C8.39493 8.21513 8.1134 8.3852 7.92116 8.62615C7.71895 8.78374 7.54961 8.98178 7.42428 9.20899L1.78109 19.4395L1.75 19.4959V19.5603V19.8201H1.74995L1.75005 19.8249L1.75578 20.1212L1.75573 20.1212L1.75592 20.1261C1.90914 24.0819 5.02467 27.2716 8.88525 27.2716C12.8449 27.2716 16.0205 23.9164 16.0205 19.8201V19.576V19.5155L15.9929 19.4617L11.4666 10.6535ZM26.9057 39.7558H17.0932L22 35.9303L26.9057 39.7558ZM8.3945 24.7503C6.52734 24.5428 4.97105 23.1598 4.42553 21.2897H13.345C12.7527 23.3204 10.9695 24.7759 8.88854 24.7774L8.64646 24.7709L8.3945 24.7503ZM34.624 24.7503C32.7569 24.5428 31.2006 23.1598 30.655 21.2897H39.5745C38.9819 23.3208 37.199 24.7759 35.118 24.7774L34.876 24.7709L34.624 24.7503ZM39.1 18.7949H31.1906L35.2853 11.3713L39.1 18.7949ZM12.8692 18.7949H4.95986L9.05573 11.3713L12.8692 18.7949ZM19.9549 9.40639C19.9549 8.25634 20.8737 7.32986 22 7.32986C23.1263 7.32986 24.0451 8.25634 24.0451 9.40639C24.0451 10.497 23.2184 11.387 22.1727 11.4756L22.0006 11.4827L21.8084 11.4739C21.0786 11.4052 20.4576 10.9461 20.1538 10.3008L20.115 10.2133C20.012 9.9656 19.9549 9.69311 19.9549 9.40639Z" fill="#2A5EE4" stroke="white" stroke-width="0.5"/>
<path d="M26.2631 9.42857C26.2631 11.9038 24.3255 13.8571 22 13.8571C19.6744 13.8571 17.7368 11.9038 17.7368 9.42857C17.7368 6.95334 19.6744 5 22 5C24.3255 5 26.2631 6.95334 26.2631 9.42857Z" fill="white" stroke="#20BFFC" stroke-width="2"/>
</g>
<defs>
<clipPath id="clip0_2862_18733">
<rect width="42" height="45" fill="white"/>
</clipPath>
</defs>
</svg>
