<svg width="45" height="45" viewBox="0 0 45 45" fill="none" xmlns="http://www.w3.org/2000/svg">
<path d="M26.9689 37.8108V37.8118L26.9789 37.8098L27.0085 37.8037C29.4667 37.8029 31.8705 37.0659 33.9216 35.684C35.9742 34.3013 37.583 32.3339 38.5485 30.0264C39.514 27.7189 39.7935 25.1729 39.3524 22.7048C38.9113 20.2367 37.7691 17.955 36.0674 16.1434C34.3657 14.3317 32.1796 13.07 29.7806 12.515C27.3816 11.96 24.8756 12.1363 22.574 13.022C20.2725 13.9077 18.277 15.4637 16.8352 17.4964C15.3936 19.5291 14.5692 21.9489 14.4644 24.4553C14.4472 24.7604 14.313 25.0461 14.0912 25.251C13.8694 25.4558 13.5777 25.5633 13.2791 25.5505C12.9805 25.5377 12.6986 25.4056 12.4943 25.1824C12.2901 24.9593 12.1799 24.663 12.1878 24.3575C12.3216 20.9875 13.5589 17.7606 15.7017 15.1925L15.7307 15.1578L15.6991 15.1255L14.9854 14.3974L14.9854 14.3974L14.9848 14.3968C14.8759 14.2895 14.789 14.1612 14.7292 14.0192C14.6694 13.8772 14.6379 13.7244 14.6366 13.5698C14.6353 13.4152 14.6642 13.2619 14.7216 13.1188C14.7789 12.9758 14.8636 12.8459 14.9707 12.7367C15.0777 12.6275 15.2049 12.5412 15.3449 12.4828C15.4848 12.4244 15.6348 12.395 15.7859 12.3964C15.9371 12.3977 16.0865 12.4297 16.2254 12.4906C16.3644 12.5515 16.4901 12.64 16.5953 12.7511L16.5952 12.7511L16.5959 12.7518L17.3155 13.4851L17.3485 13.5187L17.384 13.4878C19.2004 11.9062 21.3642 10.7954 23.6915 10.2499C26.0187 9.70437 28.4407 9.74018 30.7515 10.3543C33.0623 10.9684 35.1937 12.1427 36.9644 13.7774C38.7351 15.412 40.0927 17.4588 40.9218 19.7437C41.7509 22.0286 42.0269 24.4839 41.7263 26.901C41.4257 29.3181 40.5574 31.6253 39.1953 33.6265C37.8332 35.6277 36.0176 37.2637 33.903 38.3954C31.7883 39.5272 29.4373 40.122 27.0495 40.128C27.0335 40.1281 27.0195 40.1325 27.0127 40.1347L27.0115 40.1351C27.0053 40.1371 27.0035 40.1374 27.0032 40.1375H13.5457C13.2438 40.1375 12.9541 40.0152 12.7403 39.7971C12.5265 39.579 12.4063 39.283 12.4063 38.9741C12.4063 38.6653 12.5265 38.3693 12.7403 38.1512C12.9541 37.9331 13.2438 37.8108 13.5457 37.8108H26.9689ZM27.3395 22.9813L27.3685 22.9902L27.3898 22.9685L30.8363 19.4531C31.05 19.2352 31.3397 19.1129 31.6415 19.1129C31.9433 19.1129 32.233 19.2351 32.4467 19.4531C32.6601 19.6712 32.7801 19.967 32.7801 20.2755C32.7801 20.5841 32.66 20.8799 32.4465 21.0979L29 24.6137L28.9795 24.6346L28.9877 24.6628C29.0209 24.7759 29.0441 24.8918 29.0571 25.0091C29.0566 25.4229 28.9361 25.8273 28.7108 26.1713C28.4851 26.516 28.1643 26.7846 27.7892 26.9431C27.414 27.1017 27.0013 27.1432 26.6031 27.0624C26.2049 26.9816 25.839 26.7822 25.5517 26.4891C25.2644 26.1961 25.0686 25.8226 24.9893 25.4158C24.91 25.009 24.9507 24.5874 25.1062 24.2043C25.2618 23.8212 25.5251 23.4939 25.8629 23.2637C26.1998 23.034 26.5956 22.9113 27.0006 22.9107C27.1154 22.9239 27.2288 22.9476 27.3395 22.9813ZM28.9375 7.37672H25.0706C24.7687 7.37672 24.479 7.2544 24.2652 7.03634C24.0514 6.81824 23.9312 6.52222 23.9312 6.21336C23.9312 5.9045 24.0514 5.60849 24.2652 5.39039C24.479 5.17232 24.7687 5.05 25.0706 5.05H28.9375C29.2393 5.05 29.529 5.17232 29.7428 5.39039C29.9566 5.60849 30.0769 5.9045 30.0769 6.21336C30.0769 6.52222 29.9566 6.81824 29.7428 7.03634C29.529 7.2544 29.2393 7.37672 28.9375 7.37672ZM23.8363 33.2977C24.0501 33.5158 24.1704 33.8118 24.1704 34.1207C24.1704 34.4296 24.0501 34.7256 23.8363 34.9437C23.6225 35.1617 23.3328 35.2841 23.031 35.2841H8.22678C7.9249 35.2841 7.63519 35.1617 7.42142 34.9437C7.20762 34.7256 7.08734 34.4296 7.08734 34.1207C7.08734 33.8118 7.20762 33.5158 7.42142 33.2977C7.63519 33.0796 7.9249 32.9573 8.22678 32.9573H23.031C23.3328 32.9573 23.6225 33.0796 23.8363 33.2977ZM24.3054 28.4443C24.5192 28.6624 24.6395 28.9584 24.6395 29.2672C24.6395 29.5761 24.5192 29.8721 24.3054 30.0902C24.0917 30.3083 23.8019 30.4306 23.5001 30.4306H5.18943C4.88756 30.4306 4.59785 30.3083 4.38408 30.0902C4.17028 29.8721 4.05 29.5761 4.05 29.2672C4.05 28.9584 4.17028 28.6624 4.38408 28.4443C4.59785 28.2262 4.88756 28.1039 5.18943 28.1039H23.5001C23.8019 28.1039 24.0917 28.2262 24.3054 28.4443Z" fill="#2A5EE4" stroke="white" stroke-width="0.1"/>
<path d="M32.4824 19.4181C32.2594 19.1907 31.9569 19.0629 31.6415 19.0629C31.3261 19.0629 31.0236 19.1907 30.8006 19.4181L27.3541 22.9335C27.2396 22.8985 27.1222 22.8742 27.0034 22.8607C26.5874 22.8607 26.1806 22.9865 25.8347 23.2223C25.4887 23.4582 25.2191 23.7933 25.0599 24.1855C24.9007 24.5776 24.859 25.0091 24.9402 25.4254C25.0214 25.8416 25.2218 26.224 25.516 26.5241C25.8102 26.8242 26.1851 27.0286 26.5932 27.1114C27.0013 27.1941 27.4242 27.1516 27.8086 26.9892C28.193 26.8267 28.5215 26.5516 28.7527 26.1987C28.9838 25.8457 29.1071 25.4308 29.1071 25.0064C29.0938 24.8852 29.0699 24.7655 29.0357 24.6487L32.4822 21.1328C32.7049 20.9054 32.8301 20.597 32.8301 20.2755C32.8301 19.954 32.7051 19.6457 32.4824 19.4181Z" fill="#20BFFC"/>
</svg>
