<svg width="40" height="45" viewBox="0 0 40 45" fill="none" xmlns="http://www.w3.org/2000/svg">
<path d="M1.3 22C1.3 32.0355 9.46449 40.2 19.5 40.2C29.5355 40.2 37.7 32.0355 37.7 22C37.7 11.9645 29.5355 3.8 19.5 3.8C9.46449 3.8 1.3 11.9645 1.3 22ZM3.2 22C3.2 13.0123 10.5123 5.7 19.5 5.7C28.4877 5.7 35.8 13.0123 35.8 22C35.8 30.9877 28.4877 38.3 19.5 38.3C10.5123 38.3 3.2 30.9877 3.2 22Z" fill="#2A5EE4" stroke="#2A5EE4" stroke-width="0.4"/>
<path d="M22.8339 18.2799L22.9632 18.4319L23.1155 18.303C23.1693 18.2575 23.9063 17.6445 24.9508 17.349C25.9842 17.0566 27.3146 17.0741 28.6032 18.274L28.7495 18.4102L28.8858 18.264L29.9083 17.1668L30.0447 17.0205L29.8983 16.8841C28.3827 15.4721 26.7333 15.1555 25.2848 15.3504C23.8451 15.544 22.6074 16.2415 21.8856 16.8554L21.7333 16.9849L21.8627 17.1373L22.8339 18.2799Z" fill="#2A5EE4" stroke="#2A5EE4" stroke-width="0.4"/>
<path d="M11.2089 18.1965L11.3347 18.3444L11.4863 18.2231C11.4863 18.2231 11.4864 18.223 11.4867 18.2228C11.506 18.2069 12.1766 17.656 13.1361 17.3368L13.1363 17.3368C14.5699 16.8587 15.853 17.1431 16.9782 18.1906L17.1245 18.3268L17.2608 18.1806L18.2833 17.0834L18.4196 16.9371L18.2733 16.8007C16.1978 14.867 13.9996 15.0475 12.536 15.5341C11.2053 15.9765 10.3057 16.7332 10.2597 16.7727L10.109 16.9024L10.2377 17.0539L11.2089 18.1965Z" fill="#2A5EE4" stroke="#2A5EE4" stroke-width="0.4"/>
<path d="M19.9743 31.4554L19.9749 31.4554C20.0628 31.4592 20.1514 31.4615 20.2405 31.4615C21.9156 31.4615 23.5244 30.7391 25.0233 29.3424L25.1696 29.206L25.0333 29.0597L24.0108 27.9625L23.8745 27.8162L23.7281 27.9526C22.5154 29.0828 21.2879 29.612 20.0751 29.558L20.0746 29.558C19.1357 29.5183 18.3283 29.1379 17.7489 28.7589C17.1749 28.3834 16.8364 28.017 16.8315 28.0116L16.8314 28.0116L16.6976 27.8636L16.5493 27.9971L15.9923 28.4984L15.9921 28.4986L15.9919 28.4988L15.4335 28.9987L15.2841 29.1324L15.4182 29.2815C15.4959 29.3678 17.279 31.3321 19.9743 31.4554Z" fill="#20BFFC" stroke="#20BFFC" stroke-width="0.4"/>
</svg>
