<svg width="46" height="45" viewBox="0 0 46 45" fill="none" xmlns="http://www.w3.org/2000/svg">
<path d="M7.53125 39.375V19.6875C7.53125 18.1406 8.79688 16.875 10.3438 16.875H35.6562C37.2031 16.875 38.4688 18.1406 38.4688 19.6875V39.375C38.4688 40.9219 37.2031 42.1875 35.6562 42.1875H13.1562" stroke="#2A5EE4" stroke-width="2.5" stroke-miterlimit="10" stroke-linecap="round" stroke-linejoin="round"/>
<path d="M13.1562 16.875V12.6562C13.1562 7.17187 17.5156 2.8125 23 2.8125C28.4844 2.8125 32.8438 7.17187 32.8438 12.6562V16.875" stroke="#2A5EE4" stroke-width="2.5" stroke-miterlimit="10" stroke-linecap="round" stroke-linejoin="round"/>
<path d="M23 29.5312C24.5533 29.5312 25.8125 28.2721 25.8125 26.7188C25.8125 25.1654 24.5533 23.9062 23 23.9062C21.4467 23.9062 20.1875 25.1654 20.1875 26.7188C20.1875 28.2721 21.4467 29.5312 23 29.5312Z" stroke="#20BFFC" stroke-width="2" stroke-miterlimit="10" stroke-linecap="round" stroke-linejoin="round"/>
<path d="M23 35.1562V29.5312" stroke="#20BFFC" stroke-width="2" stroke-miterlimit="10" stroke-linecap="round" stroke-linejoin="round"/>
</svg>
