<svg width="124" height="28" viewBox="0 0 124 28" fill="none" xmlns="http://www.w3.org/2000/svg">
<path d="M29.9629 19.8263H35.7618V22.4996H27.25V8.32324H35.6634V10.9965H29.9629V14.014H35.1721V16.6468H29.9629V19.8263Z" fill="#2B313F"/>
<path d="M37.5561 22.4997V7.71582H40.092V22.4997H37.5561Z" fill="#2B313F"/>
<path d="M49.8826 12.3734H52.4185V22.4993H49.8826V21.3045C49.1224 22.29 48.0544 22.7828 46.6785 22.7828C45.3679 22.7828 44.2409 22.2698 43.2972 21.2437C42.3668 20.2041 41.9016 18.935 41.9016 17.4363C41.9016 15.9377 42.3668 14.6753 43.2972 13.6492C44.2409 12.6096 45.3679 12.0898 46.6785 12.0898C48.0544 12.0898 49.1224 12.5826 49.8826 13.5682V12.3734ZM45.2041 19.502C45.715 20.0286 46.3639 20.2919 47.1501 20.2919C47.9363 20.2919 48.5852 20.0286 49.0963 19.502C49.6204 18.962 49.8826 18.2734 49.8826 17.4363C49.8826 16.5992 49.6204 15.9174 49.0963 15.3909C48.5852 14.8508 47.9363 14.5808 47.1501 14.5808C46.3639 14.5808 45.715 14.8508 45.2041 15.3909C44.693 15.9174 44.4375 16.5992 44.4375 17.4363C44.4375 18.2734 44.693 18.962 45.2041 19.502Z" fill="#2B313F"/>
<path d="M56.9806 15.2491C56.9806 15.5192 57.1508 15.7419 57.4915 15.9174C57.8453 16.0795 58.2712 16.228 58.7692 16.363C59.2672 16.4845 59.7652 16.6465 60.2632 16.849C60.7612 17.038 61.1807 17.3621 61.5213 17.8211C61.8752 18.2802 62.0521 18.854 62.0521 19.5425C62.0521 20.5821 61.6719 21.3854 60.912 21.9525C60.165 22.5061 59.228 22.7828 58.101 22.7828C56.0827 22.7828 54.7068 21.9795 53.9727 20.3729L56.1744 19.097C56.4627 19.9746 57.105 20.4134 58.101 20.4134C59.0051 20.4134 59.4573 20.1231 59.4573 19.5425C59.4573 19.2725 59.2804 19.0565 58.9265 18.8945C58.5858 18.719 58.1664 18.5637 57.6684 18.4287C57.1704 18.2937 56.6724 18.1249 56.1744 17.9224C55.6764 17.7199 55.2505 17.4026 54.8967 16.9705C54.556 16.525 54.3858 15.9714 54.3858 15.3099C54.3858 14.3108 54.7396 13.5277 55.4471 12.9607C56.168 12.3801 57.0591 12.0898 58.1207 12.0898C58.9201 12.0898 59.6474 12.2789 60.3025 12.6569C60.9577 13.0214 61.4754 13.548 61.8556 14.2365L59.6931 15.4516C59.3786 14.7631 58.8545 14.4188 58.1207 14.4188C57.7929 14.4188 57.5178 14.4931 57.2949 14.6416C57.0852 14.7901 56.9806 14.9926 56.9806 15.2491Z" fill="#2B313F"/>
<path d="M69.0172 14.8846H66.7958V19.097C66.7958 19.448 66.8811 19.7046 67.0513 19.8666C67.2218 20.0286 67.4708 20.1231 67.7983 20.1501C68.126 20.1636 68.5323 20.1568 69.0172 20.1298V22.4993C67.2742 22.7018 66.0424 22.5331 65.3215 21.993C64.6138 21.453 64.2599 20.4876 64.2599 19.097V14.8846H62.5498V12.3734H64.2599V10.3279L66.7958 9.53809V12.3734H69.0172V14.8846Z" fill="#2B313F"/>
<path d="M72.0631 11.1585C71.6437 11.1585 71.2766 11.0033 70.9623 10.6927C70.6608 10.3687 70.51 9.99068 70.51 9.55863C70.51 9.12659 70.6608 8.74856 70.9623 8.42453C71.2766 8.1005 71.6437 7.93848 72.0631 7.93848C72.4955 7.93848 72.8625 8.1005 73.164 8.42453C73.4783 8.74856 73.6356 9.12659 73.6356 9.55863C73.6356 9.99068 73.4783 10.3687 73.164 10.6927C72.8625 11.0033 72.4955 11.1585 72.0631 11.1585ZM70.805 22.4996V12.3737H73.3409V22.4996H70.805Z" fill="#2B313F"/>
<path d="M80.3402 22.7828C78.8592 22.7828 77.6209 22.2698 76.625 21.2437C75.6419 20.2176 75.1506 18.9485 75.1506 17.4363C75.1506 15.9242 75.6419 14.6551 76.625 13.629C77.6209 12.6029 78.8592 12.0898 80.3402 12.0898C81.297 12.0898 82.1684 12.3261 82.9547 12.7987C83.7409 13.2712 84.3373 13.9057 84.7434 14.7023L82.5616 16.0187C82.365 15.6002 82.0636 15.2694 81.6573 15.0264C81.2642 14.7833 80.8186 14.6618 80.3206 14.6618C79.5605 14.6618 78.9315 14.9251 78.4333 15.4516C77.9353 15.9647 77.6863 16.6263 77.6863 17.4363C77.6863 18.2329 77.9353 18.8945 78.4333 19.421C78.9315 19.9341 79.5605 20.1906 80.3206 20.1906C80.8315 20.1906 81.2838 20.0758 81.6769 19.8463C82.0832 19.6033 82.3846 19.2725 82.5812 18.854L84.7829 20.1501C84.3502 20.9467 83.7409 21.588 82.9547 22.074C82.1684 22.5466 81.297 22.7828 80.3402 22.7828Z" fill="#2B313F"/>
<path d="M90.9579 22.7624C89.6737 22.7624 88.5728 22.4519 87.6556 21.8309C86.7513 21.2098 86.1157 20.3592 85.7486 19.2791L87.3214 18.3475C87.8586 20.0622 89.084 20.9195 90.9974 20.9195C91.9409 20.9195 92.6616 20.7238 93.1596 20.3322C93.6575 19.9272 93.9065 19.3939 93.9065 18.7323C93.9065 18.0573 93.6575 17.5509 93.1596 17.2134C92.6616 16.8759 91.8294 16.5181 90.6632 16.1401C90.0864 15.9511 89.6476 15.8025 89.3461 15.6945C89.0447 15.573 88.6645 15.3975 88.206 15.168C87.7602 14.925 87.4262 14.6819 87.2033 14.4389C86.9807 14.1824 86.7774 13.8516 86.594 13.4466C86.4236 13.0415 86.3386 12.5825 86.3386 12.0695C86.3386 10.8408 86.7578 9.86874 87.5965 9.15318C88.4351 8.42411 89.4575 8.05957 90.6632 8.05957C91.7508 8.05957 92.6944 8.34309 93.4938 8.91014C94.3064 9.47721 94.9157 10.2265 95.322 11.1581L93.7888 12.0695C93.1988 10.6113 92.1571 9.88223 90.6632 9.88223C89.9162 9.88223 89.3133 10.0712 88.8546 10.4493C88.3959 10.8273 88.1665 11.3404 88.1665 11.9884C88.1665 12.6095 88.3827 13.082 88.8153 13.4061C89.2477 13.7301 89.9947 14.0676 91.0563 14.4187C91.4362 14.5402 91.7049 14.6279 91.8622 14.6819C92.0195 14.7359 92.262 14.8305 92.5895 14.9655C92.9302 15.1005 93.1792 15.2085 93.3365 15.2895C93.4938 15.3705 93.7035 15.4853 93.9657 15.6338C94.2408 15.7823 94.4438 15.9241 94.575 16.0591C94.706 16.1941 94.8568 16.3629 95.027 16.5654C95.2107 16.7544 95.3416 16.9502 95.4201 17.1527C95.4989 17.3552 95.5643 17.5915 95.6167 17.8615C95.6823 18.118 95.7151 18.3948 95.7151 18.6918C95.7151 19.9339 95.276 20.9263 94.3981 21.6689C93.5199 22.3979 92.3733 22.7624 90.9579 22.7624Z" fill="#2B313F"/>
<path d="M98.5678 10.5306C98.2403 10.5306 97.965 10.4158 97.7423 10.1863C97.5194 9.9568 97.4081 9.68001 97.4081 9.35598C97.4081 9.03195 97.5194 8.75517 97.7423 8.52567C97.965 8.28263 98.2403 8.16113 98.5678 8.16113C98.8824 8.16113 99.1511 8.28263 99.3737 8.52567C99.5966 8.75517 99.708 9.03195 99.708 9.35598C99.708 9.68001 99.5966 9.9568 99.3737 10.1863C99.1511 10.4158 98.8824 10.5306 98.5678 10.5306ZM97.7028 22.4995V12.3735H99.4132V22.4995H97.7028Z" fill="#2B313F"/>
<path d="M110.18 12.3736H111.871V22.0743C111.871 23.5729 111.379 24.7341 110.396 25.5576C109.414 26.3946 108.234 26.8132 106.858 26.8132C105.757 26.8132 104.807 26.5971 104.008 26.1652C103.208 25.7465 102.605 25.1392 102.199 24.3425L103.693 23.4717C104.23 24.6057 105.298 25.1728 106.897 25.1728C107.92 25.1728 108.719 24.8959 109.296 24.3425C109.885 23.7889 110.18 23.0329 110.18 22.0743V20.6364C109.315 21.9865 108.083 22.6616 106.485 22.6616C105.082 22.6616 103.896 22.1485 102.927 21.1224C101.957 20.0963 101.472 18.8475 101.472 17.3758C101.472 15.9042 101.957 14.6621 102.927 13.6495C103.896 12.6234 105.082 12.1104 106.485 12.1104C108.097 12.1104 109.328 12.7787 110.18 14.1153V12.3736ZM104.185 19.9478C104.853 20.6364 105.685 20.9807 106.681 20.9807C107.677 20.9807 108.509 20.6364 109.178 19.9478C109.846 19.2593 110.18 18.4019 110.18 17.3758C110.18 16.3632 109.846 15.5127 109.178 14.8241C108.509 14.1355 107.677 13.7913 106.681 13.7913C105.685 13.7913 104.853 14.1355 104.185 14.8241C103.516 15.5127 103.182 16.3632 103.182 17.3758C103.182 18.4019 103.516 19.2593 104.185 19.9478Z" fill="#2B313F"/>
<path d="M119.356 12.1104C120.51 12.1104 121.433 12.4884 122.128 13.2444C122.823 13.987 123.17 14.9996 123.17 16.2822V22.4996H121.46V16.3835C121.46 15.5599 121.244 14.9254 120.811 14.4798C120.379 14.0208 119.782 13.7913 119.022 13.7913C118.17 13.7913 117.482 14.068 116.958 14.6216C116.434 15.1616 116.172 15.9987 116.172 17.1328V22.4996H114.462V12.3736H116.172V13.8317C116.866 12.6842 117.928 12.1104 119.356 12.1104Z" fill="#2B313F"/>
<path fill-rule="evenodd" clip-rule="evenodd" d="M1.41667 24.5341H17.1133C17.8957 24.5341 18.53 23.9131 18.53 23.147V7.71587L11.445 1.10254H1.41667C0.634263 1.10254 0 1.72359 0 2.48969V23.147C0 23.9131 0.634263 24.5341 1.41667 24.5341ZM6.26466 20.8397L6.2645 20.8401C6.08914 21.3006 5.5738 21.5318 5.11322 21.3567C4.65251 21.1815 4.42106 20.666 4.59626 20.2052L5.43046 20.5225C4.59626 20.2052 4.59635 20.205 4.59645 20.2048L4.59666 20.2042L4.59715 20.2029L4.59844 20.1995L4.60223 20.1898L4.61461 20.1586C4.62497 20.1327 4.6396 20.097 4.65842 20.0529C4.69598 19.9646 4.75056 19.8418 4.82157 19.6959C4.96242 19.4064 5.17355 19.0141 5.45172 18.6166C5.96154 17.8879 6.90726 16.8411 8.27337 16.8558C8.86943 16.8621 9.34582 17.0554 9.72469 17.3703C10.068 17.6556 10.2984 18.0179 10.4554 18.2663C10.8153 18.8354 10.951 19.0238 11.2836 19.0948C11.3868 19.1169 11.4991 19.1288 11.6186 19.1318C12.1617 19.1451 12.8555 18.9722 13.539 18.7134C13.9305 18.565 14.2761 18.4054 14.5239 18.2824C14.6472 18.2213 14.745 18.1699 14.8106 18.1346C14.8434 18.1169 14.868 18.1033 14.8837 18.0946L14.9004 18.0853L14.9029 18.0838L14.9032 18.0837C15.3307 17.8385 15.8759 17.9863 16.1212 18.4137C16.3665 18.8412 16.2189 19.3867 15.7913 19.632L15.3473 18.8582C15.7913 19.632 15.7912 19.6321 15.791 19.6322L15.7906 19.6324L15.7897 19.6329L15.7871 19.6344L15.7791 19.639L15.7522 19.654C15.7295 19.6667 15.6975 19.6843 15.6569 19.7062C15.5758 19.7499 15.4602 19.8105 15.317 19.8816C15.0316 20.0231 14.6311 20.2084 14.1712 20.3826C13.3021 20.7118 12.0265 21.0788 10.9107 20.8404C10.1642 20.6809 9.69053 20.2554 9.37038 19.8491C9.2178 19.6555 9.10009 19.4663 9.00433 19.3123C8.98421 19.28 8.96506 19.2492 8.94676 19.2202C8.77976 18.9562 8.68261 18.8251 8.58391 18.7431C8.52073 18.6906 8.4405 18.6426 8.25422 18.6406C7.84927 18.6363 7.37832 18.9766 6.91424 19.6399C6.70546 19.9383 6.54032 20.2431 6.42666 20.4768C6.37041 20.5924 6.32816 20.6877 6.30071 20.7521C6.28702 20.7843 6.2771 20.8086 6.27104 20.8237L6.26489 20.8392L6.26466 20.8397Z" fill="#4277FD"/>
<path d="M11.445 1.10254L18.53 7.71587H11.6812C11.5507 7.71587 11.445 7.61013 11.445 7.47968V1.10254Z" fill="#4060B1"/>
</svg>
