<svg width="120" height="28" viewBox="0 0 120 28" fill="none" xmlns="http://www.w3.org/2000/svg">
<g id="ElasticSign">
<g id="Text">
<path id="Vector" d="M28.9964 19.8532H34.6083V22.4402H26.3711V8.72119H34.5131V11.3082H28.9964V14.2284H34.0376V16.7762H28.9964V19.8532Z" fill="#2B313F"/>
<path id="Vector_2" d="M36.3447 22.4403V8.1333H38.7988V22.4403H36.3447Z" fill="#2B313F"/>
<path id="Vector_3" d="M48.2733 12.6411H50.7274V22.4404H48.2733V21.2841C47.5377 22.2379 46.5041 22.7147 45.1726 22.7147C43.9043 22.7147 42.8137 22.2183 41.9003 21.2253C41 20.2192 40.5498 18.991 40.5498 17.5407C40.5498 16.0904 41 14.8688 41.9003 13.8758C42.8137 12.8697 43.9043 12.3667 45.1726 12.3667C46.5041 12.3667 47.5377 12.8436 48.2733 13.7974V12.6411ZM43.7458 19.5398C44.2402 20.0494 44.8681 20.3041 45.629 20.3041C46.3899 20.3041 47.0178 20.0494 47.5125 19.5398C48.0196 19.0171 48.2733 18.3508 48.2733 17.5407C48.2733 16.7306 48.0196 16.0708 47.5125 15.5613C47.0178 15.0386 46.3899 14.7773 45.629 14.7773C44.8681 14.7773 44.2402 15.0386 43.7458 15.5613C43.2511 16.0708 43.0039 16.7306 43.0039 17.5407C43.0039 18.3508 43.2511 19.0171 43.7458 19.5398Z" fill="#2B313F"/>
<path id="Vector_4" d="M55.1422 15.4241C55.1422 15.6854 55.307 15.901 55.6367 16.0708C55.9791 16.2276 56.3913 16.3713 56.8732 16.502C57.3551 16.6196 57.8371 16.7764 58.319 16.9724C58.8009 17.1553 59.2068 17.4689 59.5365 17.9131C59.879 18.3573 60.0502 18.9126 60.0502 19.579C60.0502 20.5851 59.6823 21.3624 58.9469 21.9112C58.224 22.4469 57.3171 22.7147 56.2266 22.7147C54.2734 22.7147 52.9418 21.9373 52.2314 20.3825L54.3621 19.1478C54.6411 19.9971 55.2627 20.4217 56.2266 20.4217C57.1014 20.4217 57.5391 20.1408 57.5391 19.579C57.5391 19.3177 57.3679 19.1086 57.0254 18.9518C56.6957 18.782 56.2898 18.6317 55.8079 18.501C55.326 18.3704 54.844 18.2071 54.3621 18.0111C53.8802 17.8151 53.468 17.5081 53.1256 17.09C52.7959 16.6588 52.6311 16.1231 52.6311 15.4829C52.6311 14.516 52.9736 13.7582 53.6582 13.2094C54.3559 12.6476 55.2182 12.3667 56.2456 12.3667C57.0192 12.3667 57.7231 12.5496 58.357 12.9155C58.9911 13.2682 59.492 13.7778 59.86 14.4441L57.7673 15.62C57.4629 14.9537 56.9557 14.6205 56.2456 14.6205C55.9284 14.6205 55.6621 14.6924 55.4464 14.8361C55.2435 14.9798 55.1422 15.1758 55.1422 15.4241Z" fill="#2B313F"/>
<path id="Vector_5" d="M66.791 15.0713H64.6413V19.1478C64.6413 19.4875 64.7238 19.7357 64.8885 19.8925C65.0535 20.0493 65.2945 20.1408 65.6114 20.1669C65.9286 20.18 66.3218 20.1734 66.791 20.1473V22.4403C65.1042 22.6363 63.9122 22.473 63.2145 21.9504C62.5297 21.4277 62.1872 20.4935 62.1872 19.1478V15.0713H60.5322V12.641H62.1872V10.6616L64.6413 9.89722V12.641H66.791V15.0713Z" fill="#2B313F"/>
<path id="Vector_6" d="M69.7384 11.4651C69.3324 11.4651 68.9772 11.3148 68.673 11.0143C68.3813 10.7007 68.2354 10.3349 68.2354 9.91676C68.2354 9.49867 68.3813 9.13283 68.673 8.81925C68.9772 8.50568 69.3324 8.34888 69.7384 8.34888C70.1568 8.34888 70.512 8.50568 70.8037 8.81925C71.1079 9.13283 71.2601 9.49867 71.2601 9.91676C71.2601 10.3349 71.1079 10.7007 70.8037 11.0143C70.512 11.3148 70.1568 11.4651 69.7384 11.4651ZM68.5208 22.4403V12.641H70.9749V22.4403H68.5208Z" fill="#2B313F"/>
<path id="Vector_7" d="M77.7488 22.7147C76.3155 22.7147 75.1172 22.2183 74.1533 21.2253C73.202 20.2323 72.7266 19.0041 72.7266 17.5407C72.7266 16.0774 73.202 14.8492 74.1533 13.8562C75.1172 12.8632 76.3155 12.3667 77.7488 12.3667C78.6746 12.3667 79.518 12.5953 80.2789 13.0527C81.0398 13.5099 81.6169 14.124 82.0099 14.8949L79.8984 16.1688C79.7082 15.7638 79.4165 15.4437 79.0233 15.2085C78.6429 14.9733 78.2117 14.8557 77.7298 14.8557C76.9941 14.8557 76.3855 15.1105 75.9033 15.62C75.4214 16.1166 75.1804 16.7568 75.1804 17.5407C75.1804 18.3116 75.4214 18.9518 75.9033 19.4614C76.3855 19.9579 76.9941 20.2061 77.7298 20.2061C78.2242 20.2061 78.6619 20.0951 79.0423 19.873C79.4355 19.6378 79.7272 19.3177 79.9174 18.9126L82.0481 20.1669C81.6294 20.9378 81.0398 21.5584 80.2789 22.0288C79.518 22.4861 78.6746 22.7147 77.7488 22.7147Z" fill="#2B313F"/>
<path id="Vector_8" d="M88.0236 22.6951C86.7808 22.6951 85.7155 22.3946 84.8279 21.7936C83.9528 21.1926 83.3376 20.3694 82.9824 19.3242L84.5044 18.4227C85.0243 20.082 86.2102 20.9117 88.0619 20.9117C88.975 20.9117 89.6724 20.7222 90.1543 20.3433C90.6362 19.9513 90.8772 19.4352 90.8772 18.795C90.8772 18.1417 90.6362 17.6518 90.1543 17.3251C89.6724 16.9985 88.867 16.6522 87.7384 16.2864C87.1803 16.1035 86.7556 15.9597 86.4639 15.8552C86.1722 15.7376 85.8042 15.5678 85.3605 15.3457C84.9291 15.1105 84.6059 14.8753 84.3902 14.6401C84.1747 14.3919 83.978 14.0717 83.8005 13.6798C83.6356 13.2878 83.5533 12.8436 83.5533 12.3471C83.5533 11.1581 83.959 10.2174 84.7706 9.52489C85.5823 8.81933 86.5716 8.46655 87.7384 8.46655C88.791 8.46655 89.7041 8.74093 90.4777 9.28968C91.2641 9.83846 91.8538 10.5636 92.247 11.4652L90.7632 12.3471C90.1923 10.936 89.1842 10.2304 87.7384 10.2304C87.0155 10.2304 86.4321 10.4133 85.9882 10.7792C85.5443 11.145 85.3223 11.6415 85.3223 12.2687C85.3223 12.8697 85.5315 13.327 85.9502 13.6406C86.3686 13.9542 87.0915 14.2808 88.1189 14.6205C88.4866 14.7381 88.7465 14.823 88.8987 14.8753C89.051 14.9276 89.2857 15.019 89.6026 15.1497C89.9323 15.2803 90.1733 15.3849 90.3255 15.4633C90.4777 15.5417 90.6807 15.6527 90.9344 15.7964C91.2006 15.9402 91.3971 16.0774 91.5241 16.208C91.6508 16.3387 91.7968 16.502 91.9615 16.698C92.1392 16.8809 92.266 17.0703 92.3419 17.2663C92.4182 17.4623 92.4814 17.691 92.5322 17.9523C92.5957 18.2005 92.6274 18.4684 92.6274 18.7558C92.6274 19.9579 92.2025 20.9182 91.3528 21.6368C90.503 22.3424 89.3934 22.6951 88.0236 22.6951Z" fill="#2B313F"/>
<path id="Vector_9" d="M95.3879 10.8575C95.071 10.8575 94.8045 10.7464 94.5891 10.5243C94.3734 10.3022 94.2656 10.0343 94.2656 9.72076C94.2656 9.40718 94.3734 9.13932 94.5891 8.91723C94.8045 8.68203 95.071 8.56445 95.3879 8.56445C95.6924 8.56445 95.9524 8.68203 96.1678 8.91723C96.3835 9.13932 96.4913 9.40718 96.4913 9.72076C96.4913 10.0343 96.3835 10.3022 96.1678 10.5243C95.9524 10.7464 95.6924 10.8575 95.3879 10.8575ZM94.5508 22.4403V12.641H96.2061V22.4403H94.5508Z" fill="#2B313F"/>
<path id="Vector_10" d="M106.626 12.641H108.262V22.0287C108.262 23.479 107.786 24.6028 106.835 25.3997C105.884 26.2097 104.742 26.6148 103.411 26.6148C102.345 26.6148 101.426 26.4057 100.652 25.9877C99.8787 25.5825 99.2953 24.9948 98.9021 24.2238L100.348 23.381C100.868 24.4785 101.901 25.0273 103.449 25.0273C104.438 25.0273 105.212 24.7594 105.77 24.2238C106.34 23.6881 106.626 22.9564 106.626 22.0287V20.6372C105.789 21.9438 104.596 22.5971 103.049 22.5971C101.692 22.5971 100.545 22.1006 99.606 21.1076C98.6674 20.1146 98.1982 18.906 98.1982 17.4819C98.1982 16.0577 98.6674 14.8556 99.606 13.8757C100.545 12.8827 101.692 12.3862 103.049 12.3862C104.609 12.3862 105.801 13.033 106.626 14.3265V12.641ZM100.824 19.9709C101.47 20.6372 102.276 20.9704 103.239 20.9704C104.203 20.9704 105.009 20.6372 105.656 19.9709C106.302 19.3045 106.626 18.4749 106.626 17.4819C106.626 16.5019 106.302 15.6788 105.656 15.0124C105.009 14.3461 104.203 14.0129 103.239 14.0129C102.276 14.0129 101.47 14.3461 100.824 15.0124C100.177 15.6788 99.8532 16.5019 99.8532 17.4819C99.8532 18.4749 100.177 19.3045 100.824 19.9709Z" fill="#2B313F"/>
<path id="Vector_11" d="M115.507 12.3862C116.622 12.3862 117.516 12.7521 118.189 13.4837C118.861 14.2024 119.197 15.1823 119.197 16.4235V22.4403H117.542V16.5215C117.542 15.7245 117.333 15.1104 116.914 14.6792C116.496 14.235 115.918 14.0129 115.183 14.0129C114.359 14.0129 113.693 14.2808 113.186 14.8164C112.678 15.3391 112.425 16.1492 112.425 17.2467V22.4403H110.77V12.641H112.425V14.0521C113.097 12.9415 114.124 12.3862 115.507 12.3862Z" fill="#2B313F"/>
</g>
<g id="Icon">
<path id="Subtract" fill-rule="evenodd" clip-rule="evenodd" d="M1.37097 24.4091H16.5613C17.3185 24.4091 17.9323 23.8081 17.9323 23.0667V8.1334L11.0758 1.7334H1.37097C0.613803 1.7334 0 2.33441 0 3.0758V23.0667C0 23.8081 0.613803 24.4091 1.37097 24.4091ZM5.90589 20.7724L5.90512 20.7744L5.905 20.7747C5.76831 21.1336 5.36661 21.3139 5.0076 21.1773C4.64848 21.0408 4.46807 20.6389 4.60464 20.2798L5.25488 20.5271C4.60464 20.2798 4.60471 20.2796 4.60479 20.2794L4.60496 20.279L4.60537 20.2779L4.60649 20.275L4.60988 20.2662L4.62127 20.2375C4.6309 20.2135 4.64461 20.1801 4.66233 20.1384C4.69774 20.0553 4.74939 19.939 4.81672 19.8007C4.95047 19.5257 5.15046 19.1544 5.41312 18.779C5.90219 18.08 6.77271 17.1334 8.00428 17.1467C8.54254 17.1524 8.96627 17.3258 9.3032 17.6058C9.61244 17.8628 9.82281 18.1916 9.97572 18.4335C10.3173 18.9736 10.4827 19.2241 10.8841 19.3098C11.4889 19.439 12.351 19.2404 13.1613 18.9335C13.5467 18.7875 13.8863 18.6305 14.1296 18.5098C14.2509 18.4497 14.3472 18.3991 14.4121 18.3641C14.4445 18.3467 14.4691 18.3332 14.4849 18.3243L14.502 18.3147L14.5054 18.3128L14.5055 18.3128L14.5056 18.3127C14.8388 18.1216 15.2638 18.2368 15.455 18.57C15.6463 18.9032 15.5311 19.3284 15.1979 19.5196L14.8824 18.9699C15.1979 19.5196 15.1978 19.5197 15.1977 19.5197L15.1973 19.5199L15.1965 19.5204L15.1942 19.5217L15.187 19.5258L15.1619 19.5399C15.1406 19.5517 15.1103 19.5684 15.0717 19.5892C14.9947 19.6307 14.8845 19.6885 14.7478 19.7563C14.4752 19.8915 14.0928 20.0685 13.6541 20.2346C12.8164 20.5519 11.6221 20.8902 10.5934 20.6704C9.59885 20.458 9.14273 19.7266 8.85429 19.2641C8.83543 19.2339 8.81729 19.2048 8.79976 19.1771C8.63909 18.923 8.53254 18.7744 8.41399 18.6759C8.32313 18.6004 8.20819 18.5403 7.98936 18.5379C7.50699 18.5327 7.00654 18.9286 6.55312 19.5766C6.34455 19.8747 6.18041 20.178 6.06785 20.4093C6.01203 20.5241 5.96998 20.6189 5.94247 20.6835C5.92874 20.7158 5.91869 20.7403 5.91242 20.7559L5.90589 20.7724Z" fill="#4277FD"/>
<path id="Vector_12" d="M11.0762 1.7334L17.9326 8.1334H11.3047C11.1785 8.1334 11.0762 8.03107 11.0762 7.90483V1.7334Z" fill="#1D48B8"/>
</g>
</g>
</svg>
