<svg width="64" height="64" viewBox="0 0 64 64" fill="none" xmlns="http://www.w3.org/2000/svg">
<rect width="64" height="64" rx="8" fill="#7997E2"/>
<path d="M25.8256 37.0781C25.5051 37.0781 25.2892 37.1089 25.1777 37.1396V39.152C25.3101 39.1828 25.4755 39.1913 25.7037 39.1913C26.5378 39.1913 27.0516 38.7779 27.0516 38.0792C27.0516 37.454 26.6092 37.0781 25.8256 37.0781ZM31.8982 37.0986C31.5499 37.0986 31.3235 37.1294 31.1894 37.1601V41.6189C31.3235 41.6496 31.5394 41.6496 31.7345 41.6496C33.1573 41.6599 34.0837 40.8911 34.0837 39.2648C34.0942 37.8469 33.2496 37.0986 31.8982 37.0986Z" fill="white"/>
<path d="M35.8095 15.417H21.8775C20.9538 15.417 20.0679 15.777 19.4147 16.4177C18.7615 17.0585 18.3945 17.9275 18.3945 18.8337V46.167C18.3945 47.0731 18.7615 47.9422 19.4147 48.5829C20.0679 49.2237 20.9538 49.5837 21.8775 49.5837H42.7755C43.6992 49.5837 44.5851 49.2237 45.2383 48.5829C45.8915 47.9422 46.2585 47.0731 46.2585 46.167V25.667L35.8095 15.417ZM27.9693 39.6582C27.4312 40.1537 26.637 40.3757 25.7123 40.3757C25.533 40.3777 25.3538 40.3674 25.1759 40.345V42.7811H23.619V36.0571C24.3216 35.9543 25.0316 35.9074 25.7419 35.917C26.7119 35.917 27.4016 36.0981 27.8665 36.462C28.3089 36.807 28.6084 37.3725 28.6084 38.0387C28.6067 38.7084 28.3803 39.2739 27.9693 39.6582ZM34.5992 41.973C33.8677 42.5692 32.7549 42.8528 31.3948 42.8528C30.5798 42.8528 30.0033 42.8016 29.6115 42.7503V36.0588C30.3144 35.9581 31.0241 35.9107 31.7344 35.917C33.0527 35.917 33.9095 36.1493 34.5783 36.6447C35.301 37.1709 35.7538 38.0097 35.7538 39.2141C35.7538 40.5175 35.2679 41.4178 34.5992 41.973ZM41.034 37.2324H38.366V38.7887H40.8598V40.0426H38.366V42.7828H36.7882V35.9682H41.034V37.2324ZM35.8095 27.3753H34.068V18.8337L42.7755 27.3753H35.8095Z" fill="white"/>
</svg>
