<svg xmlns="http://www.w3.org/2000/svg" width="60" height="61" viewBox="0 0 60 61" fill="none">
  <path fill-rule="evenodd" clip-rule="evenodd" d="M46.8795 29.8745C45.8442 29.898 44.986 29.0777 44.9625 28.0422C44.9405 27.066 44.908 25.831 44.8635 24.6518C38.8963 25.354 34.2605 24.4066 31.219 21.602C28.2108 18.8283 27.2188 14.6677 27.5682 9.8903C24.1298 9.9418 21.5843 10.1253 19.6661 10.5533C17.4863 11.0397 16.335 11.7931 15.5976 12.8446C14.7961 13.9874 14.2821 15.7588 14.0159 18.7214C13.7518 21.6612 13.75 25.4659 13.75 30.5C13.75 35.534 13.7517 39.342 14.0159 42.2855C14.2822 45.2522 14.7963 47.0288 15.5985 48.1748C16.3362 49.2285 17.4871 49.9828 19.6645 50.4665C21.9037 50.964 24.9995 51.125 29.375 51.125C30.4105 51.125 31.25 51.9645 31.25 53C31.25 54.0355 30.4105 54.875 29.375 54.875C25.0005 54.875 21.5338 54.7235 18.8511 54.1272C16.1067 53.5172 13.9763 52.3965 12.5265 50.3252C11.1412 48.3462 10.5616 45.7478 10.281 42.6208C9.99998 39.49 10 35.5152 10 30.5915V30.4082C10 25.4848 9.99998 21.5129 10.281 18.3858C10.5616 15.2621 11.1414 12.6676 12.5274 10.6913C13.9775 8.62378 16.1074 7.5052 18.8495 6.89335C21.5306 6.2951 24.9963 6.13698 29.3698 6.125H29.375C29.95 6.125 30.509 6.13065 31.052 6.14255C32.0077 6.16347 32.9327 6.40032 33.7632 6.7947C39.5722 9.55335 44.454 14.0469 47.6553 19.6327C48.1392 20.4773 48.4533 21.44 48.5143 22.4624C48.6143 24.1361 48.6765 26.405 48.7115 27.9578C48.735 28.993 47.9148 29.851 46.8795 29.8745ZM32.1545 10.1821C37.0935 12.5276 41.2707 16.2956 44.089 20.9661C38.8567 21.5288 35.6155 20.5551 33.761 18.8452C31.8895 17.1194 30.9643 14.2048 31.326 9.92362C31.604 9.96712 31.8845 10.0538 32.1545 10.1821ZM41.3877 33.9905C42.0492 33.5033 42.9508 33.5033 43.6123 33.9905L51.112 39.5168C51.9457 40.131 52.1238 41.3047 51.5093 42.1385C50.895 42.972 49.7212 43.15 48.8877 42.5358L44.375 39.2105V53C44.375 54.0355 43.5355 54.875 42.4998 54.875C41.4643 54.875 40.6248 54.0355 40.625 53V39.2105L36.112 42.5358C35.2785 43.15 34.1047 42.972 33.4905 42.1385C32.876 41.3047 33.054 40.131 33.8878 39.5168L41.3877 33.9905Z" fill="#4277FD"/>
</svg>