<svg width="1060" height="500" viewBox="0 0 1060 500" fill="none" xmlns="http://www.w3.org/2000/svg">
<path d="M0 429.45C0 444.454 10.9096 457.114 25.7921 459.017C106.76 469.375 360.724 500 533.017 500C705.033 500 954.307 469.473 1034.28 459.067C1049.13 457.135 1060 444.492 1060 429.517V30C1060 13.4315 1046.64 -3.05176e-05 1030.08 -3.05176e-05C945.458 -3.05176e-05 699.6 -3.05176e-05 530 -3.05176e-05C360.4 -3.05176e-05 114.542 -3.05176e-05 29.9237 -3.05176e-05C13.3552 -3.05176e-05 0 13.4314 0 30V429.45Z" fill="white"/>
</svg>
